<?xml version="1.0" encoding="UTF-8"?>
<!DOCTYPE svg PUBLIC "-//W3C//DTD SVG 1.1//EN" "http://www.w3.org/Graphics/SVG/1.1/DTD/svg11.dtd">
<!-- Creator: CorelDRAW X7 -->
<svg xmlns="http://www.w3.org/2000/svg" xml:space="preserve" width="64px" height="64px" version="1.1" shape-rendering="geometricPrecision" text-rendering="geometricPrecision" image-rendering="optimizeQuality" fill-rule="evenodd" clip-rule="evenodd"
viewBox="0 0 64 64"
 xmlns:xlink="http://www.w3.org/1999/xlink">
 <g id="Layer_x0020_1">
  <metadata id="CorelCorpID_0Corel-Layer"/>
  <g id="_1708001581184">
   <path fill="#333333" d="M60 64l-56 0c-2,0 -4,-2 -4,-4l0 -56c0,-2 2,-4 4,-4l56 0c2,0 4,2 4,4l0 56c0,2 -2,4 -4,4z"/>
   <path fill="#FF6600" d="M15 53c0,0 -1,0 -1,-1 0,0 1,-1 1,-1l10 0c0,0 1,1 1,1 0,1 -1,1 -1,1l-10 0zm0 -6c0,0 -1,-1 -1,-1 0,-1 1,-1 1,-1l10 0c0,0 1,0 1,1 0,0 -1,1 -1,1l-10 0zm0 -7c0,0 -1,0 -1,-1 0,0 1,-1 1,-1l10 0c0,0 1,1 1,1 0,1 -1,1 -1,1l-10 0zm0 -6c0,0 -1,0 -1,0 0,-1 1,-1 1,-1l18 0c1,0 1,0 1,1 0,0 0,0 -1,0l-18 0zm8 -6l9 0 0 -9 -4 0 0 2c0,0 0,1 0,1 -1,0 -1,-1 -1,-1l0 -2 -4 0 0 9zm10 2l-11 0c-1,0 -1,0 -1,-1l0 -11c0,0 0,-1 1,-1l6 0 5 0c1,0 1,1 1,1l0 11c0,1 0,1 -1,1zm-15 -18l-4 0c0,0 -1,0 -1,1 -1,0 -1,1 -1,1l0 40c0,1 0,2 1,2 0,1 1,1 1,1l27 0c0,0 1,0 1,-1 1,0 1,-1 1,-2l0 -11 -9 8 0 1 0 0 -6 1 -2 1 1 -2 2 -6 0 0 0 0 14 -15 0 -17c0,0 0,-1 -1,-1 0,-1 -1,-1 -1,-1l-4 0 0 1c0,1 -1,1 -1,1l-17 0c0,0 -1,0 -1,-1l0 -1zm2 -1l0 1 15 0 0 -1 0 -1c0,-1 0,-2 -1,-2 0,-1 -1,-1 -2,-1l-9 0c-1,0 -2,0 -2,1 -1,0 -1,1 -1,2l0 1zm-6 -1l4 0 0 0c0,-2 1,-3 2,-3 0,-1 1,-2 3,-2l9 0c1,0 3,1 3,2 1,0 2,1 2,3l0 0 4 0c1,0 2,1 3,1 0,1 1,2 1,3l0 16 3 -3 0 0 0 -1c2,0 4,1 5,2 1,0 1,2 1,4l0 0 -1 0 -1 2c0,0 1,0 1,0 0,0 0,0 0,0l0 0 0 0c1,1 1,2 1,2 0,1 0,2 -1,2l-5 6c0,0 0,0 0,0l0 0 0 0c-1,0 -1,0 -2,0 0,0 -1,0 -1,0l0 10c0,2 -1,3 -1,3 -1,1 -2,2 -3,2l-27 0c-1,0 -2,-1 -3,-2 0,0 -1,-1 -1,-3l0 -40c0,-1 1,-2 1,-3 1,0 2,-1 3,-1zm31 31l0 1c0,0 0,0 0,0l0 0 0 0 0 0 0 0 0 0 0 0c0,1 1,1 1,1 0,0 1,0 1,-1l0 0 0 0 0 0 0 0c0,0 0,0 0,0l5 -5c0,0 0,0 0,-1 0,0 0,0 0,0l0 0 0 0 0 0 0 0 0 0c0,-1 -1,-1 -1,-1 0,0 -1,0 -1,1l-2 2 -3 3c0,0 0,0 0,0zm-16 10l4 -1 4 -3 -3 -4 -4 4 -1 4zm9 -6l2 -1 -3 -4 -2 2 3 3zm3 -3l11 -11c0,-1 0,-2 -1,-2 0,-1 -1,-1 -2,-1l-11 11 3 3z"/>
  </g>
 </g>
</svg>
