<?xml version="1.0" encoding="UTF-8"?>
<!DOCTYPE svg PUBLIC "-//W3C//DTD SVG 1.1//EN" "http://www.w3.org/Graphics/SVG/1.1/DTD/svg11.dtd">
<!-- Creator: CorelDRAW X7 -->
<svg xmlns="http://www.w3.org/2000/svg" xml:space="preserve" width="630px" height="130px" version="1.1" shape-rendering="geometricPrecision" text-rendering="geometricPrecision" image-rendering="optimizeQuality" fill-rule="evenodd" clip-rule="evenodd"
viewBox="0 0 630 130"
 xmlns:xlink="http://www.w3.org/1999/xlink">
 <g id="Layer_x0020_1">
  <metadata id="CorelCorpID_0Corel-Layer"/>
  <rect fill="none" width="630" height="130"/>
  <g id="_1708218705248">
   <path fill="#999999" fill-rule="nonzero" d="M108 70l35 0 0 -11c0,0 0,0 0,0 0,-1 -1,-1 -1,-1l-32 0c-1,0 -1,0 -1,1 -1,0 -1,0 -1,0l0 11zm108 -26l0 -5c0,-3 1,-5 3,-8 1,-2 3,-4 5,-5 2,-1 4,-2 7,-2l24 0 0 14 -23 0c-1,0 -1,0 -1,0 -1,1 -1,1 -1,1l0 5 25 0 0 14 -25 0 0 48 -14 0 0 0 0 -48 -33 0c0,0 -1,0 -1,1 0,0 0,0 0,0l-1 39 0 8 0 0 -72 0 0 0c-3,0 -5,-1 -7,-2 -2,-1 -4,-3 -6,-5 -1,-3 -2,-5 -2,-8l0 -32c0,-3 1,-5 2,-7 2,-3 4,-4 6,-6 2,-1 4,-2 7,-2l34 0c2,0 5,1 7,2 2,2 4,3 5,6 2,2 2,4 2,7l0 23 -49 0 0 9c0,0 0,0 1,1 0,0 0,0 1,0l58 0 0 -33c0,-3 0,-5 2,-7 1,-3 3,-4 5,-6 2,-1 5,-2 7,-2l34 0zm-198 -15l14 0 0 77 -14 0 0 -77zm50 77l19 0 -34 -41 30 -36 -19 0 -30 36 34 41z"/>
   <path fill="#FF6600" fill-rule="nonzero" d="M285 106c-2,0 -5,-1 -7,-2 -2,-1 -4,-3 -5,-5 -2,-3 -2,-5 -2,-8l0 -6 14 0 0 6c0,0 0,0 0,1 0,0 1,0 1,0l46 0c0,0 1,0 1,0 0,-1 0,-1 0,-1l0 -15c0,0 0,-1 0,-1 0,0 -1,0 -1,0l-47 0c-2,0 -5,-1 -7,-2 -2,-2 -4,-3 -5,-6 -2,-2 -2,-4 -2,-7l0 -16c0,-3 0,-5 2,-7 1,-3 3,-4 5,-6 2,-1 5,-2 7,-2l47 0c3,0 6,1 8,2 2,2 4,3 5,6 2,2 2,4 2,7l0 6 -14 0 0 -5c0,-1 0,-1 0,-1 0,0 -1,-1 -1,-1l-46 0c0,0 -1,1 -1,1 0,0 0,0 0,1l0 14c0,1 0,1 0,1 0,1 1,1 1,1l46 0c3,0 6,0 8,2 2,1 4,3 5,5 2,2 2,5 2,7l0 16c0,3 0,5 -2,8 -1,2 -3,4 -5,5 -2,1 -5,2 -8,2l-47 0zm88 0c-2,0 -5,-1 -7,-2 -2,-1 -4,-3 -5,-5 -2,-3 -2,-5 -2,-8l0 -66 14 0 -1 19 25 0 0 14 -24 0 0 33c-1,0 0,0 0,1 0,0 0,0 1,0l23 0 0 14 -24 0zm47 0c-3,0 -5,-1 -8,-2 -2,-1 -4,-3 -5,-5 -1,-3 -2,-5 -2,-8l0 -32c0,-3 1,-5 2,-7 1,-3 3,-4 5,-6 3,-1 5,-2 8,-2l33 0c3,0 5,1 7,2 3,2 4,3 6,6 1,2 2,4 2,7l0 32c0,3 -1,5 -2,8 -2,2 -3,4 -6,5 -2,1 -4,2 -7,2l-33 0 0 0zm0 -14l33 0c0,0 0,0 0,0 1,-1 1,-1 1,-1l0 -32c0,0 0,0 -1,0 0,-1 0,-1 0,-1l-33 0c0,0 0,0 -1,1 0,0 0,0 0,0l0 32c0,0 0,0 0,1 1,0 1,0 1,0zm73 14c-2,0 -5,-1 -7,-2 -2,-1 -4,-3 -5,-5 -2,-3 -2,-5 -2,-8l0 -32c0,-3 0,-5 2,-7 1,-3 3,-4 5,-6 2,-1 5,-2 7,-2l48 0 0 14 -47 0c0,0 -1,0 -1,1 0,0 0,0 0,0l0 32c0,0 0,0 0,1 0,0 1,0 1,0l47 0 0 14 -48 0 0 0zm57 0l0 0 0 -82 14 0 0 44 11 0 22 -24 15 0 0 4 -24 27 24 27 0 4 -15 0 -22 -24 -11 0 0 24 -14 0z"/>
  </g>
 </g>
</svg>
