<?xml version="1.0" encoding="UTF-8"?>
<!DOCTYPE svg PUBLIC "-//W3C//DTD SVG 1.1//EN" "http://www.w3.org/Graphics/SVG/1.1/DTD/svg11.dtd">
<!-- Creator: CorelDRAW X7 -->
<svg xmlns="http://www.w3.org/2000/svg" xml:space="preserve" width="480px" height="130px" version="1.1" shape-rendering="geometricPrecision" text-rendering="geometricPrecision" image-rendering="optimizeQuality" fill-rule="evenodd" clip-rule="evenodd"
viewBox="0 0 480 130"
 xmlns:xlink="http://www.w3.org/1999/xlink">
 <g id="Layer_x0020_1">
  <metadata id="CorelCorpID_0Corel-Layer"/>
  <rect fill="none" width="480" height="130"/>
  <g id="_1707997962016">
   <path fill="#4D4D4D" fill-rule="nonzero" d="M25 26l16 0 0 83 -16 0 0 -83zm55 83l20 0 -37 -44 33 -39 -21 0 -32 39 37 44z"/>
   <path fill="#FF6600" fill-rule="nonzero" d="M197 109c-3,0 -6,0 -8,-2 -2,-1 -4,-3 -6,-6 -1,-2 -2,-5 -2,-8l0 -71 15 0 0 21 26 0 0 15 -26 0 0 35c0,0 0,1 0,1 1,0 1,0 1,0l25 0 0 15 -25 0zm50 0c-3,0 -6,0 -8,-2 -2,-1 -4,-3 -6,-6 -1,-2 -2,-5 -2,-8l0 -35c0,-2 1,-5 2,-7 2,-3 4,-5 6,-6 2,-2 5,-2 8,-2l36 0c3,0 6,0 8,2 2,1 4,3 6,5 1,3 2,6 2,8l0 35c0,3 -1,6 -2,8 -2,3 -4,5 -6,6 -2,2 -5,2 -8,2l-36 0 0 0zm1 -15l34 0c1,0 1,0 1,0 1,0 1,-1 1,-1l0 -34c0,0 0,-1 -1,-1 0,0 0,0 -1,0l-34 0c-1,0 -1,0 -1,0 -1,0 -1,1 -1,1l0 34c0,0 0,1 1,1 0,0 0,0 1,0zm79 15c-3,0 -6,0 -8,-2 -3,-1 -5,-3 -6,-6 -2,-2 -2,-5 -2,-8l0 -35c0,-2 0,-5 2,-7 1,-3 3,-5 6,-6 2,-2 5,-2 8,-2l51 0 0 15 -51 0c0,0 -1,0 -1,0 0,0 0,1 0,1l0 34c0,0 0,1 0,1 0,0 1,0 1,0l51 0 0 15 -52 0 1 0zm61 0l0 0 0 -88 15 0 0 47 12 0 24 -25 16 0 0 4 -27 29 27 29 0 4 -16 0 -24 -25 -12 0 0 25 -15 0zm-296 -15l10 0c0,0 0,0 1,0l15 0 34 0c0,0 1,0 1,0 0,-1 0,-1 0,-1l0 -16c0,-1 0,-1 0,-1 0,0 -1,0 -1,0l-50 0c-3,0 -6,-1 -8,-3 -2,-1 -4,-3 -6,-5 -1,-3 -2,-6 -2,-9l0 -16 14 -16c1,0 1,-1 2,-1l51 0c3,0 5,1 8,3 2,1 4,3 6,5 1,3 2,6 2,8l0 7 -16 0 0 -6c0,0 0,-1 0,-1 0,0 -1,0 -1,0l-49 0c-1,0 -1,0 -1,0 -1,0 -1,1 -1,1l0 16c0,0 0,1 1,1 0,0 0,0 1,0l50 0c3,0 5,1 8,2 2,2 4,4 6,6 1,3 2,5 2,8l0 17c0,3 -1,6 -2,8 -2,3 -4,5 -6,6 -3,2 -5,2 -8,2l-48 0 -13 -15z"/>
  </g>
 </g>
</svg>
