<?xml version="1.0" encoding="UTF-8"?>
<!DOCTYPE svg PUBLIC "-//W3C//DTD SVG 1.1//EN" "http://www.w3.org/Graphics/SVG/1.1/DTD/svg11.dtd">
<!-- Creator: CorelDRAW X7 -->
<svg xmlns="http://www.w3.org/2000/svg" xml:space="preserve" width="410px" height="130px" version="1.1" shape-rendering="geometricPrecision" text-rendering="geometricPrecision" image-rendering="optimizeQuality" fill-rule="evenodd" clip-rule="evenodd"
viewBox="0 0 410 130"
 xmlns:xlink="http://www.w3.org/1999/xlink">
 <g id="Layer_x0020_1">
  <metadata id="CorelCorpID_0Corel-Layer"/>
  <rect fill="none" width="410" height="130"/>
  <g id="_1708274468208">
   <polygon fill="#333333" fill-rule="nonzero" points="79,108 99,108 63,65 95,27 75,27 43,65 "/>
   <polygon fill="#333333" fill-rule="nonzero" points="26,27 41,27 41,108 26,108 "/>
   <path fill="#FF6600" d="M85 87l0 -44 14 -16 61 0 0 15 -60 0 0 18 48 0 0 15 -48 0 0 30 -15 -18zm96 21c-2,0 -5,0 -7,-2 -3,-1 -5,-3 -6,-5 -1,-3 -2,-5 -2,-8l0 -71 15 -1 0 71c0,1 0,1 0,1 0,1 1,1 1,1l13 0 0 14 -14 0 0 0zm38 0c-3,0 -6,0 -8,-2 -3,-1 -4,-3 -6,-5 -1,-3 -2,-5 -2,-8l0 -34c0,-3 1,-6 2,-8 2,-2 3,-4 6,-6 2,-1 5,-2 8,-2l35 0c3,0 5,1 8,2 2,2 4,3 5,6 2,2 2,5 2,8l0 34c0,3 0,5 -2,8 -1,2 -3,4 -5,5 -3,2 -5,2 -8,2l-36 0 1 0zm0 -14l34 0c1,0 1,0 1,-1 1,0 1,0 1,-1l0 -33c0,0 0,-1 -1,-1 0,0 0,0 -1,0l-34 0c0,0 -1,0 -1,0 0,0 0,1 0,1l0 33c0,1 0,1 0,1 0,1 1,1 1,1zm79 14l0 0 -26 -65 16 0 16 39 17 -39 15 0 18 39 15 -39 15 0 -24 65 -12 0 -19 -43 -19 43 -12 0z"/>
  </g>
 </g>
</svg>
