<?xml version="1.0" encoding="UTF-8"?>
<!DOCTYPE svg PUBLIC "-//W3C//DTD SVG 1.1//EN" "http://www.w3.org/Graphics/SVG/1.1/DTD/svg11.dtd">
<!-- Creator: CorelDRAW X7 -->
<svg xmlns="http://www.w3.org/2000/svg" xml:space="preserve" width="64px" height="64px" version="1.1" shape-rendering="geometricPrecision" text-rendering="geometricPrecision" image-rendering="optimizeQuality" fill-rule="evenodd" clip-rule="evenodd"
viewBox="0 0 64 64"
 xmlns:xlink="http://www.w3.org/1999/xlink">
 <g id="Layer_x0020_1">
  <metadata id="CorelCorpID_0Corel-Layer"/>
  <path fill="#333333" d="M60 64l-56 0c-2,0 -4,-2 -4,-4l0 -56c0,-2 2,-4 4,-4l56 0c2,0 4,2 4,4l0 56c0,2 -2,4 -4,4z"/>
  <path fill="#FF6600" d="M32 52l0 0 0 0 0 0 -1 0 0 0 0 0 0 0 0 0 0 0c-2,0 -4,0 -5,-1l0 6 12 0 0 -6c-1,1 -3,1 -5,1l0 0 0 0 0 0 0 0 0 0 0 0 0 0 -1 0 0 0 0 0 0 0zm-8 -1c-2,-1 -5,-3 -6,-5 -4,-3 -6,-8 -6,-14 0,-6 2,-11 6,-14 1,-2 4,-4 6,-5l0 -7c0,0 0,-1 1,-1l14 0c1,0 1,1 1,1l0 7c2,1 5,3 6,5 4,3 6,8 6,14 0,6 -2,11 -6,14 -1,2 -4,4 -6,5l0 7c0,0 0,1 -1,1l-14 0c-1,0 -1,-1 -1,-1l0 -7zm-5 -6c2,2 4,3 6,4l0 0c2,1 4,1 6,1 0,0 0,0 0,0l1 1c0,0 0,0 0,0 0,0 0,0 0,0l1 -1c0,0 0,0 0,0 5,0 9,-2 12,-5 3,-3 6,-8 6,-13 0,-5 -3,-10 -6,-13 -2,-2 -4,-3 -6,-4l0 0c-2,-1 -4,-1 -6,-1 0,0 0,0 0,-1l-1 0c0,0 0,0 0,0 0,0 0,0 0,0l-1 0c0,1 0,1 0,1 -5,0 -9,2 -12,5 -3,3 -6,8 -6,13 0,5 3,10 6,13zm7 -32c1,-1 3,-1 5,-1l0 0 0 0 0 0 0 0 0 0 1 0 0 0 0 0 0 0 0 0 0 0 0 0 1 0 0 0 0 0 0 0 0 0 0 0 0 0 0 0c2,0 4,0 5,1l0 -6 -12 0 0 6zm-6 8c-1,0 -1,-1 0,-1 0,-1 1,-1 1,0l3 3c1,0 1,1 0,1 0,1 -1,1 -1,0l-3 -3zm24 22c1,0 1,1 0,1 0,1 -1,1 -1,0l-3 -3c-1,0 -1,-1 0,-1 0,-1 1,-1 1,0l3 3zm-28 -10c-1,0 -1,0 -1,-1 0,-1 0,-1 1,-1l4 0c1,0 1,0 1,1 0,1 0,1 -1,1l-4 0zm32 -2c1,0 1,0 1,1 0,1 0,1 -1,1l-4 0c-1,0 -1,0 -1,-1 0,-1 0,-1 1,-1l4 0zm-27 13c0,1 -1,1 -1,0 -1,0 -1,-1 0,-1l3 -3c0,-1 1,-1 1,0 1,0 1,1 0,1l-3 3zm22 -24c0,-1 1,-1 1,0 1,0 1,1 0,1l-3 3c0,1 -1,1 -1,0 -1,0 -1,-1 0,-1l3 -3zm-12 -4c0,-1 0,-1 1,-1 1,0 1,0 1,1l0 4c0,1 0,1 -1,1 -1,0 -1,0 -1,-1l0 -4zm2 32c0,1 0,1 -1,1 -1,0 -1,0 -1,-1l0 -4c0,-1 0,-1 1,-1 1,0 1,0 1,1l0 4zm-2 -24c0,0 0,-1 1,-1 1,0 1,1 1,1l0 8c0,1 0,1 -1,1 -1,0 -1,0 -1,-1l0 -8z"/>
 </g>
</svg>
