<?xml version="1.0" encoding="UTF-8"?>
<!DOCTYPE svg PUBLIC "-//W3C//DTD SVG 1.1//EN" "http://www.w3.org/Graphics/SVG/1.1/DTD/svg11.dtd">
<!-- Creator: CorelDRAW X7 -->
<svg xmlns="http://www.w3.org/2000/svg" xml:space="preserve" width="585px" height="130px" version="1.1" shape-rendering="geometricPrecision" text-rendering="geometricPrecision" image-rendering="optimizeQuality" fill-rule="evenodd" clip-rule="evenodd"
viewBox="0 0 585 130"
 xmlns:xlink="http://www.w3.org/1999/xlink">
 <g id="Layer_x0020_1">
  <metadata id="CorelCorpID_0Corel-Layer"/>
  <rect fill="none" width="585" height="130"/>
  <g id="_1708274472176">
   <polygon fill="#FF6600" fill-rule="nonzero" points="278,106 278,29 348,29 348,44 292,43 292,61 337,61 337,75 292,75 292,106 "/>
   <path id="1" fill="#FF6600" fill-rule="nonzero" d="M369 106c-3,0 -5,-1 -8,-2 -2,-1 -4,-3 -5,-5 -1,-3 -2,-5 -2,-8l0 -67 14 0 0 67c0,0 0,0 0,1 1,0 1,0 1,0l12 0 0 14 -12 0 0 0z"/>
   <path id="2" fill="#FF6600" fill-rule="nonzero" d="M404 106c-3,0 -5,-1 -8,-2 -2,-1 -4,-3 -5,-5 -1,-3 -2,-5 -2,-8l0 -32c0,-3 1,-5 2,-7 1,-3 3,-4 5,-6 3,-1 5,-2 8,-2l33 0c3,0 5,1 8,2 2,2 3,3 5,6 1,2 2,4 2,7l0 32c0,3 -1,5 -2,8 -2,2 -3,4 -5,5 -3,1 -5,2 -8,2l-33 0 0 0zm0 -14l33 0c0,0 0,0 0,0 1,-1 1,-1 1,-1l0 -31c0,-1 0,-1 -1,-1 0,-1 0,-1 0,-1l-33 0c0,0 0,0 -1,1 0,0 0,0 0,1l0 31c0,0 0,0 0,1 1,0 1,0 1,0z"/>
   <polygon id="3" fill="#FF6600" fill-rule="nonzero" points="479,106 479,106 455,44 469,44 484,81 500,44 515,44 531,81 545,44 560,44 537,106 526,106 507,65 490,106 "/>
   <path fill="#333333" fill-rule="nonzero" d="M115 70l35 0 0 -10c0,-1 0,-1 0,-1 -1,-1 -1,-1 -1,-1l-32 0c-1,0 -1,0 -1,1 -1,0 -1,0 -1,1l0 10zm108 -26l0 -5c0,-3 1,-5 2,-8 2,-2 3,-4 6,-5 2,-1 4,-2 7,-2l23 0 0 14 -23 0c0,0 0,0 0,0 -1,1 -1,1 -1,1l0 5 24 0 0 14 -24 0 0 48 -14 0 0 0 0 -48 -33 0c-1,0 -1,0 -1,1 -1,0 -1,0 -1,1l0 38 0 8 0 0 -72 0 0 0c-3,0 -5,-1 -7,-2 -2,-1 -4,-3 -6,-5 -1,-3 -2,-5 -2,-8l0 -32c0,-3 1,-5 2,-7 2,-3 4,-4 6,-6 2,-1 4,-2 7,-2l33 0c3,0 6,1 8,2 2,2 4,3 5,6 1,2 2,4 2,7l0 23 -49 0 0 9c0,0 0,0 1,1 0,0 0,0 1,0l57 0 0 -33c0,-3 1,-5 2,-7 2,-3 4,-4 6,-6 2,-1 4,-2 7,-2l34 0zm-198 -15l14 0 0 77 -14 0 0 -77zm50 77l19 0 -34 -41 30 -36 -19 0 -30 36 34 41z"/>
  </g>
 </g>
</svg>
