<?xml version="1.0" encoding="UTF-8"?>
<!DOCTYPE svg PUBLIC "-//W3C//DTD SVG 1.1//EN" "http://www.w3.org/Graphics/SVG/1.1/DTD/svg11.dtd">
<!-- Creator: CorelDRAW X7 -->
<svg xmlns="http://www.w3.org/2000/svg" xml:space="preserve" width="64px" height="64px" version="1.1" shape-rendering="geometricPrecision" text-rendering="geometricPrecision" image-rendering="optimizeQuality" fill-rule="evenodd" clip-rule="evenodd"
viewBox="0 0 64 64"
 xmlns:xlink="http://www.w3.org/1999/xlink">
 <g id="Layer_x0020_1">
  <metadata id="CorelCorpID_0Corel-Layer"/>
  <path fill="#333333" d="M60 64l-56 0c-2,0 -4,-2 -4,-4l0 -56c0,-2 2,-4 4,-4l56 0c2,0 4,2 4,4l0 56c0,2 -2,4 -4,4z"/>
  <path fill="#FF6600" d="M20 24l0 7c0,0 1,1 1,1 2,1 3,3 3,6 0,1 -1,3 -2,4l8 7c1,-1 1,-1 1,-2 1,-1 3,-2 5,-2 1,0 2,1 3,1l6 -10c-1,-1 -2,-1 -2,-2 -2,-1 -3,-3 -3,-6 0,-2 1,-4 3,-5 0,-1 1,-1 1,-2l-1 -3c-1,0 -2,1 -3,1 -2,0 -3,-1 -4,-2l0 0c-2,-2 -2,-3 -2,-5 0,-2 0,-4 2,-5 1,-1 2,-2 4,-2 2,0 4,1 5,2l0 0c1,1 2,3 2,5 0,2 -1,3 -2,5l0 0c0,0 -1,0 -1,0l2 4c1,-1 2,-1 3,-1 2,0 4,1 5,3 2,1 3,3 3,5 0,3 -1,5 -3,6 -1,2 -3,2 -5,2 -1,0 -2,0 -3,0l-6 11c0,0 1,0 1,0l0 0c1,2 2,3 2,5 0,2 -1,4 -2,5l0 0c-2,1 -3,2 -5,2 -2,0 -4,-1 -5,-2l0 0c-1,-1 -2,-3 -2,-5 0,-1 0,-1 1,-2l-9 -6c-2,1 -4,2 -6,2 -2,0 -4,-1 -5,-3 -2,-1 -3,-3 -3,-5 0,-3 1,-5 3,-6 1,-2 3,-2 5,-2 1,0 2,0 3,0l0 -6c-1,0 -2,-1 -3,-1l0 0c-1,-1 -1,-3 -1,-4 0,-2 0,-3 1,-4 1,-1 2,-2 4,-2 1,0 3,1 4,2l0 0c1,1 1,2 1,4 0,1 0,3 -1,3l0 1c-1,0 -2,1 -3,1zm-4 -3c1,1 2,1 3,1 1,0 2,0 2,-1 1,0 1,-1 1,-2 0,-1 0,-2 -1,-3l0 0c0,0 -1,-1 -2,-1 -1,0 -2,1 -3,1 0,1 -1,2 -1,3 0,1 1,2 1,2l0 0zm17 34l0 0c0,1 2,2 3,2 1,0 2,-1 3,-2 1,0 2,-2 2,-3 0,-1 -1,-2 -2,-3l0 0c-1,-1 -2,-2 -3,-2 -1,0 -3,1 -3,2 -1,1 -2,2 -2,3 0,1 1,3 2,3zm-22 -13c1,1 3,2 4,2 2,0 4,-1 5,-2 1,-1 2,-3 2,-4 0,-2 -1,-4 -2,-5 -1,-1 -3,-2 -5,-2 -1,0 -3,1 -4,2 -1,1 -2,3 -2,5 0,1 1,3 2,4zm33 -9c1,1 3,2 5,2 1,0 3,-1 4,-2 1,-1 2,-3 2,-5 0,-1 -1,-3 -2,-4 -1,-1 -3,-2 -4,-2 -2,0 -4,1 -5,2 -1,1 -2,3 -2,4 0,2 1,4 2,5zm-7 -18l0 0c1,1 2,2 3,2 1,0 3,-1 4,-2 0,-1 1,-2 1,-3 0,-1 -1,-3 -1,-3l0 0c-1,-1 -3,-2 -4,-2 -1,0 -2,1 -3,2 -1,0 -2,2 -2,3 0,1 1,2 2,3z"/>
 </g>
</svg>
