<?xml version="1.0" encoding="UTF-8"?>
<!DOCTYPE svg PUBLIC "-//W3C//DTD SVG 1.1//EN" "http://www.w3.org/Graphics/SVG/1.1/DTD/svg11.dtd">
<!-- Creator: CorelDRAW X7 -->
<svg xmlns="http://www.w3.org/2000/svg" xml:space="preserve" width="305px" height="130px" version="1.1" shape-rendering="geometricPrecision" text-rendering="geometricPrecision" image-rendering="optimizeQuality" fill-rule="evenodd" clip-rule="evenodd"
viewBox="0 0 305 130"
 xmlns:xlink="http://www.w3.org/1999/xlink">
 <g id="Layer_x0020_1">
  <metadata id="CorelCorpID_0Corel-Layer"/>
  <rect fill="none" width="305" height="130"/>
  <g id="_1708433471808">
   <polygon fill="#333333" fill-rule="nonzero" points="78,109 98,109 61,65 93,27 73,27 41,65 "/>
   <polygon fill="#333333" fill-rule="nonzero" points="24,27 39,27 39,109 24,109 "/>
   <path fill="#FF6600" fill-rule="nonzero" d="M83 86l0 -41 14 -18 2 0 30 35 29 -35 16 0 0 82 -15 0 0 -60 -30 37 -31 -37 0 55 -15 -18zm104 23l0 0 0 -66 15 0 0 66 -15 0zm0 -73l0 0 0 -14 15 0 0 15 -15 -1zm43 73c-3,0 -5,-1 -8,-3 -2,-1 -4,-3 -5,-5 -2,-3 -3,-5 -3,-8l0 -71 15 0 0 70c0,1 0,1 1,1 0,1 0,1 1,1l12 0 0 15 -13 0 0 0zm38 0c-3,0 -6,-1 -8,-3 -3,-1 -4,-3 -6,-5 -1,-3 -2,-5 -2,-8l0 -71 15 0 0 70c0,1 0,1 0,1 0,1 1,1 1,1l13 0 0 15 -14 0 1 0z"/>
  </g>
 </g>
</svg>
