<?xml version="1.0" encoding="UTF-8"?>
<!DOCTYPE svg PUBLIC "-//W3C//DTD SVG 1.1//EN" "http://www.w3.org/Graphics/SVG/1.1/DTD/svg11.dtd">
<!-- Creator: CorelDRAW X7 -->
<svg xmlns="http://www.w3.org/2000/svg" xml:space="preserve" width="490px" height="130px" version="1.1" shape-rendering="geometricPrecision" text-rendering="geometricPrecision" image-rendering="optimizeQuality" fill-rule="evenodd" clip-rule="evenodd"
viewBox="0 0 490 130"
 xmlns:xlink="http://www.w3.org/1999/xlink">
 <g id="Layer_x0020_1">
  <metadata id="CorelCorpID_0Corel-Layer"/>
  <rect fill="none" width="490" height="130"/>
  <g id="_1708437547968">
   <path fill="#333333" fill-rule="nonzero" d="M116 70l35 0 0 -10c0,-1 -1,-1 -1,-1 0,-1 0,-1 -1,-1l-32 0c0,0 -1,0 -1,1 0,0 0,0 0,1l0 10zm108 -26l0 -5c0,-3 0,-5 2,-8 1,-2 3,-4 5,-5 2,-1 5,-2 7,-2l24 0 0 14 -23 0c0,0 -1,0 -1,0 0,1 0,1 0,1l0 5 24 0 0 14 -24 0 0 48 -14 0 0 0 0 -48 -34 0c0,0 -1,0 -1,1 0,0 0,0 0,1l0 38 0 8 0 0 -73 0 0 0c-2,0 -5,-1 -7,-2 -2,-1 -4,-3 -5,-5 -2,-3 -2,-5 -2,-8l0 -32c0,-3 0,-5 2,-7 1,-3 3,-4 5,-6 2,-1 5,-2 7,-2l34 0c3,0 5,1 7,2 2,2 4,3 5,6 2,2 2,4 2,7l0 23 -48 0 0 9c0,0 0,0 0,1 0,0 1,0 1,0l58 0 0 -33c0,-3 1,-5 2,-7 1,-3 3,-4 5,-6 2,-1 5,-2 8,-2l34 0zm-199 -15l14 0 0 77 -14 0 0 -77zm51 77l19 0 -35 -41 30 -36 -18 0 -31 36 35 41z"/>
   <polygon fill="#FF6600" fill-rule="nonzero" points="278,106 278,29 293,29 321,63 349,29 364,29 364,106 350,106 350,50 321,84 292,50 292,106 "/>
   <path id="1" fill="#FF6600" fill-rule="nonzero" d="M376 106l0 0 0 -62 14 0 0 62 -14 0zm0 -68l0 0 0 -14 14 0 0 14 -14 0z"/>
   <path id="2" fill="#FF6600" fill-rule="nonzero" d="M417 106c-3,0 -5,-1 -7,-2 -3,-1 -4,-3 -6,-5 -1,-3 -2,-5 -2,-8l0 -67 14 0 0 67c0,0 0,0 0,1 1,0 1,0 1,0l12 0 0 14 -12 0 0 0z"/>
   <path id="3" fill="#FF6600" fill-rule="nonzero" d="M452 106c-2,0 -5,-1 -7,-2 -2,-1 -4,-3 -5,-5 -2,-3 -2,-5 -2,-8l0 -67 14 0 0 67c0,0 0,0 0,1 0,0 0,0 1,0l12 0 0 14 -13 0 0 0z"/>
  </g>
 </g>
</svg>
