<?xml version="1.0" encoding="UTF-8"?>
<!DOCTYPE svg PUBLIC "-//W3C//DTD SVG 1.1//EN" "http://www.w3.org/Graphics/SVG/1.1/DTD/svg11.dtd">
<!-- Creator: CorelDRAW X7 -->
<svg xmlns="http://www.w3.org/2000/svg" xml:space="preserve" width="64px" height="64px" version="1.1" shape-rendering="geometricPrecision" text-rendering="geometricPrecision" image-rendering="optimizeQuality" fill-rule="evenodd" clip-rule="evenodd"
viewBox="0 0 64 64"
 xmlns:xlink="http://www.w3.org/1999/xlink">
 <g id="Layer_x0020_1">
  <metadata id="CorelCorpID_0Corel-Layer"/>
  <g id="_1708136016784">
   <rect fill="#333333" width="64.0012" height="64.0012"/>
   <g>
    <path fill="#FF6600" d="M32 41l18 0c0,1 0,0 0,0 0,0 0,0 0,0l0 -18c0,0 0,0 0,0 0,0 0,-1 0,0l-18 0c0,-1 0,0 0,0 -1,0 -1,0 -1,0l0 18c0,0 0,0 1,0 0,0 0,1 0,0zm-6 -3l0 -14 6 -7 0 0 18 0c1,0 2,0 3,1 1,0 2,1 2,2 1,1 1,2 1,3l0 18 0 0 0 0 0 1 4 -1 0 6 -10 0 0 0 0 0 -17 0 -7 -9z"/>
    <path fill="#999999" d="M24 47l8 0 -14 -16 12 -14 -7 0 -12 14 13 16zm-20 -30l6 0 0 30 -6 0 0 -30z"/>
   </g>
  </g>
 </g>
</svg>
