<?xml version="1.0" encoding="UTF-8"?>
<!DOCTYPE svg PUBLIC "-//W3C//DTD SVG 1.1//EN" "http://www.w3.org/Graphics/SVG/1.1/DTD/svg11.dtd">
<!-- Creator: CorelDRAW X7 -->
<svg xmlns="http://www.w3.org/2000/svg" xml:space="preserve" width="485px" height="130px" version="1.1" shape-rendering="geometricPrecision" text-rendering="geometricPrecision" image-rendering="optimizeQuality" fill-rule="evenodd" clip-rule="evenodd"
viewBox="0 0 485 130"
 xmlns:xlink="http://www.w3.org/1999/xlink">
 <g id="Layer_x0020_1">
  <metadata id="CorelCorpID_0Corel-Layer"/>
  <rect fill="none" width="485" height="130"/>
  <g id="_1708210733440">
   <path fill="#FF6600" fill-rule="nonzero" d="M150 109l0 -13 17 -4 0 1 10 0 0 16 -27 0zm-66 -25l0 -39 16 -19 0 0 51 0c3,0 5,1 8,2 2,1 4,3 6,6 1,2 2,5 2,8l0 51c0,3 -1,5 -2,8 -2,2 -4,4 -6,5 -3,2 -5,3 -8,3l-47 0 -20 -25zm17 9l49 0c1,0 1,0 1,0 0,0 1,-1 1,-1l0 -50c0,0 -1,0 -1,-1 0,0 0,0 -1,0l-49 0c-1,0 -1,0 -1,0 -1,1 -1,1 -1,1l0 50c0,0 0,1 1,1 0,0 0,0 1,0zm100 16c-3,0 -5,-1 -8,-3 -2,-1 -4,-3 -5,-5 -2,-3 -2,-5 -2,-8l0 -51 15 0 0 50c0,1 0,1 0,1 0,0 1,1 1,1l35 0c0,0 1,-1 1,-1 0,0 0,0 0,-1l0 -50 15 0 0 51c0,3 0,5 -2,8 -1,2 -3,4 -5,5 -3,2 -6,3 -9,3l-36 0 0 0zm79 0c-3,0 -5,-1 -8,-3 -2,-1 -4,-3 -5,-5 -2,-3 -3,-5 -3,-8l0 -35c0,-3 1,-6 3,-8 1,-3 3,-4 5,-6 3,-1 5,-2 8,-2l36 0c3,0 6,1 8,2 3,1 5,3 6,6 2,2 2,5 2,8l0 35c0,3 0,5 -2,8 -1,2 -3,4 -6,5 -2,2 -5,3 -8,3l-36 0 0 0zm1 -15l35 0c0,0 0,-1 1,-1 0,0 0,0 0,-1l0 -34c0,0 0,0 0,-1 -1,0 -1,0 -1,0l-35 0c0,0 -1,0 -1,0 0,1 -1,1 0,1l0 34c-1,1 0,1 0,1 0,0 1,1 1,1zm77 15c-3,0 -6,-1 -8,-3 -2,-1 -4,-3 -6,-5 -1,-3 -2,-5 -2,-8l0 -72 15 0 0 21 26 0 0 15 -26 0 0 35c0,1 0,1 1,1 0,0 0,1 1,1l24 0 0 15 -25 0zm50 0c-3,0 -5,-1 -8,-3 -2,-1 -4,-3 -6,-5 -1,-3 -2,-5 -2,-8l0 -35c0,-3 1,-6 2,-8 2,-3 4,-4 6,-6 3,-1 5,-2 8,-2l36 0c3,0 6,1 8,2 3,1 4,3 6,6 1,2 2,5 2,8l0 25 -53 0 0 9c0,1 0,1 1,1 0,0 0,1 1,1l51 0 0 15 -52 0 0 0zm-1 -40l38 0 0 -11c0,0 0,0 0,-1 -1,0 -1,0 -1,0l-35 0c-1,0 -1,0 -1,0 -1,1 -1,1 -1,1l0 11z"/>
   <path fill="#4D4D4D" fill-rule="nonzero" d="M25 26l15 0 0 83 -15 0 0 -83zm54 83l21 0 -37 -44 32 -39 -20 0 -33 39 37 44z"/>
  </g>
 </g>
</svg>
