<?xml version="1.0" encoding="UTF-8"?>
<!DOCTYPE svg PUBLIC "-//W3C//DTD SVG 1.1//EN" "http://www.w3.org/Graphics/SVG/1.1/DTD/svg11.dtd">
<!-- Creator: CorelDRAW X7 -->
<svg xmlns="http://www.w3.org/2000/svg" xml:space="preserve" width="64px" height="64px" version="1.1" shape-rendering="geometricPrecision" text-rendering="geometricPrecision" image-rendering="optimizeQuality" fill-rule="evenodd" clip-rule="evenodd"
viewBox="0 0 64 64"
 xmlns:xlink="http://www.w3.org/1999/xlink">
 <g id="Layer_x0020_1">
  <metadata id="CorelCorpID_0Corel-Layer"/>
  <g id="_1708202318704">
   <path fill="#333333" d="M60 64l-56 0c-2,0 -4,-2 -4,-4l0 -56c0,-2 2,-4 4,-4l56 0c2,0 4,2 4,4l0 56c0,2 -2,4 -4,4z"/>
   <path fill="#FF6600" d="M48 25l0 0 2 0c0,0 0,0 0,0 0,0 0,0 0,0l0 -2c0,0 0,0 0,0 0,0 0,0 0,0l-2 0 0 2zm-4 -4l1 0 0 -2 -1 0c0,0 0,0 0,0 0,0 0,0 0,0l0 2c0,0 0,0 0,0 0,0 0,0 0,0zm2 8l0 0 0 -1 -3 0c0,0 0,0 -1,-1 0,0 0,0 -1,0 0,-1 0,-1 0,-2l0 -1 3 0 0 1c0,0 0,0 0,0 0,0 0,0 0,0l1 0 0 -2 -2 0c0,0 0,0 -1,0 0,0 0,0 -1,-1 0,0 0,-1 0,-1l0 -2c0,-1 0,-1 0,-1 1,-1 1,-1 1,-1 1,-1 1,-1 1,-1l3 0 0 -1 2 0 0 1 2 0c0,0 1,0 1,1 1,0 1,0 1,1 0,0 0,0 0,1l0 1 -2 0 0 -1c0,0 0,0 0,0 0,0 0,0 0,0l-2 0 0 2 2 0c0,0 1,0 1,0 1,0 1,1 1,1 0,0 0,1 0,1l0 2c0,1 0,1 0,2 0,0 0,0 -1,0 0,1 -1,1 -1,1l-2 0 0 1 -2 0zm-13 -4l0 0 2 0c0,0 0,0 0,0 0,0 0,0 0,0l0 -2c0,0 0,0 0,0 0,0 0,0 0,0l-2 0 0 2zm-4 -4l2 0 0 -2 -2 0c0,0 0,0 0,0 0,0 0,0 0,0l0 2c0,0 0,0 0,0 0,0 0,0 0,0zm2 8l0 0 0 -1 -2 0c-1,0 -1,0 -1,-1 -1,0 -1,0 -1,0 0,-1 -1,-1 -1,-2l0 -1 3 0 0 1c0,0 0,0 0,0 0,0 0,0 0,0l2 0 0 -2 -2 0c-1,0 -1,0 -1,0 -1,0 -1,0 -1,-1 0,0 -1,-1 -1,-1l0 -2c0,-1 1,-1 1,-1 0,-1 0,-1 1,-1 0,-1 0,-1 1,-1l2 0 0 -1 2 0 0 1 2 0c1,0 1,0 1,1 1,0 1,0 1,1 0,0 1,0 1,1l0 1 -3 0 0 -1c0,0 0,0 0,0 0,0 0,0 0,0l-2 0 0 2 2 0c1,0 1,0 1,0 1,0 1,1 1,1 0,0 1,1 1,1l0 2c0,1 -1,1 -1,2 0,0 0,0 -1,0 0,1 0,1 -1,1l-2 0 0 1 -2 0zm-12 -4l0 0 1 0c0,0 0,0 0,0 0,0 0,0 0,0l0 -2c0,0 0,0 0,0 0,0 0,0 0,0l-1 0 0 2zm-5 -4l2 0 0 -2 -2 0c0,0 0,0 0,0 0,0 0,0 0,0l0 2c0,0 0,0 0,0 0,0 0,0 0,0zm2 8l0 0 0 -1 -2 0c0,0 -1,0 -1,-1 -1,0 -1,0 -1,0 0,-1 0,-1 0,-2l0 -1 2 0 0 1c0,0 0,0 0,0 0,0 0,0 0,0l2 0 0 -2 -2 0c0,0 -1,0 -1,0 -1,0 -1,0 -1,-1 0,0 0,-1 0,-1l0 -2c0,-1 0,-1 0,-1 0,-1 0,-1 1,-1 0,-1 1,-1 1,-1l2 0 0 -1 3 0 0 1 2 0c0,0 0,0 1,1 0,0 0,0 1,1 0,0 0,0 0,1l0 1 -3 0 0 -1c0,0 0,0 0,0 0,0 0,0 0,0l-1 0 0 2 2 0c0,0 0,0 1,0 0,0 0,1 1,1 0,0 0,1 0,1l0 2c0,1 0,1 0,2 -1,0 -1,0 -1,0 -1,1 -1,1 -1,1l-2 0 0 1 -3 0zm38 -20l-44 0c-1,0 -2,0 -2,1l0 0c-1,0 -1,1 -1,2l0 25 50 0 0 -25c0,-1 0,-2 -1,-2l0 0c0,-1 -1,-1 -2,-1zm-18 43l-1 0 -6 0 0 0 -7 0c-1,0 -2,1 -3,1 0,1 -1,2 -1,2l29 0c-1,0 -1,-1 -2,-2 0,0 -1,-1 -2,-1l-7 0zm0 -5l0 4 7 0c1,0 3,1 3,1l0 0c1,1 2,3 2,4l0 1 -1 0 -30 0 0 0 0 -1c0,-1 0,-3 1,-4l0 0c1,0 2,-1 4,-1l7 0 0 -4 -19 0c-1,0 -2,0 -3,-1l0 0 0 0c-1,-1 -2,-2 -2,-3l0 -31c0,-1 1,-2 2,-3l0 0 0 0c1,-1 2,-2 3,-2l44 0c1,0 2,1 3,2l0 0 0 0c1,1 2,2 2,3l0 31c0,1 -1,2 -2,3l0 0 0 0c-1,1 -2,1 -3,1l-18 0zm-2 0l-4 0 0 4 4 0 0 -4zm-5 -1l6 0 1 0 18 0c1,0 2,0 2,-1l0 0c1,-1 1,-1 1,-2l0 -4 -50 0 0 4c0,1 0,1 1,2l0 0c0,1 1,1 2,1l19 0 0 0zm2 -5l2 0c0,0 1,0 1,0l0 0c0,0 0,1 0,1 0,0 0,0 0,1l0 0c0,0 -1,0 -1,0l-2 0c0,0 -1,0 -1,0l0 0c0,-1 0,-1 0,-1 0,0 0,-1 0,-1l0 0c0,0 1,0 1,0z"/>
  </g>
 </g>
</svg>
