<?xml version="1.0" encoding="UTF-8"?>
<!DOCTYPE svg PUBLIC "-//W3C//DTD SVG 1.1//EN" "http://www.w3.org/Graphics/SVG/1.1/DTD/svg11.dtd">
<!-- Creator: CorelDRAW X7 -->
<svg xmlns="http://www.w3.org/2000/svg" xml:space="preserve" width="64px" height="64px" version="1.1" shape-rendering="geometricPrecision" text-rendering="geometricPrecision" image-rendering="optimizeQuality" fill-rule="evenodd" clip-rule="evenodd"
viewBox="0 0 64 64"
 xmlns:xlink="http://www.w3.org/1999/xlink">
 <g id="Layer_x0020_1">
  <metadata id="CorelCorpID_0Corel-Layer"/>
  <path fill="#333333" d="M60 64l-56 0c-2,0 -4,-2 -4,-4l0 -56c0,-2 2,-4 4,-4l56 0c2,0 4,2 4,4l0 56c0,2 -2,4 -4,4z"/>
  <path fill="#FF6600" fill-rule="nonzero" d="M4 40l56 0c1,0 1,0 1,1l0 17c0,0 0,1 -1,1l-56 0c-1,0 -1,-1 -1,-1l0 -17c0,-1 0,-1 1,-1zm56 1l-56 0 0 16 56 0 0 -16zm-45 14c-1,0 -2,-1 -3,-2 -1,-1 -2,-2 -2,-4 0,-1 1,-3 2,-3 1,-1 2,-2 3,-2 2,0 3,1 4,2 1,0 2,2 2,3 0,2 -1,3 -2,4 -1,1 -2,2 -4,2zm-2 -3c0,1 1,1 2,1 2,0 2,0 3,-1 1,-1 1,-2 1,-3 0,-1 0,-2 -1,-2 -1,-1 -1,-2 -3,-2 -1,0 -2,1 -2,2 -1,0 -1,1 -1,2 0,1 0,2 1,3zm18 -5c-1,0 -1,0 -1,0 0,-1 0,-1 1,-1l23 0c1,0 1,0 1,1 0,0 0,0 -1,0l-23 0zm0 6c-1,0 -1,-1 -1,-1 0,0 0,-1 1,-1l23 0c1,0 1,1 1,1 0,0 0,1 -1,1l-23 0zm-22 -48l46 0c0,0 1,1 1,1l0 29c0,1 -1,1 -1,1l-46 0c-1,0 -1,0 -1,-1l0 -29c0,0 0,-1 1,-1zm45 2l-45 0 0 28 45 0 0 -28zm-7 9c-1,0 -1,0 -2,-1 0,0 -1,-1 -1,-1l-5 1 0 0c0,2 -1,3 -2,4l0 0 0 0 0 0c0,0 -1,1 -2,1l0 4c1,0 1,1 1,1l0 0c1,1 1,2 1,3 0,1 0,1 -1,2l0 0c0,1 -1,1 -2,1 -1,0 -2,0 -3,-1l0 0c0,-1 -1,-1 -1,-2l0 0 -4 -2c0,0 0,0 0,0 -1,1 -2,2 -3,2 -1,0 -3,-1 -3,-2 -1,-1 -2,-2 -2,-3 0,-1 1,-2 2,-3l-3 -4c0,0 -1,1 -1,1 -1,0 -2,-1 -3,-2 0,0 -1,-1 -1,-2 0,-1 1,-2 1,-2 1,-1 2,-2 3,-2 1,0 2,1 2,2 1,0 1,1 1,2 0,1 0,2 -1,2 0,1 0,1 0,1l3 3c0,0 1,0 2,0 1,0 2,0 3,1 1,1 1,2 1,3 0,1 0,1 0,1l4 2c0,0 0,-1 0,-1 1,-1 2,-1 3,-1l0 -4 0 0c-1,0 -3,0 -3,-1 -1,-1 -2,-2 -2,-4 0,-1 1,-2 2,-3l0 0c0,-1 2,-1 3,-1 1,0 2,0 3,1 1,1 1,1 1,2l6 -2c0,-1 0,-2 1,-2 1,-1 1,-1 2,-1 1,0 2,0 3,1 1,0 1,1 1,2 0,1 0,2 -1,3 -1,1 -2,1 -3,1zm-1 -2c0,0 1,1 1,1 1,0 2,-1 2,-1 0,-1 1,-1 1,-2 0,0 -1,-1 -1,-1 0,-1 -1,-1 -2,-1 0,0 -1,0 -1,1 0,0 -1,1 -1,1 0,1 1,1 1,2zm-14 4c0,0 1,1 2,1 1,0 2,-1 2,-1l0 0c1,-1 1,-2 1,-3 0,0 0,-1 -1,-2 0,0 -1,-1 -2,-1 -1,0 -2,1 -2,1 -1,1 -1,2 -1,2 0,1 0,2 1,3zm0 11c1,0 1,1 2,1 0,0 1,-1 1,-1l0 0c1,0 1,-1 1,-1 0,-1 0,-1 -1,-2l0 0c0,0 -1,-1 -1,-1 -1,0 -1,1 -2,1 0,0 0,1 0,2 0,0 0,1 0,1l0 0 0 0zm-11 -4c0,1 1,1 2,1 1,0 1,0 2,-1 0,0 1,-1 1,-2 0,-1 -1,-1 -1,-2 -1,-1 -1,-1 -2,-1 -1,0 -2,0 -2,1 -1,1 -1,1 -1,2 0,1 0,2 1,2zm-7 -11c1,1 1,1 2,1 0,0 1,0 1,-1 1,0 1,0 1,-1 0,-1 0,-1 -1,-1 0,-1 -1,-1 -1,-1 -1,0 -1,0 -2,1 0,0 0,0 0,1 0,1 0,1 0,1z"/>
 </g>
</svg>
