<?xml version="1.0" encoding="UTF-8"?>
<!DOCTYPE svg PUBLIC "-//W3C//DTD SVG 1.1//EN" "http://www.w3.org/Graphics/SVG/1.1/DTD/svg11.dtd">
<!-- Creator: CorelDRAW X7 -->
<svg xmlns="http://www.w3.org/2000/svg" xml:space="preserve" width="370px" height="130px" version="1.1" shape-rendering="geometricPrecision" text-rendering="geometricPrecision" image-rendering="optimizeQuality" fill-rule="evenodd" clip-rule="evenodd"
viewBox="0 0 370 130"
 xmlns:xlink="http://www.w3.org/1999/xlink">
 <g id="Layer_x0020_1">
  <metadata id="CorelCorpID_0Corel-Layer"/>
  <rect fill="none" width="370" height="130"/>
  <g id="_1708463073632">
   <polygon fill="#333333" fill-rule="nonzero" points="83,108 105,108 66,62 100,21 79,21 45,62 "/>
   <polygon fill="#333333" fill-rule="nonzero" points="26,21 42,21 42,108 26,108 "/>
   <path fill="#FF6600" fill-rule="nonzero" d="M158 108l-26 -31 21 0 23 27 0 4 -18 0zm-69 -24l0 -44 15 -18 55 0c3,0 6,0 9,2 2,1 4,3 6,6 1,3 2,5 2,8l0 24c0,3 -1,6 -2,8 -2,3 -4,5 -6,6 -3,2 -6,3 -9,3l-54 0 0 24 -16 -19zm17 -21l52 0c1,0 1,0 1,-1 1,0 1,0 1,-1l0 -22c0,0 0,-1 -1,-1 0,0 0,0 -1,0l-52 0c0,0 0,0 -1,0 0,0 0,1 0,1l0 22c0,1 0,1 0,1 1,1 1,1 1,1zm99 45c-3,0 -6,0 -9,-2 -2,-1 -4,-3 -6,-6 -1,-2 -2,-5 -2,-8l0 -54 16 0 0 53c0,1 0,1 0,1 1,1 1,1 2,1l36 0c1,0 1,0 1,-1 0,0 1,0 1,-1l0 -53 15 0 0 54c0,3 0,6 -2,8 -1,3 -3,5 -6,6 -2,2 -5,2 -8,2l-38 0 0 0zm68 0l0 0 0 -70 54 0c3,0 6,1 9,3 2,1 4,3 6,6 1,2 2,5 2,8l0 53 -16 0 0 -52c0,-1 0,-1 0,-1 -1,-1 -1,-1 -2,-1l-36 0c-1,0 -1,0 -1,1 -1,0 -1,0 -1,1l0 52 -15 0z"/>
  </g>
 </g>
</svg>
