<?xml version="1.0" encoding="UTF-8"?>
<!DOCTYPE svg PUBLIC "-//W3C//DTD SVG 1.1//EN" "http://www.w3.org/Graphics/SVG/1.1/DTD/svg11.dtd">
<!-- Creator: CorelDRAW X7 -->
<svg xmlns="http://www.w3.org/2000/svg" xml:space="preserve" width="1920px" height="1000px" version="1.1" shape-rendering="geometricPrecision" text-rendering="geometricPrecision" image-rendering="optimizeQuality" fill-rule="evenodd" clip-rule="evenodd"
viewBox="0 0 1920 1000"
 xmlns:xlink="http://www.w3.org/1999/xlink">
 <g id="Layer_x0020_1">
  <metadata id="CorelCorpID_0Corel-Layer"/>
  <g id="powered_by_synontech">
   <g>
    <path fill="#FF6600" fill-rule="nonzero" d="M151 953l0 -18 2 0 0 7c0,-1 1,-1 2,-2 0,0 1,0 2,0 2,0 3,0 4,1 0,0 1,2 1,3l0 9 -2 0 0 -8c0,-2 0,-2 -1,-3 0,0 -1,-1 -2,-1 -1,0 -2,1 -3,1 -1,1 -1,2 -1,3l0 8 -2 0zm-49 0l0 -13 2 0 0 2c0,-1 0,-1 1,-2 1,0 2,0 3,0 2,0 3,0 3,1 1,0 1,2 1,3l0 9 -2 0 0 -8c0,-2 0,-2 0,-3 -1,0 -1,-1 -2,-1 -2,0 -3,1 -3,1 -1,1 -1,2 -1,3l0 8 -2 0zm-26 0l0 -13 2 0 0 2c0,-1 1,-1 1,-2 1,0 2,0 3,0 2,0 3,0 4,1 0,0 1,2 1,3l0 9 -2 0 0 -8c0,-2 0,-2 -1,-3 0,0 -1,-1 -2,-1 -1,0 -2,1 -3,1 -1,1 -1,2 -1,3l0 8 -2 0zm-26 -4l2 0 0 0c0,1 1,2 1,2 1,0 2,0 3,0 2,0 3,0 3,0 0,0 1,-1 1,-2 0,-1 -1,-1 -1,-2 0,0 -1,0 -2,0 -1,0 -1,0 -2,0 -2,0 -3,0 -3,-1 -1,0 -1,0 -1,-1 0,0 0,-1 0,-2 0,-1 0,-2 1,-3 0,0 2,0 4,0 2,0 4,0 4,0 1,1 1,2 1,3l-2 0 0 0c0,-1 0,-1 0,-1 -1,-1 -2,-1 -3,-1 -2,0 -3,0 -3,1 0,0 -1,1 -1,1 0,1 0,1 1,1 0,1 0,1 0,1 0,0 1,0 2,0 1,0 1,0 1,0 1,0 2,0 3,0 0,0 1,1 1,1 1,0 1,0 1,1 0,0 1,1 1,2 0,1 -1,2 -1,2 0,1 0,1 -1,1 0,1 -1,1 -1,1 -1,0 -2,0 -3,0 -2,0 -4,0 -4,-1 -1,0 -2,-1 -2,-3l0 0zm15 9l-4 0 0 -2 4 0c1,0 1,0 2,-1 0,0 0,-1 0,-1l1 0 -2 -4 -3 -10 2 0 4 11 3 -11 2 0 -5 14c0,1 -1,2 -1,3 -1,0 -1,1 -2,1 0,0 0,0 -1,0zm28 -16c-2,0 -3,1 -3,2l0 5c0,1 1,2 3,2l3 0c1,0 2,-1 2,-2l0 -5c0,-1 -1,-2 -2,-2l-3 0zm0 -2l3 0c2,0 4,2 4,4l0 5c0,2 -2,4 -4,4l-3 0c-2,0 -4,-2 -4,-4l0 -5c0,-2 2,-4 4,-4zm36 1l3 0c1,0 2,2 2,3l0 1 -7 0 0 -1c0,-1 1,-3 2,-3zm5 7l0 1c0,1 -1,2 -2,2l-3 0c-1,0 -2,-1 -2,-2l0 -2 2 0 5 0 2 0 0 -3c0,-2 -2,-4 -4,-4l-3 0c-2,0 -4,2 -4,4l0 5c0,2 2,4 4,4l3 0c2,0 4,-2 4,-4l0 -1 -2 0zm8 -7l3 0c1,0 3,2 3,3l0 1 1 0 0 -1c0,-2 -2,-4 -4,-4l-3 0c-2,0 -4,2 -4,4l0 5c0,2 2,4 4,4l3 0c2,0 4,-2 4,-4l0 -1 -1 0 0 1c0,1 -2,2 -3,2l-3 0c-1,0 -2,-1 -2,-2l0 -5c0,-1 1,-3 2,-3zm-26 -4l0 3 -2 0 0 2 2 0 0 11 2 0 0 -11 5 0 0 -2 -5 0 0 -3 -2 0z"/>
    <path fill="#FF6600" fill-rule="nonzero" d="M46 936c0,0 0,0 0,1 0,0 0,0 1,0 0,0 1,0 1,0 0,0 0,-1 0,-1l0 -1c0,-1 0,-1 0,-1 0,0 -1,0 -1,0 -1,0 -1,0 -1,0 0,0 0,0 0,1l0 1zm42 2l0 -1 0 0 0 0 -1 -4 0 0 1 4 2 -4 0 0 -1 5c0,0 -1,1 -1,1 0,0 0,0 -1,0 0,0 0,0 0,0 0,0 0,0 0,0l0 0c0,0 0,0 0,0 0,0 0,0 0,0 1,0 1,-1 1,-1 0,0 0,0 0,0l0 0zm-43 -5l1 0 0 1c0,0 0,-1 0,-1 0,0 1,0 1,0 1,0 1,0 1,0 1,1 1,1 1,2l0 1c0,0 0,1 -1,1 0,0 0,0 -1,0 0,0 -1,0 -1,0 0,0 0,0 0,0l0 2 -1 0 0 -6zm8 3l0 -1c0,-1 0,-1 0,-1 -1,0 -1,0 -1,0l-1 0c0,0 0,0 -1,0 0,0 0,0 0,1l0 1c0,0 0,1 0,1 1,0 1,0 1,0l1 0c0,0 0,0 1,0 0,0 0,-1 0,-1zm-2 1c0,0 -1,0 -1,0 0,0 0,-1 0,-1l0 -1c0,-1 0,-1 0,-2 0,0 1,0 1,0l1 0c0,0 1,0 1,0 0,1 0,1 0,2l0 1c0,0 0,1 0,1 0,0 -1,0 -1,0l-1 0zm3 -4l1 0 1 4 1 -4 1 0 1 4 1 -4 0 0 -1 4 -1 0 -1 -3 -1 3 -1 0 -1 -4zm8 2l2 0 0 0c0,-1 0,-1 0,-1 0,0 -1,0 -1,0l0 0c-1,0 -1,0 -1,0 0,0 0,0 0,1l0 0zm1 2c-1,0 -1,0 -2,0 0,0 0,-1 0,-1l0 -1c0,-1 0,-1 0,-2 1,0 1,0 2,0l0 0c1,0 1,0 1,0 1,1 1,1 1,2l0 0 -3 0c0,0 0,0 0,1 0,0 0,0 0,0 0,0 0,1 0,1 0,0 0,0 1,0l0 0c0,0 1,0 1,0 0,0 0,-1 0,-1l1 0c0,1 0,1 -1,1 0,0 0,0 -1,0l0 0zm3 0l0 -4 0 0 0 1c1,-1 1,-1 1,-1 0,0 0,0 1,0 0,0 0,0 1,0 0,1 0,1 0,2l0 0 -1 0 0 -1c0,0 0,0 0,0 0,0 0,0 0,0 -1,0 -1,0 -1,0 0,0 0,0 0,1l0 2 -1 0zm4 -2l3 0 0 0c0,-1 0,-1 0,-1 -1,0 -1,0 -1,0l-1 0c0,0 0,0 -1,0 0,0 0,0 0,1l0 0zm1 2c0,0 -1,0 -1,0 0,0 0,-1 0,-1l0 -1c0,-1 0,-1 0,-2 0,0 1,0 1,0l1 0c0,0 1,0 1,0 0,1 0,1 0,2l0 0 -3 0c0,0 0,0 0,1 0,0 0,0 0,0 0,0 0,1 0,1 1,0 1,0 1,0l1 0c0,0 0,0 0,0 1,0 1,-1 1,-1l0 0c0,1 0,1 0,1 0,0 -1,0 -1,0l-1 0zm6 -1l0 -1c0,-1 0,-1 0,-1 0,0 0,0 -1,0 0,0 -1,0 -1,0 0,0 0,0 0,1l0 1c0,0 0,1 0,1 0,0 1,0 1,0 1,0 1,0 1,0 0,-1 0,-1 0,-1zm0 1c0,0 0,0 0,0 0,0 -1,0 -1,0 -1,0 -1,0 -1,0 -1,0 -1,-1 -1,-1l0 -1c0,-1 0,-1 1,-2 0,0 0,0 1,0 0,0 1,0 1,0 0,0 0,0 0,1l0 -3 1 0 0 6 -1 0 0 0zm6 -2l0 1c0,0 0,0 0,1 0,0 1,0 1,0 1,0 1,0 1,0 0,0 0,-1 0,-1l0 -1c0,-1 0,-1 0,-1 0,0 0,0 -1,0 0,0 -1,0 -1,0 0,0 0,0 0,1zm-1 2l0 -6 1 0 0 3c0,-1 0,-1 0,-1 1,0 1,0 1,0 1,0 1,0 2,0 0,1 0,1 0,2l0 1c0,0 0,1 0,1 -1,0 -1,0 -2,0 0,0 0,0 -1,0 0,0 0,0 0,0l0 0 -1 0z"/>
   </g>
   <path fill="#FF6600" d="M45 929l117 0c3,0 6,3 6,6l0 19c0,3 -3,6 -6,6l-117 0c-3,0 -5,-3 -5,-6l0 -19c0,-4 2,-6 5,-6zm0 1l117 0c3,0 5,2 5,5l0 19c0,3 -2,5 -5,5l-117 0c-2,0 -5,-2 -5,-5l0 -19c0,-3 3,-5 5,-5z"/>
  </g>
 </g>
</svg>
