<?xml version="1.0" encoding="UTF-8"?>
<!DOCTYPE svg PUBLIC "-//W3C//DTD SVG 1.1//EN" "http://www.w3.org/Graphics/SVG/1.1/DTD/svg11.dtd">
<!-- Creator: CorelDRAW X7 -->
<svg xmlns="http://www.w3.org/2000/svg" xml:space="preserve" width="720px" height="160px" version="1.1" shape-rendering="geometricPrecision" text-rendering="geometricPrecision" image-rendering="optimizeQuality" fill-rule="evenodd" clip-rule="evenodd"
viewBox="0 0 720 160"
 xmlns:xlink="http://www.w3.org/1999/xlink">
 <g id="Layer_x0020_1">
  <metadata id="CorelCorpID_0Corel-Layer"/>
  <rect fill="none" width="720" height="160"/>
  <g id="_1708451133280">
   <polygon fill="#FF6600" fill-rule="nonzero" points="277,109 277,32 291,32 291,95 353,95 353,109 "/>
   <path id="1" fill="#FF6600" fill-rule="nonzero" d="M374 109c-3,0 -5,-1 -8,-2 -2,-2 -4,-3 -5,-6 -1,-2 -2,-4 -2,-7l0 -32c0,-3 1,-5 2,-8 1,-2 3,-4 5,-5 3,-1 5,-2 8,-2l33 0c3,0 5,1 8,2 2,1 3,3 5,5 1,3 2,5 2,8l0 23 -49 0 0 9c0,0 0,0 0,1 1,0 1,0 1,0l48 0 0 14 -48 0 0 0zm-1 -37l35 0 0 -10c0,0 0,0 -1,-1 0,0 0,0 0,0l-33 0c0,0 0,0 -1,0 0,1 0,1 0,1l0 10z"/>
   <path id="2" fill="#FF6600" fill-rule="nonzero" d="M444 109c-2,0 -5,-1 -7,-2 -2,-1 -4,-3 -5,-5 -2,-3 -2,-5 -2,-8l0 -32c0,-3 0,-5 2,-8 1,-2 3,-4 5,-5 2,-1 5,-2 7,-2l35 0 0 -20 14 0 0 82 -49 0 0 0zm1 -14l32 0c1,0 1,0 1,0 1,-1 1,-1 1,-1l0 -32c0,0 0,0 -1,-1 0,0 0,0 -1,0l-32 0c0,0 -1,0 -1,0 0,1 0,1 0,1l0 32c0,0 0,0 0,1 0,0 1,0 1,0z"/>
   <path id="3" fill="#FF6600" fill-rule="nonzero" d="M513 133l0 0 0 -14 37 0c1,0 1,0 1,0 0,0 1,-1 0,-1l1 -9 -35 0c-2,0 -5,-1 -7,-2 -2,-1 -4,-3 -5,-5 -2,-3 -2,-5 -2,-8l0 -32c0,-3 0,-5 2,-8 1,-2 3,-4 5,-5 2,-1 5,-2 7,-2l34 0c3,0 5,1 7,2 2,1 4,3 5,5 2,3 2,5 2,8l0 56c0,3 0,6 -1,8 -2,2 -4,4 -6,5 -2,2 -4,2 -7,2l-38 0zm5 -38l32 0c1,0 1,0 1,0 0,-1 1,-1 0,-1l0 -32c1,0 0,0 0,-1 0,0 0,0 -1,0l-32 0c0,0 -1,0 -1,0 0,1 0,1 0,1l0 32c0,0 0,0 0,1 0,0 1,0 1,0z"/>
   <path id="4" fill="#FF6600" fill-rule="nonzero" d="M589 109c-3,0 -5,-1 -7,-2 -3,-2 -4,-3 -6,-6 -1,-2 -2,-4 -2,-7l0 -32c0,-3 1,-5 2,-8 2,-2 3,-4 6,-5 2,-1 4,-2 7,-2l33 0c3,0 6,1 8,2 2,1 4,3 5,5 1,3 2,5 2,8l0 23 -49 0 0 9c0,0 0,0 1,1 0,0 0,0 0,0l48 0 0 14 -48 0 0 0zm-1 -37l35 0 0 -10c0,0 0,0 0,-1 -1,0 -1,0 -1,0l-33 0c0,0 0,0 0,0 -1,1 -1,1 -1,1l0 10z"/>
   <path id="5" fill="#FF6600" fill-rule="nonzero" d="M647 109l0 0 0 -47c0,-3 1,-5 2,-8 2,-2 4,-4 6,-5 2,-1 4,-2 7,-2l34 0 0 14 -33 0c-1,0 -1,0 -1,0 -1,1 -1,1 -1,1l0 47 -14 0z"/>
   <path fill="#999999" fill-rule="nonzero" d="M114 72l35 0 0 -10c0,0 0,0 0,-1 -1,0 -1,0 -1,0l-33 0c0,0 0,0 0,0 -1,1 -1,1 -1,1l0 10zm108 -25l0 -5c0,-3 1,-6 2,-8 2,-2 3,-4 6,-5 2,-2 4,-2 7,-2l23 0 0 14 -23 0c0,0 0,0 0,0 -1,0 -1,1 -1,1l0 5 24 0 0 14 -24 0 0 48 -14 0 0 0 0 -48 -33 0c-1,0 -1,0 -1,0 -1,1 -1,1 -1,1l0 39 0 8 0 0 -72 0 0 0c-3,0 -5,-1 -7,-2 -3,-2 -4,-3 -6,-6 -1,-2 -2,-4 -2,-7l0 -32c0,-3 1,-5 2,-8 2,-2 3,-4 6,-5 2,-1 4,-2 7,-2l33 0c3,0 6,1 8,2 2,1 4,3 5,5 1,3 2,5 2,8l0 23 -49 0 0 9c0,0 0,0 1,1 0,0 0,0 0,0l58 0 0 -33c0,-3 1,-5 2,-8 2,-2 4,-4 6,-5 2,-1 4,-2 7,-2l34 0zm-198 -15l14 0 0 77 -14 0 0 -77zm50 77l19 0 -34 -41 30 -36 -19 0 -30 36 34 41z"/>
  </g>
 </g>
</svg>
