<?xml version="1.0" encoding="UTF-8"?>
<!DOCTYPE svg PUBLIC "-//W3C//DTD SVG 1.1//EN" "http://www.w3.org/Graphics/SVG/1.1/DTD/svg11.dtd">
<!-- Creator: CorelDRAW X7 -->
<svg xmlns="http://www.w3.org/2000/svg" xml:space="preserve" width="590px" height="170px" version="1.1" shape-rendering="geometricPrecision" text-rendering="geometricPrecision" image-rendering="optimizeQuality" fill-rule="evenodd" clip-rule="evenodd"
viewBox="0 0 590 170"
 xmlns:xlink="http://www.w3.org/1999/xlink">
 <g id="Layer_x0020_1">
  <metadata id="CorelCorpID_0Corel-Layer"/>
  <rect fill="none" width="590" height="170"/>
  <g id="_1708525044032">
   <polygon fill="#333333" fill-rule="nonzero" points="84,118 105,118 66,71 101,31 79,31 45,71 "/>
   <polygon fill="#333333" fill-rule="nonzero" points="27,31 43,31 43,118 27,118 "/>
   <path fill="#FF6600" fill-rule="nonzero" d="M87 91l0 -39 16 -19 0 69 71 0 0 16 -64 0 -23 -27zm110 27c-3,0 -6,-1 -8,-3 -3,-1 -5,-3 -6,-6 -2,-2 -2,-5 -2,-8l0 -37c0,-3 0,-6 2,-8 1,-3 3,-5 6,-6 2,-2 5,-2 8,-2l38 0c3,0 6,0 9,2 2,1 4,3 5,6 2,2 3,5 3,8l0 26 -56 1 0 9c0,1 0,1 1,1 0,1 0,1 1,1l54 0 0 16 -55 0 0 0zm-1 -42l40 0 0 -11c0,-1 0,-1 -1,-1 0,-1 0,-1 -1,-1l-36 0c-1,0 -1,0 -1,1 -1,0 -1,0 -1,1l0 11zm81 42c-3,0 -6,-1 -8,-3 -3,-1 -4,-3 -6,-6 -1,-2 -2,-5 -2,-8l0 -37c0,-3 1,-6 2,-8 2,-3 3,-5 6,-6 2,-2 5,-2 8,-2l39 0 0 -23 16 0 0 93 -55 0 0 0zm1 -16l37 0c0,0 1,0 1,-1 0,0 0,0 0,-1l0 -35c0,-1 0,-1 0,-1 0,-1 -1,-1 -1,-1l-37 0c0,0 -1,0 -1,1 0,0 0,0 0,1l0 35c0,1 0,1 0,1 0,1 1,1 1,1zm77 43l0 0 0 -16 42 0c1,0 1,0 2,0 0,0 0,-1 0,-1l0 -10 -39 0c-3,0 -6,-1 -8,-3 -3,-1 -5,-3 -6,-6 -2,-2 -2,-5 -2,-8l0 -37c0,-3 0,-6 2,-8 1,-3 3,-5 6,-6 2,-2 5,-2 8,-2l38 0c3,0 6,0 9,2 2,1 4,3 6,6 1,2 2,5 2,8l0 65c0,3 -1,6 -2,8 -2,3 -4,5 -6,6 -3,2 -6,2 -9,2l-43 0zm6 -43l36 0c1,0 1,0 2,-1 0,0 0,0 0,-1l0 -35c0,-1 0,-1 0,-1 -1,-1 -1,-1 -2,-1l-36 0c-1,0 -1,0 -1,1 -1,0 -1,0 -1,1l0 35c0,1 0,1 1,1 0,1 0,1 1,1zm80 16c-3,0 -5,-1 -8,-3 -2,-1 -4,-3 -6,-6 -1,-2 -2,-5 -2,-8l0 -37c0,-3 1,-6 2,-8 2,-3 4,-5 6,-6 3,-2 5,-2 8,-2l38 0c3,0 6,0 9,2 2,1 4,3 6,6 1,2 2,5 2,8l0 26 -55 1 0 9c-1,1 0,1 0,1 0,1 1,1 1,1l54 0 0 16 -55 0 0 0zm-1 -42l40 0 0 -11c0,-1 0,-1 0,-1 -1,-1 -1,-1 -1,-1l-37 0c0,0 -1,0 -1,1 0,0 -1,0 0,1l-1 11zm68 42l0 0 0 -54c0,-3 1,-6 2,-8 2,-3 4,-5 6,-6 3,-2 5,-2 8,-2l39 0 0 15 -38 0c0,0 -1,0 -1,1 0,0 0,0 0,1l-1 53 -15 0z"/>
  </g>
 </g>
</svg>
