<?xml version="1.0" encoding="UTF-8"?>
<!DOCTYPE svg PUBLIC "-//W3C//DTD SVG 1.1//EN" "http://www.w3.org/Graphics/SVG/1.1/DTD/svg11.dtd">
<!-- Creator: CorelDRAW X7 -->
<svg xmlns="http://www.w3.org/2000/svg" xml:space="preserve" width="64px" height="64px" version="1.1" shape-rendering="geometricPrecision" text-rendering="geometricPrecision" image-rendering="optimizeQuality" fill-rule="evenodd" clip-rule="evenodd"
viewBox="0 0 64 64"
 xmlns:xlink="http://www.w3.org/1999/xlink">
 <g id="Layer_x0020_1">
  <metadata id="CorelCorpID_0Corel-Layer"/>
  <g id="_1708271960272">
   <path fill="#333333" d="M60 64l-56 0c-2,0 -4,-2 -4,-4l0 -56c0,-2 2,-4 4,-4l56 0c2,0 4,2 4,4l0 56c0,2 -2,4 -4,4z"/>
   <path fill="#FF6600" fill-rule="nonzero" d="M17 45c-1,0 -1,0 -2,-1 0,0 -1,0 -1,0l-3 2c0,0 -1,0 -1,0 -1,0 -1,-1 -2,-2 -1,0 -1,-1 -2,-2 0,0 0,0 0,-1l0 0 3 -3c-1,0 -1,0 -1,-1 0,0 0,-1 0,-1l-4 -1c0,0 -1,0 -1,0 0,-1 0,-1 0,-2 0,0 0,-1 0,-1 0,0 0,-1 0,-1 0,-1 0,-1 0,-2 0,0 1,0 1,0l0 0 4 -1c0,0 0,-1 0,-1 0,-1 0,-1 1,-1l-3 -3c0,-1 0,-1 0,-1 1,-1 1,-2 2,-2 1,-1 1,-2 2,-2 0,0 1,0 1,0l0 0 3 2c0,0 1,0 1,0 1,-1 1,-1 2,-1l0 -4c0,0 0,0 1,0 0,0 1,0 1,0 1,0 1,0 1,0 1,0 1,0 2,0 0,0 1,0 1,0 0,0 1,0 1,0l0 0 0 4c1,0 1,0 2,1 0,0 0,0 1,0l3 -2c0,0 0,0 1,0 0,0 1,1 2,2 0,0 1,1 1,2 1,0 1,0 0,1l0 0 -2 3c0,0 1,0 1,1 0,0 0,1 0,1l4 1c0,0 1,0 1,0 0,1 0,1 0,2 0,0 0,1 0,1 0,0 0,1 0,1 0,1 0,1 0,2 0,0 -1,0 -1,0l0 0 -4 1c0,0 0,1 0,1 0,1 -1,1 -1,1l2 3c1,1 1,1 0,1 0,1 -1,2 -1,2 -1,1 -2,2 -2,2 -1,0 -1,0 -1,0l0 0 -3 -2c-1,0 -1,0 -1,0 -1,1 -1,1 -2,1l0 4c0,0 -1,0 -1,0 0,0 -1,0 -1,0 -1,0 -1,0 -2,0 0,0 0,0 -1,0 0,0 -1,0 -1,0 -1,0 -1,0 -1,0l0 0 0 -4zm-1 -2c0,0 1,0 1,0 1,1 1,1 1,1l0 4c1,0 1,0 1,0 1,0 1,0 1,0 1,0 1,0 2,0 0,0 0,0 0,0l1 -4c0,0 0,0 0,0 1,-1 1,-1 2,-1 0,0 1,-1 1,-1l0 0c1,0 1,0 1,0l3 3c1,-1 1,-1 2,-2 0,0 1,-1 1,-1l-2 -3c-1,0 -1,-1 0,-1 0,0 0,-1 0,-1 1,-1 1,-2 1,-2 0,0 0,-1 1,-1l3 0c0,0 0,-1 0,-1 0,0 0,-1 0,-1 0,0 0,-1 0,-1 0,0 0,-1 0,-1l-3 0c-1,0 -1,-1 -1,-1 0,0 0,-1 -1,-2 0,0 0,-1 0,-1l0 0c-1,0 -1,-1 0,-1l2 -3c0,0 -1,-1 -1,-1 -1,-1 -1,-1 -2,-2l-3 3c0,0 0,0 -1,0 0,0 -1,-1 -1,-1 -1,0 -1,0 -2,0 0,-1 0,-1 0,-1l-1 -4c0,0 0,0 0,0 -1,0 -1,0 -2,0 0,0 0,0 -1,0 0,0 0,0 -1,0l0 4c0,0 0,0 0,0 -1,1 -2,1 -2,1 -1,0 -1,1 -2,1l0 0c0,0 0,0 -1,0l-2 -3c-1,1 -1,1 -2,2 0,0 -1,1 -1,1l2 3c0,0 0,1 0,1 0,0 0,1 -1,1 0,1 0,2 0,2 0,0 0,1 -1,1l-3 0c0,0 0,1 0,1 0,0 -1,1 -1,1 0,0 1,1 1,1 0,0 0,1 0,1l3 0c1,0 1,1 1,1 0,0 0,1 0,2 1,0 1,1 1,1l0 0c0,0 0,1 0,1l-2 3c0,0 1,1 1,1 1,1 1,1 2,2l2 -3c1,0 1,0 1,0 1,0 1,1 2,1zm28 -16c0,0 0,0 -1,0 0,0 0,0 -1,0l-2 1c0,1 -1,1 -1,0 0,0 -1,-1 -1,-1l0 0c-1,-1 -1,-1 -2,-2 0,0 0,0 0,-1l0 0 2 -2c0,0 0,0 -1,-1 0,0 0,0 0,-1l-3 0c0,0 0,0 0,-1 0,0 0,0 0,-1 0,0 -1,0 -1,-1 0,0 1,0 1,-1 0,0 0,-1 0,-1 0,0 0,-1 0,-1l0 0 3 0c0,0 0,-1 0,-1 1,0 1,0 1,-1l-2 -2c0,0 0,-1 0,-1 1,0 1,-1 2,-1 0,-1 1,-1 1,-2 0,0 1,0 1,0l0 0 2 2c1,0 1,0 1,-1 1,0 1,0 1,0l0 -3c1,0 1,0 1,0 1,0 1,0 1,0 1,-1 1,-1 1,-1 1,0 1,0 1,1 1,0 1,0 1,0 1,0 1,0 1,0l0 0 0 3c1,0 1,0 1,0 1,1 1,1 1,1l2 -2c1,0 1,0 1,0 1,1 1,1 2,2l0 0c0,0 1,1 1,1 1,0 1,1 0,1l0 0 -1 2c0,1 0,1 0,1 0,0 0,1 0,1l3 0c1,1 1,1 1,1 0,0 0,1 0,1 0,1 0,1 0,1 0,1 0,1 0,1 0,1 0,1 0,1 0,1 0,1 -1,1l0 0 -3 0c0,1 0,1 0,1 0,1 0,1 0,1l1 2c1,1 1,1 0,1 0,1 -1,1 -1,2 -1,0 -1,1 -2,1 0,1 0,1 -1,0l0 0 -2 -1c0,0 0,0 -1,0 0,0 0,0 -1,0l0 3c0,1 0,1 -1,1 0,0 0,0 -1,0 0,0 0,0 -1,0 0,0 0,0 -1,0 0,0 -1,0 -1,0 0,0 0,-1 -1,-1l0 0 0 -3zm0 -1c0,0 1,0 1,0 0,0 1,0 1,1l0 2c0,0 0,0 0,0 1,0 1,0 1,0 1,0 1,0 1,0 0,0 0,0 1,0l0 -2c0,-1 0,-1 0,-1 1,0 1,0 2,0 0,-1 1,-1 1,-1l0 0c0,0 0,0 1,0l2 2c0,0 1,-1 1,-1 0,0 1,-1 1,-1l-2 -2c0,0 0,-1 0,-1 0,0 0,-1 1,-1 0,-1 0,-1 0,-2 0,0 0,0 1,0l2 0c0,-1 0,-1 0,-1 0,0 1,0 1,-1 0,0 -1,0 -1,-1 0,0 0,0 0,0l-2 0c-1,0 -1,-1 -1,-1 0,0 0,-1 0,-1 -1,-1 -1,-1 -1,-1l0 0c0,-1 0,-1 0,-1l2 -2c0,-1 -1,-1 -1,-1 0,-1 -1,-1 -1,-1l-2 1c0,1 -1,1 -1,0 0,0 -1,0 -1,0 -1,0 -1,0 -2,-1 0,0 0,0 0,0l0 -3c-1,0 -1,0 -1,0 0,0 0,0 -1,0 0,0 0,0 -1,0 0,0 0,0 0,0l0 3c0,0 -1,0 -1,0 0,1 -1,1 -1,1 -1,0 -1,0 -1,0l0 0c-1,1 -1,1 -1,0l-2 -1c-1,0 -1,0 -1,1 -1,0 -1,0 -1,1l1 2c1,0 1,0 0,1 0,0 0,0 0,1 0,0 0,1 -1,1 0,0 0,1 0,1l-3 0c0,0 0,0 0,0 0,1 0,1 0,1 0,1 0,1 0,1 0,0 0,0 0,1l3 0c0,0 0,0 0,0 1,1 1,1 1,2 0,0 0,1 0,1l0 0c1,0 1,0 0,1l-1 2c0,0 0,1 1,1 0,0 0,1 1,1l2 -2c0,0 0,0 1,0 0,0 0,0 1,1zm3 -3c-1,0 -3,-1 -4,-2 0,-1 -1,-2 -1,-4 0,-1 1,-3 1,-4 1,-1 3,-1 4,-1 2,0 3,0 4,1 1,1 2,3 2,4 0,2 -1,3 -2,4 -1,1 -2,2 -4,2zm-2 -3c0,1 1,1 2,1 1,0 2,0 3,-1 1,-1 1,-2 1,-3 0,-1 0,-2 -1,-2 -1,-1 -2,-2 -3,-2 -1,0 -2,1 -2,2 -1,0 -2,1 -2,2 0,1 1,2 2,3zm-1 37c0,0 0,0 -1,0 0,-1 0,-1 -1,-1l-2 2c0,0 -1,0 -1,0 0,-1 -1,-1 -1,-2l0 0c-1,0 -1,-1 -2,-1 0,0 0,-1 0,-1l0 0 2 -2c0,-1 0,-1 -1,-1 0,0 0,-1 0,-1l-3 0c0,-1 0,-1 0,-1 0,0 0,-1 0,-1 0,-1 -1,-1 -1,-1 0,-1 1,-1 1,-1 0,-1 0,-1 0,-1 0,-1 0,-1 0,-1l0 0 3 0c0,-1 0,-1 0,-1 1,-1 1,-1 1,-1l-2 -2c0,-1 0,-1 0,-1 1,-1 1,-1 2,-2 0,0 1,-1 1,-1 0,-1 1,-1 1,0l0 0 2 1c1,0 1,0 1,0 1,0 1,0 1,0l0 -3c1,-1 1,-1 1,-1 1,0 1,0 1,0 1,0 1,0 1,0 1,0 1,0 1,0 1,0 1,0 1,0 1,0 1,1 1,1l0 0 0 3c1,0 1,0 1,0 1,0 1,0 1,0l2 -1c1,-1 1,-1 1,0 1,0 1,1 2,1l0 0c0,1 1,1 1,2 1,0 1,0 0,1l0 0 -1 2c0,0 0,0 0,1 0,0 0,0 0,1l3 0c1,0 1,0 1,1 0,0 0,0 0,1 0,0 0,0 0,1 0,0 0,0 0,1 0,0 0,1 0,1 0,0 0,1 -1,1l0 0 -3 0c0,0 0,1 0,1 0,0 0,0 0,1l1 2c1,0 1,1 0,1 0,0 -1,1 -1,1 -1,1 -1,1 -2,2 0,0 0,0 -1,0l0 0 -2 -2c0,0 0,0 -1,1 0,0 0,0 -1,0l0 3c0,0 0,0 -1,0 0,0 0,0 -1,0 0,1 0,1 -1,1 0,0 0,0 -1,-1 0,0 -1,0 -1,0 0,0 0,0 -1,0l0 0 0 -3zm0 -2c0,0 1,0 1,1 0,0 1,0 1,0l0 3c0,0 0,0 0,0 1,0 1,0 1,0 1,0 1,0 1,0 0,0 0,0 1,0l0 -3c0,0 0,0 0,0 1,-1 1,-1 2,-1 0,0 1,0 1,0l0 0c0,-1 0,-1 1,0l2 1c0,0 1,0 1,-1 0,0 1,0 1,-1l-2 -2c0,0 0,0 0,-1 0,0 0,0 1,-1 0,0 0,-1 0,-1 0,0 0,-1 1,-1l2 0c0,0 0,0 0,0 0,-1 1,-1 1,-1 0,-1 -1,-1 -1,-1 0,0 0,0 0,-1l-2 0c-1,0 -1,0 -1,0 0,-1 0,-1 0,-2 -1,0 -1,-1 -1,-1l0 0c0,0 0,0 0,-1l2 -2c0,0 -1,-1 -1,-1 0,0 -1,-1 -1,-1l-2 2c0,0 -1,0 -1,0 0,0 -1,0 -1,-1 -1,0 -1,0 -2,0 0,0 0,0 0,-1l0 -2c-1,0 -1,0 -1,0 0,0 0,0 -1,0 0,0 0,0 -1,0 0,0 0,0 0,0l0 2c0,1 -1,1 -1,1 0,0 -1,0 -1,0 -1,1 -1,1 -1,1l0 0c-1,0 -1,0 -1,0l-2 -2c-1,0 -1,1 -1,1 -1,0 -1,1 -1,1l1 2c1,0 1,1 0,1 0,0 0,1 0,1 0,1 0,1 -1,2 0,0 0,0 0,0l-3 0c0,1 0,1 0,1 0,0 0,0 0,1 0,0 0,0 0,1 0,0 0,0 0,0l3 0c0,0 0,1 0,1 1,0 1,1 1,1 0,1 0,1 0,1l0 0c1,1 1,1 0,1l-1 2c0,1 0,1 1,1 0,1 0,1 1,1l2 -1c0,-1 0,-1 1,0 0,0 0,0 1,0zm3 -3c-1,0 -3,0 -4,-1 0,-1 -1,-3 -1,-4 0,-2 1,-3 1,-4 1,-1 3,-2 4,-2 2,0 3,1 4,2 1,1 2,2 2,4 0,1 -1,3 -2,4 -1,1 -2,1 -4,1zm-2 -3c0,1 1,2 2,2 1,0 2,-1 3,-2 1,0 1,-1 1,-2 0,-1 0,-2 -1,-3 -1,-1 -2,-1 -3,-1 -1,0 -2,0 -2,1 -1,1 -2,2 -2,3 0,1 1,2 2,2zm-25 -10c-1,0 -3,-1 -4,-2 -1,-2 -2,-3 -2,-5 0,-2 1,-3 2,-5 1,-1 3,-2 4,-2 2,0 4,1 5,2 1,2 2,3 2,5 0,2 -1,3 -2,5 -1,1 -3,2 -5,2zm-3 -3c1,1 2,1 3,1 2,0 3,0 4,-1 1,-1 2,-3 2,-4 0,-1 -1,-3 -2,-4 -1,-1 -2,-1 -4,-1 -1,0 -2,0 -3,1 -1,1 -2,3 -2,4 0,1 1,3 2,4z"/>
  </g>
 </g>
</svg>
