<?xml version="1.0" encoding="UTF-8"?>
<!DOCTYPE svg PUBLIC "-//W3C//DTD SVG 1.1//EN" "http://www.w3.org/Graphics/SVG/1.1/DTD/svg11.dtd">
<!-- Creator: CorelDRAW X7 -->
<svg xmlns="http://www.w3.org/2000/svg" xml:space="preserve" width="530px" height="130px" version="1.1" shape-rendering="geometricPrecision" text-rendering="geometricPrecision" image-rendering="optimizeQuality" fill-rule="evenodd" clip-rule="evenodd"
viewBox="0 0 530 130"
 xmlns:xlink="http://www.w3.org/1999/xlink">
 <g id="Layer_x0020_1">
  <metadata id="CorelCorpID_0Corel-Layer"/>
  <rect fill="none" width="530" height="130"/>
  <g id="_1708271963024">
   <path fill="#333333" fill-rule="nonzero" d="M115 70l35 0 0 -10c0,-1 0,-1 -1,-1 0,-1 0,-1 -1,-1l-32 0c0,0 -1,0 -1,1 0,0 0,0 0,1l0 10zm108 -26l0 -5c0,-3 0,-5 2,-8 1,-2 3,-4 5,-5 2,-1 5,-2 7,-2l24 0 0 14 -23 0c0,0 -1,0 -1,0 0,1 0,1 0,1l0 5 24 0 0 14 -24 0 0 48 -14 0 0 0 0 -48 -34 0c0,0 0,0 -1,1 0,0 0,0 0,1l0 38 0 8 0 0 -73 0 1 0c-3,0 -6,-1 -8,-2 -2,-1 -4,-3 -5,-5 -1,-3 -2,-5 -2,-8l0 -32c0,-3 1,-5 2,-7 1,-3 3,-4 5,-6 2,-1 5,-2 8,-2l33 0c3,0 5,1 7,2 3,2 4,3 6,6 1,2 2,4 2,7l0 23 -49 0 0 9c0,0 0,0 0,1 0,0 1,0 1,0l58 0 0 -33c0,-3 1,-5 2,-7 1,-3 3,-4 5,-6 3,-1 5,-2 8,-2l34 0zm-199 -15l15 0 0 77 -15 0 0 -77zm51 77l19 0 -35 -41 30 -36 -18 0 -30 36 34 41z"/>
   <path fill="#FF6600" fill-rule="nonzero" d="M277 106l0 -76 62 0c3,0 5,0 7,2 3,1 4,3 6,5 1,2 2,5 2,7l0 21c0,3 -1,5 -2,7 -2,3 -3,4 -6,6 -2,1 -4,2 -7,2l-48 0 0 26 -14 0zm15 -40l46 0c1,0 1,0 1,-1 0,0 1,0 1,-1l0 -19c0,-1 -1,-1 -1,-1 0,0 0,0 -1,0l-46 0c0,0 0,0 0,0 -1,0 -1,0 -1,1l0 19c0,1 0,1 1,1 0,1 0,1 0,1zm84 40c-3,0 -6,-1 -8,-2 -2,-1 -4,-3 -5,-5 -1,-3 -2,-5 -2,-8l0 -67 14 0 0 67c0,0 0,0 0,1 0,0 1,0 1,0l12 0 0 14 -13 0 1 0zm35 0c-3,0 -6,-1 -8,-2 -2,-1 -4,-3 -5,-5 -1,-3 -2,-5 -2,-8l0 -32c0,-3 1,-5 2,-7 1,-3 3,-4 5,-6 2,-1 5,-2 8,-2l33 0c3,0 5,1 7,2 2,2 4,3 6,6 1,2 1,4 1,7l0 32c0,3 0,5 -1,8 -2,2 -4,4 -6,5 -2,1 -4,2 -7,2l-34 0 1 0zm0 -14l32 0c1,0 1,0 1,0 0,-1 1,-1 1,-1l0 -31c0,-1 -1,-1 -1,-1 0,-1 0,-1 -1,-1l-32 0c0,0 -1,0 -1,1 0,0 0,0 0,1l0 31c0,0 0,0 0,1 0,0 1,0 1,0zm71 14c-2,0 -5,-1 -7,-2 -2,-1 -4,-3 -5,-5 -2,-3 -2,-5 -2,-8l0 -66 14 0 -1 19 25 0 0 14 -24 0 0 33c-1,0 0,0 0,1 0,0 0,0 1,0l23 0 0 14 -24 0z"/>
  </g>
 </g>
</svg>
