<?xml version="1.0" encoding="UTF-8"?>
<!DOCTYPE svg PUBLIC "-//W3C//DTD SVG 1.1//EN" "http://www.w3.org/Graphics/SVG/1.1/DTD/svg11.dtd">
<!-- Creator: CorelDRAW X7 -->
<svg xmlns="http://www.w3.org/2000/svg" xml:space="preserve" width="360px" height="130px" version="1.1" shape-rendering="geometricPrecision" text-rendering="geometricPrecision" image-rendering="optimizeQuality" fill-rule="evenodd" clip-rule="evenodd"
viewBox="0 0 360 130"
 xmlns:xlink="http://www.w3.org/1999/xlink">
 <g id="Layer_x0020_1">
  <metadata id="CorelCorpID_0Corel-Layer"/>
  <rect fill="none" width="360" height="130"/>
  <g id="_1708271960816">
   <path fill="#FF6600" fill-rule="nonzero" d="M85 87l0 -43 14 -17 53 0c3,0 6,0 8,2 2,1 4,3 6,6 1,2 2,5 2,8l0 22c0,3 -1,5 -2,8 -2,2 -4,4 -6,6 -2,1 -5,2 -8,2l-52 0 0 24 -15 -18zm17 -21l49 0c1,0 1,0 1,-1 1,0 1,0 1,-1l0 -21c0,0 0,-1 -1,-1 0,0 0,0 -1,0l-49 0c-1,0 -1,0 -1,0 -1,0 -1,1 -1,1l0 21c0,1 0,1 1,1 0,1 0,1 1,1zm93 43c-3,0 -6,0 -8,-2 -3,-1 -5,-3 -6,-6 -1,-2 -2,-5 -2,-8l0 -72 15 0 0 72c0,0 0,1 0,1 1,0 1,0 1,0l13 0 0 15 -13 0 0 0zm38 0c-3,0 -6,0 -8,-2 -3,-1 -5,-3 -6,-6 -2,-2 -2,-5 -2,-8l0 -34c0,-3 0,-6 2,-8 1,-3 3,-5 6,-6 2,-2 5,-2 8,-2l36 0c3,0 5,0 8,2 2,1 4,3 5,6 2,2 2,5 2,8l0 34c0,3 0,6 -2,8 -1,3 -3,5 -5,6 -3,2 -5,2 -8,2l-37 0 1 0zm0 -15l35 0c0,0 1,0 1,0 0,0 0,-1 0,-1l0 -34c0,0 0,-1 0,-1 0,0 -1,0 -1,0l-35 0c0,0 -1,0 -1,0 0,0 0,1 0,1l0 34c0,0 0,1 0,1 0,0 1,0 1,0zm77 15c-3,0 -5,0 -8,-2 -2,-1 -4,-3 -6,-6 -1,-2 -2,-5 -2,-8l0 -71 15 0 0 21 26 0 0 15 -26 0 0 35c0,0 0,1 1,1 0,0 0,0 1,0l24 0 0 15 -25 0z"/>
   <path fill="#4D4D4D" fill-rule="nonzero" d="M25 27l15 0 0 82 -15 0 0 -82zm54 82l20 0 -37 -44 33 -38 -20 0 -33 38 37 44z"/>
  </g>
 </g>
</svg>
