<?xml version="1.0" encoding="UTF-8"?>
<!DOCTYPE svg PUBLIC "-//W3C//DTD SVG 1.1//EN" "http://www.w3.org/Graphics/SVG/1.1/DTD/svg11.dtd">
<!-- Creator: CorelDRAW X7 -->
<svg xmlns="http://www.w3.org/2000/svg" xml:space="preserve" width="64px" height="64px" version="1.1" shape-rendering="geometricPrecision" text-rendering="geometricPrecision" image-rendering="optimizeQuality" fill-rule="evenodd" clip-rule="evenodd"
viewBox="0 0 64 64"
 xmlns:xlink="http://www.w3.org/1999/xlink">
 <g id="Layer_x0020_1">
  <metadata id="CorelCorpID_0Corel-Layer"/>
  <g id="_1708271958736">
   <rect fill="#333333" width="64.0012" height="64.0012"/>
   <g>
    <path fill="#999999" d="M4 16l6 0 0 32 -6 0 0 -32zm21 32l8 0 -14 -17 12 -15 -8 0 -13 15 15 17z"/>
    <path fill="#FF6600" d="M28 40l0 -18 5 -6 21 0c1,0 2,0 3,0 1,1 2,2 3,3 0,1 0,2 0,3l0 9c0,1 0,2 0,3 -1,1 -2,2 -3,2 -1,1 -2,1 -3,1l-20 0 0 10 -6 -7zm6 -9l20 0c0,0 0,0 0,0 0,0 0,0 0,0l0 -9c0,0 0,0 0,0 0,0 0,0 0,0l-20 0c0,0 0,0 0,0 0,0 0,0 0,0l0 9c0,0 0,0 0,0 0,0 0,0 0,0z"/>
   </g>
  </g>
 </g>
</svg>
