<?xml version="1.0" encoding="UTF-8"?>
<!DOCTYPE svg PUBLIC "-//W3C//DTD SVG 1.1//EN" "http://www.w3.org/Graphics/SVG/1.1/DTD/svg11.dtd">
<!-- Creator: CorelDRAW X7 -->
<svg xmlns="http://www.w3.org/2000/svg" xml:space="preserve" width="585px" height="130px" version="1.1" shape-rendering="geometricPrecision" text-rendering="geometricPrecision" image-rendering="optimizeQuality" fill-rule="evenodd" clip-rule="evenodd"
viewBox="0 0 585 130"
 xmlns:xlink="http://www.w3.org/1999/xlink">
 <g id="Layer_x0020_1">
  <metadata id="CorelCorpID_0Corel-Layer"/>
  <rect fill="none" width="585" height="130"/>
  <g id="_1708455732832">
   <path fill="#999999" fill-rule="nonzero" d="M114 70l35 0 0 -11c0,0 0,0 0,0 -1,-1 -1,-1 -1,-1l-33 0c0,0 0,0 -1,1 0,0 0,0 0,0l0 11zm108 -26l0 -5c0,-3 1,-5 2,-8 2,-2 3,-4 6,-5 2,-1 4,-2 7,-2l23 0 0 14 -23 0c0,0 0,0 -1,0 0,1 0,1 0,1l0 5 24 0 0 14 -24 0 0 48 -14 0 0 0 0 -48 -33 0c-1,0 -1,0 -1,1 -1,0 -1,0 -1,0l0 39 0 8 0 0 -72 0 0 0c-3,0 -5,-1 -7,-2 -3,-1 -4,-3 -6,-5 -1,-3 -2,-5 -2,-8l0 -32c0,-3 1,-5 2,-7 2,-3 3,-4 6,-6 2,-1 4,-2 7,-2l33 0c3,0 5,1 8,2 2,2 4,3 5,6 1,2 2,4 2,7l0 23 -49 0 0 9c0,0 0,0 0,1 1,0 1,0 1,0l58 0 0 -33c0,-3 1,-5 2,-7 2,-3 4,-4 6,-6 2,-1 4,-2 7,-2l34 0zm-198 -15l14 0 0 77 -14 0 0 -77zm50 77l19 0 -34 -41 30 -36 -19 0 -30 36 34 41z"/>
   <polygon fill="#FF6600" fill-rule="nonzero" points="304,106 304,106 304,43 273,43 273,29 349,29 349,43 318,43 318,106 "/>
   <path id="1" fill="#FF6600" fill-rule="nonzero" d="M372 106c-3,0 -6,-1 -8,-2 -2,-1 -4,-3 -5,-5 -1,-3 -2,-5 -2,-8l0 -23 49 0 0 -9c0,0 0,0 -1,0 0,-1 0,-1 0,-1l-48 0 0 -14 48 0c3,0 5,1 8,2 2,2 3,3 5,6 1,2 2,4 2,7l0 47 -48 0zm0 -14l34 0 0 -11 -35 0 0 10c0,0 0,0 0,1 1,0 1,0 1,0z"/>
   <path id="2" fill="#FF6600" fill-rule="nonzero" d="M443 106c-3,0 -5,-1 -8,-2 -2,-1 -4,-3 -5,-5 -1,-3 -2,-5 -2,-8l0 -32c0,-3 1,-5 2,-7 1,-3 3,-4 5,-6 3,-1 5,-2 8,-2l48 0 0 14 -48 0c0,0 0,0 -1,1 0,0 0,0 0,0l0 32c0,0 0,0 0,1 1,0 1,0 1,0l48 0 0 14 -48 0 0 0z"/>
   <polygon id="3" fill="#FF6600" fill-rule="nonzero" points="500,106 500,106 500,24 513,24 513,68 524,68 547,44 561,44 561,48 537,75 561,102 561,106 547,106 524,82 513,82 513,106 "/>
  </g>
 </g>
</svg>
