<?xml version="1.0" encoding="UTF-8"?>
<!DOCTYPE svg PUBLIC "-//W3C//DTD SVG 1.1//EN" "http://www.w3.org/Graphics/SVG/1.1/DTD/svg11.dtd">
<!-- Creator: CorelDRAW X7 -->
<svg xmlns="http://www.w3.org/2000/svg" xml:space="preserve" width="64px" height="64px" version="1.1" shape-rendering="geometricPrecision" text-rendering="geometricPrecision" image-rendering="optimizeQuality" fill-rule="evenodd" clip-rule="evenodd"
viewBox="0 0 64 64"
 xmlns:xlink="http://www.w3.org/1999/xlink">
 <g id="Layer_x0020_1">
  <metadata id="CorelCorpID_0Corel-Layer"/>
  <path fill="#333333" d="M60 64l-56 0c-2,0 -4,-2 -4,-4l0 -56c0,-2 2,-4 4,-4l56 0c2,0 4,2 4,4l0 56c0,2 -2,4 -4,4z"/>
  <path fill="#FF6600" fill-rule="nonzero" d="M23 8c2,1 4,2 5,4 1,2 2,4 2,6 0,1 0,1 -1,1l-4 0 0 30c0,0 0,0 0,0 -1,2 -1,3 -2,4 -1,1 -2,2 -3,3 -1,0 -1,0 -1,0 -2,-1 -3,-2 -3,-3 -1,-1 -2,-2 -3,-4 0,0 0,0 0,0l0 0 0 -30 -4 0c0,0 -1,0 -1,-1 0,-2 1,-4 2,-6 0,0 0,0 0,0 1,-2 3,-3 5,-4 1,0 1,0 2,1 0,0 0,0 0,0l0 0 0 3 5 0 0 -3c0,0 0,-1 1,-1 0,0 0,0 0,0zm4 5c-1,-1 -2,-2 -4,-2l0 2c0,1 0,1 0,1l-7 0c-1,0 -1,0 -1,-1l0 -2c-1,0 -3,1 -3,2 0,0 0,0 0,0 -1,1 -2,3 -2,4l4 0 10 0 4 0c0,-1 -1,-3 -1,-4zm-4 6l-8 0 0 10 8 -3 0 -7zm-8 12l0 4 8 -3 0 -4 -8 3zm0 6l0 3 8 -3 0 -3 -8 3zm0 5l0 4 8 -3 0 -4 -8 3zm0 6l0 1c1,1 1,2 2,3 1,0 1,1 2,2 1,-1 2,-2 2,-2 1,-1 2,-2 2,-3l0 -4 -8 3zm39 -33l-7 0c0,0 -1,-1 -1,-1 0,-1 1,-1 1,-1l7 0 0 -3 -19 0 0 8 4 0 10 0 5 0 0 -3zm-14 15l8 -4 0 -7 -8 0 0 11zm0 5l8 -3 0 -4 -8 4 0 3zm0 6l8 -4 0 -3 -8 3 0 4zm8 4l-8 3 0 1c1,1 1,2 2,3 1,1 2,1 2,2 1,-1 2,-1 2,-2 1,-1 2,-2 2,-3l0 -4zm-8 1l8 -3 0 -4 -8 4 0 3zm-6 -38l21 0c0,0 1,0 1,1l0 5 0 4c0,1 -1,1 -1,1l-5 0 0 30c0,0 0,0 0,0 -1,2 -1,3 -2,4 -1,1 -2,2 -3,3 0,0 -1,0 -1,0 -1,-1 -2,-2 -3,-3 -1,-1 -2,-2 -2,-4 0,0 0,0 0,0l0 0 0 -30 -5 0c-1,0 -1,0 -1,-1l0 -9c0,-1 0,-1 1,-1zm9 7c-1,0 -1,-1 -1,-1 0,-1 0,-1 1,-1 0,0 1,0 1,1 0,0 -1,1 -1,1z"/>
 </g>
</svg>
