<?xml version="1.0" encoding="UTF-8"?>
<!DOCTYPE svg PUBLIC "-//W3C//DTD SVG 1.1//EN" "http://www.w3.org/Graphics/SVG/1.1/DTD/svg11.dtd">
<!-- Creator: CorelDRAW X7 -->
<svg xmlns="http://www.w3.org/2000/svg" xml:space="preserve" width="410px" height="130px" version="1.1" shape-rendering="geometricPrecision" text-rendering="geometricPrecision" image-rendering="optimizeQuality" fill-rule="evenodd" clip-rule="evenodd"
viewBox="0 0 410 130"
 xmlns:xlink="http://www.w3.org/1999/xlink">
 <g id="Layer_x0020_1">
  <metadata id="CorelCorpID_0Corel-Layer"/>
  <rect fill="none" width="410" height="130"/>
  <g id="_1708454355504">
   <polygon fill="#333333" fill-rule="nonzero" points="76,108 96,108 59,65 91,27 71,27 39,65 "/>
   <polygon fill="#333333" fill-rule="nonzero" points="22,27 37,27 37,108 22,108 "/>
   <path fill="#FF6600" d="M115 108l0 0 0 -66 -32 0 12 -15 68 0 0 15 -33 0 0 66 -15 0zm72 0c-3,0 -6,0 -8,-2 -3,-1 -5,-3 -6,-5 -1,-3 -2,-5 -2,-8l0 -25 52 0 0 -9c0,0 0,-1 -1,-1 0,0 0,0 -1,0l-50 0 0 -15 51 0c3,0 6,1 8,2 2,1 4,3 5,6 2,2 3,5 3,8l0 49 -51 0zm0 -14l36 0 0 -12 -37 0 0 10c0,1 0,1 0,1 0,1 1,1 1,1zm75 14c-3,0 -6,0 -8,-2 -2,-1 -4,-3 -6,-5 -1,-3 -2,-5 -2,-8l0 -34c0,-3 1,-6 2,-8 2,-3 4,-4 6,-6 2,-1 5,-2 8,-2l51 0 0 15 -51 0c0,0 0,0 -1,0 0,0 0,1 0,1l0 33c0,1 0,1 0,1 1,1 1,1 1,1l51 0 0 14 -51 0 0 0zm60 0l0 0 0 -87 15 0 0 47 12 0 23 -25 16 0 0 4 -26 29 26 28 0 4 -16 0 -23 -25 -12 0 0 25 -15 0z"/>
  </g>
 </g>
</svg>
