<?xml version="1.0" encoding="UTF-8"?>
<!DOCTYPE svg PUBLIC "-//W3C//DTD SVG 1.1//EN" "http://www.w3.org/Graphics/SVG/1.1/DTD/svg11.dtd">
<!-- Creator: CorelDRAW X7 -->
<svg xmlns="http://www.w3.org/2000/svg" xml:space="preserve" width="64px" height="64px" version="1.1" shape-rendering="geometricPrecision" text-rendering="geometricPrecision" image-rendering="optimizeQuality" fill-rule="evenodd" clip-rule="evenodd"
viewBox="0 0 64 64"
 xmlns:xlink="http://www.w3.org/1999/xlink">
 <g id="Layer_x0020_1">
  <metadata id="CorelCorpID_0Corel-Layer"/>
  <g id="_1708279097008">
   <path fill="#333333" d="M60 64l-56 0c-2,0 -4,-2 -4,-4l0 -56c0,-2 2,-4 4,-4l56 0c2,0 4,2 4,4l0 56c0,2 -2,4 -4,4z"/>
   <path fill="#FF6600" d="M18 23c-1,0 -2,0 -3,-1 -1,-1 -2,-2 -2,-4 0,-1 1,-2 2,-3 1,-1 2,-2 3,-2 1,0 3,1 4,2 1,1 1,2 1,3 0,2 0,3 -1,4 -1,1 -3,1 -4,1zm25 -1l0 -4c0,0 0,-1 0,-1l15 0c1,0 1,1 1,1l0 32c0,0 0,1 -1,1l-15 0c0,0 0,-1 0,-1l0 -6c-2,0 -5,0 -6,0 -2,0 -4,1 -5,1l0 0c-3,1 -5,2 -7,1 -3,0 -5,-1 -7,-2l-1 -1c-3,-3 -7,-5 -10,-9l0 0c-1,-1 -2,-3 -2,-5 0,-1 1,-2 2,-3l0 0c0,-1 1,-1 2,-1 1,0 2,1 3,1 2,1 3,2 4,2 2,1 3,3 5,3 0,0 0,0 0,0 1,-1 1,-1 1,-2 2,-2 6,-4 9,-4 3,-4 6,-4 10,-3 1,0 1,0 2,0zm-27 -1c0,0 1,1 2,1 1,0 2,-1 3,-1 0,-1 1,-2 1,-3 0,-1 -1,-2 -1,-2 -1,-1 -2,-1 -3,-1 -1,0 -2,0 -2,1 -1,0 -1,1 -1,2 0,1 0,2 1,3zm27 2c-1,0 -1,0 -2,0 -4,0 -7,0 -9,3 0,1 0,1 -1,1 -3,-1 -6,1 -7,3 -1,1 -1,1 -1,2 0,0 0,0 0,0 0,0 0,0 0,0l10 0 0 2 -10 0c-1,0 -1,-1 -2,-1 -2,-1 -4,-2 -6,-3 -1,-1 -2,-2 -3,-2 -1,-1 -2,-1 -3,-1 0,0 -1,0 -1,0l0 0c-1,1 -1,2 -1,2 0,2 0,3 1,4l0 0c3,3 7,6 10,9l1 1c2,1 4,2 6,2 2,0 4,0 6,-1l0 0c2,-1 3,-1 5,-1 2,-1 4,-1 7,-1l0 -19zm14 -4l-13 0 0 30 13 0 0 -30zm-6 28c-1,0 -2,0 -2,-1 0,-1 1,-1 2,-1 0,0 2,0 2,1 0,1 -2,1 -2,1z"/>
  </g>
 </g>
</svg>
