<?xml version="1.0" encoding="UTF-8"?>
<!DOCTYPE svg PUBLIC "-//W3C//DTD SVG 1.1//EN" "http://www.w3.org/Graphics/SVG/1.1/DTD/svg11.dtd">
<!-- Creator: CorelDRAW X7 -->
<svg xmlns="http://www.w3.org/2000/svg" xml:space="preserve" width="660px" height="130px" version="1.1" shape-rendering="geometricPrecision" text-rendering="geometricPrecision" image-rendering="optimizeQuality" fill-rule="evenodd" clip-rule="evenodd"
viewBox="0 0 660 130"
 xmlns:xlink="http://www.w3.org/1999/xlink">
 <g id="Layer_x0020_1">
  <metadata id="CorelCorpID_0Corel-Layer"/>
  <rect fill="none" width="660" height="130"/>
  <g id="_1708268727104">
   <path fill="#333333" fill-rule="nonzero" d="M115 70l35 0 0 -10c0,-1 0,-1 0,-1 -1,-1 -1,-1 -1,-1l-33 0c0,0 0,0 -1,1 0,0 0,0 0,1l0 10zm108 -26l0 -5c0,-3 1,-5 2,-8 1,-2 3,-4 5,-5 3,-1 5,-2 8,-2l23 0 0 14 -23 0c0,0 0,0 -1,0 0,1 0,1 0,1l0 5 24 0 0 14 -24 0 0 48 -14 0 0 0 0 -48 -34 0c0,0 0,0 0,1 -1,0 -1,0 -1,1l0 38 0 8 0 0 -72 0 0 0c-3,0 -5,-1 -7,-2 -3,-1 -4,-3 -6,-5 -1,-3 -2,-5 -2,-8l0 -32c0,-3 1,-5 2,-7 2,-3 3,-4 6,-6 2,-1 4,-2 7,-2l33 0c3,0 5,1 8,2 2,2 4,3 5,6 1,2 2,4 2,7l0 23 -49 0 0 9c0,0 0,0 0,1 1,0 1,0 1,0l58 0 0 -33c0,-3 1,-5 2,-7 2,-3 3,-4 6,-6 2,-1 4,-2 7,-2l34 0zm-198 -15l14 0 0 77 -14 0 0 -77zm50 77l19 0 -34 -41 30 -36 -19 0 -30 36 34 41z"/>
   <path fill="#FF6600" fill-rule="nonzero" d="M277 106l0 -76 62 0c3,0 5,0 8,2 2,1 4,3 5,5 1,2 2,5 2,7l0 21c0,3 -1,5 -2,7 -1,3 -3,4 -5,6 -3,1 -5,2 -8,2l-48 0 0 26 -14 0zm16 -40l45 0c1,0 1,0 1,-1 1,0 1,0 1,-1l0 -19c0,-1 0,-1 -1,-1 0,0 0,0 -1,0l-45 0c-1,0 -1,0 -1,0 0,0 -1,0 -1,1l0 19c0,1 1,1 1,1 0,1 0,1 1,1z"/>
   <path id="1" fill="#FF6600" fill-rule="nonzero" d="M376 106c-3,0 -5,-1 -8,-2 -2,-1 -4,-3 -5,-5 -1,-3 -2,-5 -2,-8l0 -32c0,-3 1,-5 2,-7 1,-3 3,-4 5,-6 3,-1 5,-2 8,-2l33 0c3,0 5,1 7,2 3,2 4,3 6,6 1,2 2,4 2,7l0 32c0,3 -1,5 -2,8 -2,2 -3,4 -6,5 -2,1 -4,2 -7,2l-33 0 0 0zm0 -14l32 0c1,0 1,0 1,0 1,-1 1,-1 1,-1l0 -31c0,-1 0,-1 -1,-1 0,-1 0,-1 -1,-1l-32 0c0,0 0,0 -1,1 0,0 0,0 0,1l0 31c0,0 0,0 0,1 1,0 1,0 1,0z"/>
   <path id="2" fill="#FF6600" fill-rule="nonzero" d="M432 106l0 0 0 -47c0,-3 1,-5 2,-7 2,-3 4,-4 6,-6 2,-1 4,-2 7,-2l34 0 0 14 -33 0c-1,0 -1,0 -1,1 -1,0 -1,0 -1,1l0 46 -14 0z"/>
   <path id="3" fill="#FF6600" fill-rule="nonzero" d="M503 106c-3,0 -6,-1 -8,-2 -2,-1 -4,-3 -5,-5 -1,-3 -2,-5 -2,-8l0 -66 14 0 0 19 24 0 0 14 -24 0 0 33c0,0 0,0 0,1 1,0 1,0 1,0l23 0 0 14 -23 0z"/>
   <path id="4" fill="#FF6600" fill-rule="nonzero" d="M551 106c-2,0 -5,-1 -7,-2 -2,-1 -4,-3 -5,-5 -2,-3 -2,-5 -2,-8l0 -23 48 0 0 -8c0,-1 0,-1 0,-1 0,-1 0,-1 -1,-1l-47 0 0 -14 48 0c2,0 5,1 7,2 2,2 4,3 5,6 2,2 2,4 2,7l0 47 -48 0zm1 -14l33 0 0 -11 -34 0 0 10c0,0 0,0 0,1 0,0 1,0 1,0z"/>
   <path id="5" fill="#FF6600" fill-rule="nonzero" d="M623 106c-3,0 -5,-1 -7,-2 -3,-1 -4,-3 -6,-5 -1,-3 -2,-5 -2,-8l0 -67 14 0 0 67c0,0 0,0 0,1 1,0 1,0 2,0l11 0 0 14 -12 0 0 0z"/>
  </g>
 </g>
</svg>
