<?xml version="1.0" encoding="UTF-8"?>
<!DOCTYPE svg PUBLIC "-//W3C//DTD SVG 1.1//EN" "http://www.w3.org/Graphics/SVG/1.1/DTD/svg11.dtd">
<!-- Creator: CorelDRAW X7 -->
<svg xmlns="http://www.w3.org/2000/svg" xml:space="preserve" width="500px" height="140px" version="1.1" shape-rendering="geometricPrecision" text-rendering="geometricPrecision" image-rendering="optimizeQuality" fill-rule="evenodd" clip-rule="evenodd"
viewBox="0 0 500 140"
 xmlns:xlink="http://www.w3.org/1999/xlink">
 <g id="Layer_x0020_1">
  <metadata id="CorelCorpID_0Corel-Layer"/>
  <rect fill="none" width="500" height="140"/>
  <g id="_1708136005872">
   <path fill="#FF6600" fill-rule="nonzero" d="M87 92l0 -43 14 -17 52 0c3,0 6,0 9,2 2,1 4,3 5,6 2,2 3,5 3,8l0 22c0,3 -1,5 -3,8 -1,2 -3,4 -5,6 -3,1 -6,2 -9,2l-51 0 0 24 -15 -18zm16 -21l50 0c0,0 1,0 1,-1 0,0 0,0 0,-1l0 -21c0,0 0,-1 0,-1 0,0 -1,0 -1,0l-50 0c0,0 -1,0 -1,0 0,0 0,1 0,1l0 21c0,1 0,1 0,1 0,1 1,1 1,1zm90 43c-3,0 -5,0 -8,-2 -2,-1 -4,-3 -5,-6 -2,-2 -3,-5 -3,-8l0 -34c0,-3 1,-6 3,-8 1,-3 3,-5 5,-6 3,-2 5,-2 8,-2l36 0c3,0 6,0 8,2 3,1 5,3 6,6 1,2 2,5 2,8l0 34c0,3 -1,6 -2,8 -1,3 -3,5 -6,6 -2,2 -5,2 -8,2l-36 0 0 0zm1 -15l35 0c0,0 0,0 1,0 0,0 0,-1 0,-1l0 -34c0,0 0,-1 0,-1 -1,0 -1,0 -1,0l-35 0c-1,0 -1,0 -1,0 -1,0 -1,1 -1,1l0 34c0,0 0,1 1,1 0,0 0,0 1,0zm60 15l0 0 0 -50c0,-3 1,-6 3,-8 1,-3 3,-5 5,-6 3,-2 5,-2 8,-2l37 0 0 15 -36 0c0,0 -1,0 -1,0 0,0 -1,1 0,1l-1 50 -15 0zm77 0c-3,0 -6,0 -8,-2 -3,-1 -5,-3 -6,-6 -2,-2 -2,-5 -2,-8l0 -71 15 0 0 21 26 0 0 15 -26 0 0 35c0,0 0,1 0,1 0,0 1,0 1,0l25 0 0 15 -25 0zm52 0c-3,0 -5,0 -8,-2 -2,-1 -4,-3 -6,-6 -1,-2 -2,-5 -2,-8l0 -24 53 -1 0 -9c0,0 0,-1 0,-1 -1,0 -1,0 -1,0l-52 0 0 -15 52 0c3,0 6,0 8,2 3,1 5,3 6,6 1,2 2,5 2,8l0 50 -52 0zm1 -15l36 0 0 -12 -38 0 0 11c0,0 0,1 1,1 0,0 0,0 1,0zm76 15c-2,0 -5,0 -7,-2 -3,-1 -5,-3 -6,-6 -2,-2 -2,-5 -2,-8l0 -72 15 0 0 72c0,0 0,1 0,1 0,0 1,0 1,0l13 0 0 15 -14 0 0 0z"/>
   <path fill="#4D4D4D" fill-rule="nonzero" d="M26 32l15 0 0 82 -15 0 0 -82zm55 82l20 0 -37 -44 32 -38 -20 0 -32 38 37 44z"/>
  </g>
 </g>
</svg>
