<?xml version="1.0" encoding="UTF-8"?>
<!DOCTYPE svg PUBLIC "-//W3C//DTD SVG 1.1//EN" "http://www.w3.org/Graphics/SVG/1.1/DTD/svg11.dtd">
<!-- Creator: CorelDRAW X7 -->
<svg xmlns="http://www.w3.org/2000/svg" xml:space="preserve" width="64px" height="64px" version="1.1" shape-rendering="geometricPrecision" text-rendering="geometricPrecision" image-rendering="optimizeQuality" fill-rule="evenodd" clip-rule="evenodd"
viewBox="0 0 64 64"
 xmlns:xlink="http://www.w3.org/1999/xlink">
 <g id="Layer_x0020_1">
  <metadata id="CorelCorpID_0Corel-Layer"/>
  <g id="_1708518510576">
   <path fill="#333333" d="M60 64l-56 0c-2,0 -4,-2 -4,-4l0 -56c0,-2 2,-4 4,-4l56 0c2,0 4,2 4,4l0 56c0,2 -2,4 -4,4z"/>
   <path fill="#FF6600" d="M7 56l35 0 0 -28 -35 0 0 28zm36 1l-37 0c0,0 -1,0 -1,-1l0 -29c0,-1 1,-1 1,-1l18 -14c0,0 1,0 1,0l0 0 17 13 0 -17c0,-1 0,-1 1,-1l15 0c0,0 1,0 1,1l0 48c0,1 -1,1 -1,1l-15 0zm1 -30l0 29 13 0 0 -48 -13 0 0 19zm-35 -1l31 0 -16 -12 -15 12zm2 9c-1,0 -1,0 -1,-1 0,0 0,-1 1,-1l6 0c0,0 0,1 0,1 0,1 0,1 0,1l-6 0zm0 9c-1,0 -1,0 -1,0 0,-1 0,-1 1,-1l6 0c0,0 0,0 0,1 0,0 0,0 0,0l-6 0zm10 -9c-1,0 -1,0 -1,-1 0,0 0,-1 1,-1l6 0c0,0 1,1 1,1 0,1 -1,1 -1,1l-6 0zm0 9c-1,0 -1,0 -1,0 0,-1 0,-1 1,-1l6 0c0,0 1,0 1,1 0,0 -1,0 -1,0l-6 0zm10 -9c0,0 -1,0 -1,-1 0,0 1,-1 1,-1l6 0c0,0 1,1 1,1 0,1 -1,1 -1,1l-6 0zm0 9c0,0 -1,0 -1,0 0,-1 1,-1 1,-1l6 0c0,0 1,0 1,1 0,0 -1,0 -1,0l-6 0zm15 3c0,0 -1,-1 -1,-1 0,-1 1,-1 1,-1l8 0c0,0 1,0 1,1 0,0 -1,1 -1,1l-8 0zm0 -9c0,0 -1,0 -1,0 0,-1 1,-1 1,-1l8 0c0,0 1,0 1,1 0,0 -1,0 -1,0l-8 0zm0 -8c0,0 -1,0 -1,-1 0,0 1,0 1,0l8 0c0,0 1,0 1,0 0,1 -1,1 -1,1l-8 0zm0 -8c0,0 -1,0 -1,-1 0,0 1,-1 1,-1l8 0c0,0 1,1 1,1 0,1 -1,1 -1,1l-8 0zm0 -8c0,0 -1,0 -1,-1 0,0 1,-1 1,-1l8 0c0,0 1,1 1,1 0,1 -1,1 -1,1l-8 0z"/>
  </g>
 </g>
</svg>
