<?xml version="1.0" encoding="UTF-8"?>
<!DOCTYPE svg PUBLIC "-//W3C//DTD SVG 1.1//EN" "http://www.w3.org/Graphics/SVG/1.1/DTD/svg11.dtd">
<!-- Creator: CorelDRAW X7 -->
<svg xmlns="http://www.w3.org/2000/svg" xml:space="preserve" width="430px" height="130px" version="1.1" shape-rendering="geometricPrecision" text-rendering="geometricPrecision" image-rendering="optimizeQuality" fill-rule="evenodd" clip-rule="evenodd"
viewBox="0 0 430 130"
 xmlns:xlink="http://www.w3.org/1999/xlink">
 <g id="Layer_x0020_1">
  <metadata id="CorelCorpID_0Corel-Layer"/>
  <rect fill="none" width="430" height="130"/>
  <g id="_1708518513744">
   <path fill="#FF6600" fill-rule="nonzero" d="M92 94l11 0c0,0 0,0 0,0l16 0 34 0c0,0 1,0 1,0 0,-1 0,-1 0,-1l0 -16c0,-1 0,-1 0,-1 0,0 -1,0 -1,0l-50 0c-3,0 -6,-1 -8,-3 -3,-1 -5,-3 -6,-5 -2,-3 -2,-6 -2,-9l0 -16 14 -16c0,0 1,-1 2,-1l50 0c3,0 6,1 8,3 3,1 5,3 6,5 2,3 2,6 2,8l0 7 -15 0 0 -6c0,0 0,-1 0,-1 0,0 -1,0 -1,0l-50 0c0,0 0,0 -1,0 0,0 0,1 0,1l0 16c0,0 0,1 0,1 1,0 1,0 1,0l50 0c3,0 6,1 8,2 3,2 5,4 6,6 2,3 2,5 2,8l0 17c0,3 0,6 -2,8 -1,3 -3,5 -6,6 -2,2 -5,2 -8,2l-48 0 -13 -15zm103 15c-3,0 -6,0 -8,-2 -2,-1 -4,-3 -6,-6 -1,-2 -2,-5 -2,-8l0 -50 15 0 0 50c0,0 0,1 1,1 0,0 0,0 1,0l34 0c1,0 1,0 1,0 1,0 1,-1 1,-1l0 -50 15 0 0 50c0,3 -1,6 -2,8 -2,3 -4,5 -6,6 -2,2 -5,2 -8,2l-36 0 0 0zm64 0l0 0 0 -66 15 0 0 66 -15 0zm0 -73l0 0 0 -15 15 0 0 15 -15 0zm43 73c-3,0 -6,0 -8,-2 -2,-1 -4,-3 -6,-6 -1,-2 -2,-5 -2,-8l0 -71 15 0 0 21 26 0 0 15 -26 0 0 35c0,0 0,1 1,1 0,0 0,0 1,0l24 0 0 15 -25 0zm50 0c-3,0 -5,0 -8,-2 -2,-1 -4,-3 -5,-6 -2,-2 -3,-5 -3,-8l0 -35c0,-2 1,-5 3,-7 1,-3 3,-5 5,-6 3,-2 5,-2 8,-2l36 0c3,0 6,0 8,2 3,1 5,3 6,5 1,3 2,6 2,8l0 25 -53 1 0 9c0,0 0,1 1,1 0,0 0,0 1,0l51 0 0 15 -52 0 0 0zm-1 -39l38 0 0 -11c0,0 0,-1 0,-1 -1,0 -1,0 -1,0l-35 0c-1,0 -1,0 -1,0 -1,0 -1,1 -1,1l0 11z"/>
   <path fill="#4D4D4D" fill-rule="nonzero" d="M26 26l15 0 0 83 -15 0 0 -83zm54 83l21 0 -37 -44 32 -39 -20 0 -33 39 37 44z"/>
  </g>
 </g>
</svg>
