<?xml version="1.0" encoding="UTF-8"?>
<!DOCTYPE svg PUBLIC "-//W3C//DTD SVG 1.1//EN" "http://www.w3.org/Graphics/SVG/1.1/DTD/svg11.dtd">
<!-- Creator: CorelDRAW X7 -->
<svg xmlns="http://www.w3.org/2000/svg" xml:space="preserve" width="600px" height="130px" version="1.1" shape-rendering="geometricPrecision" text-rendering="geometricPrecision" image-rendering="optimizeQuality" fill-rule="evenodd" clip-rule="evenodd"
viewBox="0 0 600 130"
 xmlns:xlink="http://www.w3.org/1999/xlink">
 <g id="Layer_x0020_1">
  <metadata id="CorelCorpID_0Corel-Layer"/>
  <g id="_1708518540592">
   <path fill="#999999" fill-rule="nonzero" d="M116 70l35 0 0 -11c0,0 0,0 0,0 -1,-1 -1,-1 -1,-1l-33 0c0,0 0,0 -1,1 0,0 0,0 0,0l0 11zm108 -26l0 -5c0,-3 1,-5 2,-8 1,-2 3,-4 5,-5 3,-1 5,-2 8,-2l23 0 0 14 -23 0c0,0 0,0 -1,0 0,1 0,1 0,1l0 5 24 0 0 14 -24 0 0 48 -14 0 0 0 0 -48 -34 0c0,0 0,0 0,1 -1,0 -1,0 -1,0l0 39 0 8 0 0 -72 0 0 0c-3,0 -5,-1 -8,-2 -2,-1 -4,-3 -5,-5 -1,-3 -2,-5 -2,-8l0 -32c0,-3 1,-5 2,-7 1,-3 3,-4 5,-6 3,-1 5,-2 8,-2l33 0c3,0 5,1 8,2 2,2 4,3 5,6 1,2 2,4 2,7l0 23 -49 0 0 9c0,0 0,0 0,1 1,0 1,0 1,0l58 0 0 -33c0,-3 1,-5 2,-7 2,-3 3,-4 6,-6 2,-1 4,-2 7,-2l34 0zm-199 -15l15 0 0 77 -15 0 0 -77zm51 77l19 0 -35 -41 31 -36 -19 0 -30 36 34 41z"/>
   <path fill="#FF6600" fill-rule="nonzero" d="M293 106c-3,0 -5,-1 -7,-2 -3,-1 -4,-3 -6,-5 -1,-3 -2,-5 -2,-8l0 -6 14 0 0 6c0,0 0,0 1,1 0,0 0,0 1,0l45 0c1,0 1,0 1,0 1,-1 1,-1 1,-1l0 -15c0,0 0,-1 -1,-1 0,0 0,0 -1,0l-46 0c-3,0 -5,-1 -7,-2 -3,-2 -4,-3 -6,-6 -1,-2 -2,-4 -2,-7l0 -16c0,-3 1,-5 2,-7 2,-3 3,-4 6,-6 2,-1 4,-2 7,-2l47 0c3,0 5,1 8,2 2,2 4,3 5,6 1,2 2,4 2,7l0 6 -14 0 0 -5c0,-1 0,-1 -1,-1 0,0 0,-1 -1,-1l-45 0c-1,0 -1,1 -1,1 -1,0 -1,0 -1,1l0 14c0,1 0,1 1,1 0,1 0,1 1,1l46 0c3,0 5,0 8,2 2,1 4,3 5,5 1,2 2,5 2,7l0 16c0,3 -1,5 -2,8 -1,2 -3,4 -5,5 -3,1 -5,2 -8,2l-47 0zm88 0c-3,0 -5,-1 -8,-2 -2,-1 -4,-3 -5,-5 -1,-3 -2,-5 -2,-8l0 -47 14 0 0 47c0,0 0,0 0,1 1,0 1,0 1,0l33 0c0,0 0,0 1,0 0,-1 0,-1 0,-1l0 -47 14 0 0 47c0,3 -1,5 -2,8 -1,2 -3,4 -5,5 -3,1 -5,2 -8,2l-33 0 0 0zm59 0l0 0 0 -62 14 0 0 62 -14 0zm0 -68l0 0 0 -14 14 0 0 14 -14 0zm40 68c-3,0 -5,-1 -7,-2 -3,-1 -4,-3 -6,-5 -1,-3 -2,-5 -2,-8l0 -66 14 0 0 19 24 0 0 14 -24 0 0 33c0,0 0,0 1,1 0,0 0,0 1,0l22 0 0 14 -23 0zm46 0c-2,0 -5,-1 -7,-2 -2,-1 -4,-3 -5,-5 -2,-3 -2,-5 -2,-8l0 -32c0,-3 0,-5 2,-7 1,-3 3,-4 5,-6 2,-1 5,-2 7,-2l34 0c3,0 5,1 7,2 2,2 4,3 6,6 1,2 2,4 2,7l0 23 -49 0 0 9c0,0 0,0 0,1 0,0 1,0 1,0l48 0 0 14 -49 0 0 0zm0 -36l35 0 0 -11c0,0 -1,0 -1,0 0,-1 0,-1 -1,-1l-32 0c0,0 -1,0 -1,1 0,0 0,0 0,0l0 11z"/>
  </g>
  <rect fill="none" width="600" height="130"/>
 </g>
</svg>
