<?xml version="1.0" encoding="UTF-8"?>
<!DOCTYPE svg PUBLIC "-//W3C//DTD SVG 1.1//EN" "http://www.w3.org/Graphics/SVG/1.1/DTD/svg11.dtd">
<!-- Creator: CorelDRAW X7 -->
<svg xmlns="http://www.w3.org/2000/svg" xml:space="preserve" width="64px" height="64px" version="1.1" shape-rendering="geometricPrecision" text-rendering="geometricPrecision" image-rendering="optimizeQuality" fill-rule="evenodd" clip-rule="evenodd"
viewBox="0 0 64 64"
 xmlns:xlink="http://www.w3.org/1999/xlink">
 <g id="Layer_x0020_1">
  <metadata id="CorelCorpID_0Corel-Layer"/>
  <path fill="#333333" d="M60 64l-56 0c-2,0 -4,-2 -4,-4l0 -56c0,-2 2,-4 4,-4l56 0c2,0 4,2 4,4l0 56c0,2 -2,4 -4,4z"/>
  <path fill="#FF6600" fill-rule="nonzero" d="M26 20l29 0c0,0 0,0 1,0l0 0c0,0 0,0 0,0l0 0c0,0 0,0 0,0l0 0c-1,0 -1,0 -1,0l-29 0c0,0 0,0 0,0l0 0c-1,0 -1,0 -1,0l0 0c0,0 0,0 1,0l0 0c0,0 0,0 0,0zm-5 10l0 0 0 0 0 0 0 0 0 0 0 0 0 0 0 0 0 0 0 0 0 0 0 0 0 0 0 0 0 0 0 0 0 0 0 0 0 0 0 0 0 0 0 0 0 0 0 0 0 0 0 0 0 0 0 0 0 0 0 0 0 0 0 0 0 0 0 0 0 0 0 0 0 0 0 0 0 0 0 0 0 0 0 0 0 0 0 0 0 0 0 0 0 0 0 0 0 0 0 0 0 0 1 0 0 0 0 0 0 0 0 0 0 0 0 0 0 0 0 0 0 0 0 0 0 0 0 0 0 0 0 0 0 0 0 0 0 0 0 0 0 0 0 0 0 0 0 0 0 0 0 0 0 0 0 0 0 0 0 0 0 0 0 0 0 0 0 0 0 0 0 0 0 0 0 0 0 0 0 0 0 0 0 0 0 0 0 0 0 0 0 0 0 0 7 7c0,0 0,0 0,1l0 2c1,-1 2,-1 3,-1 0,0 0,0 1,0 0,0 -1,-1 -1,-1l0 0 0 0c-2,-2 -3,-5 -3,-7l0 -2c-1,0 -2,0 -2,-1 -1,0 -1,-1 -1,-2 0,-1 0,-2 1,-3 0,-1 1,-1 1,-1l-2 0c-1,0 -1,0 -2,-1l0 0c0,0 0,0 0,-1l0 0c0,0 0,-1 0,-1l0 0c1,-1 1,-1 2,-1 0,-3 2,-6 4,-9 3,-2 7,-3 10,-3l0 0 1 0 0 0 0 0c3,0 7,1 10,3 2,3 4,6 4,9 1,0 1,0 2,1l0 0c0,0 0,1 0,1l0 0c0,1 0,1 0,1l0 0c-1,1 -1,1 -2,1l-2 0c0,0 1,0 1,1 1,1 2,2 2,3 0,1 -1,2 -2,2 0,1 -1,1 -2,1l0 2c0,2 -1,5 -3,7 0,0 0,0 0,0 0,0 0,1 -1,1 1,0 1,0 1,0 3,0 5,2 7,3 1,2 3,5 3,7l0 9c0,0 -1,0 -1,0l-17 0 -13 0 -5 0 -17 0c0,0 -1,0 -1,0l0 -28c0,0 1,0 1,0l15 0zm8 11l0 16 10 0 -5 -6c-1,0 -1,0 -1,-1l2 -4 -4 -2 0 0c0,0 0,-1 0,-1l2 -3c0,0 -1,0 -1,0 -1,0 -2,1 -3,1zm-20 -4c-1,0 -1,-1 -1,-1 0,0 0,-1 1,-1l7 0c0,0 1,1 1,1 0,0 -1,1 -1,1l-7 0zm2 7c0,0 0,0 0,-1 0,0 0,0 0,0l12 0c0,0 1,0 1,0 0,1 -1,1 -1,1l-12 0zm0 5c0,0 0,0 0,-1 0,0 0,-1 0,-1l12 0c0,0 1,1 1,1 0,1 -1,1 -1,1l-12 0zm0 5c0,0 0,-1 0,-1 0,0 0,-1 0,-1l9 0c0,0 0,1 0,1 0,0 0,1 0,1l-9 0zm11 -22l0 5 4 0 -4 -5zm5 6l-6 0c0,0 -1,0 -1,0l0 -7 -13 0 0 26 20 0 0 -19zm27 -20c0,-3 -2,-5 -4,-7 -3,-3 -6,-4 -9,-4l0 0 0 0 -1 0c-3,0 -6,1 -9,4 -2,2 -4,4 -4,7l27 0zm-20 22l-1 3 4 2c0,1 0,1 0,1l0 0 -2 5 6 6 5 -6 -2 -5c0,0 0,0 0,-1l4 -2 -1 -3c-1,0 -1,1 -1,1 -2,0 -3,1 -5,1 -3,0 -4,-1 -6,-1 0,0 0,-1 -1,-1zm14 0l2 3 0 0c0,0 0,1 0,1l-4 2 2 4 0 0c0,1 0,1 -1,1l-5 6 15 0 0 -8c0,-2 -1,-4 -2,-6 -2,-1 -4,-2 -6,-3 0,0 -1,0 -1,0zm4 -12c1,0 1,0 1,-1 1,0 1,-1 1,-1 0,-1 0,-2 -1,-2 0,0 0,-1 -1,-1l0 5zm-23 -5c-1,0 -1,1 -1,1 -1,0 -1,1 -1,2 0,0 0,1 1,1 0,1 0,1 1,1l0 -5zm1 -1l0 0 0 7 0 2c0,2 1,4 3,6l0 0c2,2 5,3 8,3 2,0 5,-1 7,-3 0,0 0,0 0,0 2,-2 3,-4 3,-6l0 -2 0 -7 0 0 -10 0 -11 0z"/>
 </g>
</svg>
