<?xml version="1.0" encoding="UTF-8"?>
<!DOCTYPE svg PUBLIC "-//W3C//DTD SVG 1.1//EN" "http://www.w3.org/Graphics/SVG/1.1/DTD/svg11.dtd">
<!-- Creator: CorelDRAW X7 -->
<svg xmlns="http://www.w3.org/2000/svg" xml:space="preserve" width="550px" height="130px" version="1.1" shape-rendering="geometricPrecision" text-rendering="geometricPrecision" image-rendering="optimizeQuality" fill-rule="evenodd" clip-rule="evenodd"
viewBox="0 0 550 130"
 xmlns:xlink="http://www.w3.org/1999/xlink">
 <g id="Layer_x0020_1">
  <metadata id="CorelCorpID_0Corel-Layer"/>
  <rect fill="none" width="550" height="130"/>
  <g id="_1708464472288">
   <polygon fill="#333333" fill-rule="nonzero" points="77,109 97,109 60,65 92,27 72,27 40,65 "/>
   <polygon fill="#333333" fill-rule="nonzero" points="23,27 38,27 38,109 23,109 "/>
   <path fill="#FF6600" d="M105 108l0 0 -31 -54 10 -12 28 48 37 -63 17 0 -47 81 -14 0zm-43 -74l-4 -7 10 0 -6 7zm123 74c-3,0 -5,0 -8,-2 -2,-1 -4,-3 -5,-5 -2,-3 -2,-5 -2,-8l0 -34c0,-3 0,-6 2,-8 1,-3 3,-4 5,-6 3,-1 5,-2 8,-2l35 0c3,0 6,1 8,2 3,1 5,3 6,6 1,2 2,5 2,8l0 24 -52 0 0 9c0,1 0,1 1,1 0,1 0,1 1,1l50 0 0 14 -51 0 0 0zm-1 -38l37 0 0 -11c0,0 0,-1 0,-1 0,0 -1,0 -1,0l-34 0c-1,0 -1,0 -1,0 -1,0 -1,1 -1,1l0 11zm64 38l0 0 0 -65 51 0c3,0 6,1 8,2 2,2 4,3 6,6 1,2 2,5 2,8l0 49 -15 0 0 -49c0,0 0,-1 -1,-1 0,0 0,0 -1,0l-34 0c0,0 0,0 -1,0 0,0 0,1 0,1l0 49 -15 0zm91 0c-3,0 -6,0 -8,-2 -2,-1 -4,-3 -6,-5 -1,-3 -2,-5 -2,-8l0 -34c0,-3 1,-6 2,-8 2,-3 4,-4 6,-6 2,-1 5,-2 8,-2l36 0 0 -21 15 0 0 86 -51 0 0 0zm0 -14l35 0c0,0 0,0 1,-1 0,0 0,0 0,-1l0 -33c0,0 0,-1 0,-1 -1,0 -1,0 -1,0l-35 0c0,0 0,0 -1,0 0,0 0,1 0,1l0 33c0,1 0,1 0,1 1,1 1,1 1,1zm76 14c-3,0 -6,0 -8,-2 -2,-1 -4,-3 -6,-5 -1,-3 -2,-5 -2,-8l0 -34c0,-3 1,-6 2,-8 2,-3 4,-4 6,-6 2,-1 5,-2 8,-2l35 0c3,0 6,1 8,2 2,1 4,3 6,6 1,2 2,5 2,8l0 34c0,3 -1,5 -2,8 -2,2 -4,4 -6,5 -2,2 -5,2 -8,2l-35 0 0 0zm0 -14l35 0c0,0 0,0 0,-1 1,0 1,0 1,-1l0 -33c0,0 0,-1 -1,-1 0,0 0,0 0,0l-35 0c0,0 0,0 -1,0 0,0 0,1 0,1l0 33c0,1 0,1 0,1 1,1 1,1 1,1zm60 14l0 0 0 -49c0,-3 1,-6 2,-8 2,-3 3,-4 6,-6 2,-1 5,-2 8,-2l36 0 0 15 -36 0c0,0 -1,0 -1,0 0,0 0,1 0,1l0 49 -15 0z"/>
  </g>
 </g>
</svg>
