<?xml version="1.0" encoding="UTF-8"?>
<!DOCTYPE svg PUBLIC "-//W3C//DTD SVG 1.1//EN" "http://www.w3.org/Graphics/SVG/1.1/DTD/svg11.dtd">
<!-- Creator: CorelDRAW X7 -->
<svg xmlns="http://www.w3.org/2000/svg" xml:space="preserve" width="1920px" height="1000px" version="1.1" shape-rendering="geometricPrecision" text-rendering="geometricPrecision" image-rendering="optimizeQuality" fill-rule="evenodd" clip-rule="evenodd"
viewBox="0 0 1920 1000"
 xmlns:xlink="http://www.w3.org/1999/xlink">
 <g id="Layer_x0020_1">
  <metadata id="CorelCorpID_0Corel-Layer"/>
  <g id="btn_cut">
   <path fill="white" fill-rule="nonzero" d="M1128 669l8 0 0 -3c0,0 0,0 0,0 0,0 0,0 -1,0l-7 0c0,0 0,0 0,0 0,0 0,0 0,0l0 3zm23 -6l0 -1c0,-1 1,-1 1,-2 0,0 1,0 1,-1 0,0 1,0 2,0l5 0 0 3 -5 0c0,0 0,0 0,0 -1,0 -1,0 -1,0l0 1 6 0 0 3 -6 0 0 10 -3 0 0 0 0 -10 -7 0c0,0 0,0 0,0 0,0 0,0 0,0l0 9 0 1 0 0 -16 0 0 0c0,0 -1,0 -1,0 -1,0 -1,-1 -1,-1 -1,-1 -1,-1 -1,-2l0 -7c0,0 0,-1 1,-1 0,-1 0,-1 1,-1 0,-1 1,-1 1,-1l8 0c0,0 1,0 1,1 1,0 1,0 1,1 1,0 1,1 1,1l0 5 -11 0 0 2c0,0 0,0 0,0 0,0 0,0 0,0l13 0 0 -7c0,0 0,-1 0,-1 1,-1 1,-1 2,-1 0,-1 1,-1 1,-1l7 0zm-42 -3l3 0 0 16 -3 0 0 -16zm11 16l4 0 -8 -8 7 -8 -4 0 -7 8 8 8z"/>
   <path fill="#FF6600" fill-rule="nonzero" d="M1166 676c0,0 -1,0 -1,0 -1,0 -1,-1 -1,-1 -1,-1 -1,-1 -1,-2l0 -10c0,0 0,-1 1,-1 0,-1 0,-1 1,-2 0,0 1,0 1,0l14 0 0 3 -13 0c0,0 0,0 -1,0 0,0 0,1 0,1l0 9c0,0 0,0 0,0 1,0 1,0 1,0l13 0 0 3 -14 0zm19 0c-1,0 -1,0 -2,0 0,0 0,-1 -1,-1 0,-1 0,-1 0,-2l0 -10 3 0 0 10c0,0 0,0 0,0 0,0 0,0 0,0l7 0c0,0 0,0 0,0 0,0 0,0 0,0l0 -10 3 0 0 10c0,1 0,1 0,2 0,0 -1,1 -1,1 -1,0 -1,0 -2,0l-7 0 0 0zm16 0c-1,0 -2,0 -2,0 -1,0 -1,-1 -1,-1 -1,-1 -1,-1 -1,-2l0 -14 3 0 0 4 6 0 0 3 -6 0 0 7c0,0 0,0 0,0 0,0 1,0 1,0l5 0 0 3 -5 0z"/>
  </g>
 </g>
</svg>
