<?xml version="1.0" encoding="UTF-8"?>
<!DOCTYPE svg PUBLIC "-//W3C//DTD SVG 1.1//EN" "http://www.w3.org/Graphics/SVG/1.1/DTD/svg11.dtd">
<!-- Creator: CorelDRAW X7 -->
<svg xmlns="http://www.w3.org/2000/svg" xml:space="preserve" width="1920px" height="1000px" version="1.1" shape-rendering="geometricPrecision" text-rendering="geometricPrecision" image-rendering="optimizeQuality" fill-rule="evenodd" clip-rule="evenodd"
viewBox="0 0 1920 1000"
 xmlns:xlink="http://www.w3.org/1999/xlink">
 <g id="Layer_x0020_1">
  <metadata id="CorelCorpID_0Corel-Layer"/>
  <g id="btn_stock">
   <path fill="white" fill-rule="nonzero" d="M1312 669l7 0 0 -3c0,0 0,0 0,0 0,0 0,0 0,0l-7 0c0,0 0,0 0,0 0,0 0,0 0,0l0 3zm23 -6l0 -1c0,-1 0,-1 1,-2 0,0 0,0 1,-1 0,0 1,0 1,0l5 0 0 3 -5 0c0,0 0,0 0,0 0,0 0,0 0,0l0 1 5 0 0 3 -5 0 0 10 -3 0 0 0 0 -10 -7 0c0,0 0,0 0,0 0,0 0,0 0,0l0 9 0 1 0 0 -16 0 0 0c0,0 -1,0 -1,0 -1,0 -1,-1 -2,-1 0,-1 0,-1 0,-2l0 -7c0,0 0,-1 0,-1 1,-1 1,-1 2,-1 0,-1 1,-1 1,-1l7 0c1,0 1,0 2,1 0,0 1,0 1,1 0,0 0,1 0,1l0 5 -10 0 0 2c0,0 0,0 0,0 0,0 0,0 0,0l13 0 0 -7c0,0 0,-1 0,-1 0,-1 1,-1 1,-1 1,-1 1,-1 2,-1l7 0zm-43 -3l4 0 0 16 -4 0 0 -16zm11 16l4 0 -7 -8 6 -8 -4 0 -6 8 7 8z"/>
   <path fill="#FF6600" fill-rule="nonzero" d="M1350 676c-1,0 -1,0 -2,0 0,0 0,-1 -1,-1 0,-1 0,-1 0,-2l0 -1 3 0 0 1c0,0 0,0 0,0 0,0 0,0 0,0l10 0c0,0 0,0 0,0 0,0 0,0 0,0l0 -3c0,0 0,0 0,0 0,0 0,0 0,0l-10 0c-1,0 -1,0 -2,-1 0,0 0,0 -1,-1 0,0 0,-1 0,-1l0 -4c0,0 0,-1 0,-1 1,-1 1,-1 1,-2 1,0 1,0 2,0l10 0c1,0 1,0 2,0 0,1 1,1 1,2 0,0 0,1 0,1l0 1 -3 0 0 -1c0,0 0,0 0,0 0,0 0,0 0,0l-10 0c0,0 0,0 0,0 0,0 0,0 0,0l0 3c0,0 0,1 0,1 0,0 0,0 0,0l10 0c1,0 1,0 2,0 0,0 1,1 1,1 0,1 0,1 0,2l0 3c0,1 0,1 0,2 0,0 -1,1 -1,1 -1,0 -1,0 -2,0l-10 0zm19 0c-1,0 -1,0 -2,0 0,0 -1,-1 -1,-1 0,-1 0,-1 0,-2l0 -14 3 0 0 4 5 0 0 3 -5 0 0 7c0,0 0,0 0,0 0,0 0,0 0,0l5 0 0 3 -5 0zm10 0c-1,0 -1,0 -2,0 0,0 -1,-1 -1,-1 0,-1 0,-1 0,-2l0 -7c0,0 0,-1 0,-1 0,-1 1,-1 1,-1 1,-1 1,-1 2,-1l7 0c1,0 1,0 2,1 0,0 1,0 1,1 0,0 0,1 0,1l0 7c0,1 0,1 0,2 0,0 -1,1 -1,1 -1,0 -1,0 -2,0l-7 0 0 0zm0 -3l7 0c0,0 0,0 0,0 0,0 0,0 0,0l0 -7c0,0 0,0 0,0 0,0 0,0 0,0l-7 0c0,0 0,0 0,0 0,0 0,0 0,0l0 7c0,0 0,0 0,0 0,0 0,0 0,0zm16 3c-1,0 -1,0 -2,0 0,0 -1,-1 -1,-1 0,-1 0,-1 0,-2l0 -7c0,0 0,-1 0,-1 0,-1 1,-1 1,-1 1,-1 1,-1 2,-1l10 0 0 3 -10 0c0,0 0,0 0,0 0,0 0,0 0,0l0 7c0,0 0,0 0,0 0,0 0,0 0,0l10 0 0 3 -10 0 0 0zm12 0l0 0 0 -17 3 0 0 9 2 0 5 -5 3 0 0 1 -5 6 5 6 0 0 -3 0 -5 -5 -2 0 0 5 -3 0z"/>
  </g>
 </g>
</svg>
