<?xml version="1.0" encoding="UTF-8"?>
<!DOCTYPE svg PUBLIC "-//W3C//DTD SVG 1.1//EN" "http://www.w3.org/Graphics/SVG/1.1/DTD/svg11.dtd">
<!-- Creator: CorelDRAW X7 -->
<svg xmlns="http://www.w3.org/2000/svg" xml:space="preserve" width="320px" height="130px" version="1.1" shape-rendering="geometricPrecision" text-rendering="geometricPrecision" image-rendering="optimizeQuality" fill-rule="evenodd" clip-rule="evenodd"
viewBox="0 0 320 130"
 xmlns:xlink="http://www.w3.org/1999/xlink">
 <g id="Layer_x0020_1">
  <metadata id="CorelCorpID_0Corel-Layer"/>
  <rect fill="none" width="320" height="130"/>
  <g id="_1708272330080">
   <path fill="#FF6600" fill-rule="nonzero" d="M83 83l0 -37 18 -20 65 0 0 15 -63 0c-2,0 -3,0 -3,1 -1,1 -1,2 -1,3l0 44c0,1 0,2 1,3 0,1 1,1 3,1l63 0 0 16 -61 0 -22 -26zm109 26c-3,0 -6,-1 -8,-3 -3,-1 -5,-3 -6,-5 -1,-3 -2,-5 -2,-8l0 -51 15 0 0 50c0,1 0,1 0,1 1,0 1,1 1,1l35 0c1,0 1,-1 1,-1 0,0 1,0 1,-1l0 -50 15 0 0 51c0,3 -1,5 -3,8 -1,2 -3,4 -5,5 -3,2 -5,3 -8,3l-36 0 0 0zm77 0c-3,0 -6,-1 -8,-3 -2,-1 -4,-3 -6,-5 -1,-3 -2,-5 -2,-8l0 -72 15 0 0 21 26 0 0 15 -26 0 0 35c0,1 0,1 1,1 0,0 0,1 1,1l24 0 0 15 -25 0z"/>
   <path fill="#4D4D4D" fill-rule="nonzero" d="M26 26l15 0 0 83 -15 0 0 -83zm54 83l21 0 -38 -44 33 -39 -20 0 -33 39 37 44z"/>
  </g>
 </g>
</svg>
