<?xml version="1.0" encoding="UTF-8"?>
<!DOCTYPE svg PUBLIC "-//W3C//DTD SVG 1.1//EN" "http://www.w3.org/Graphics/SVG/1.1/DTD/svg11.dtd">
<!-- Creator: CorelDRAW X7 -->
<svg xmlns="http://www.w3.org/2000/svg" xml:space="preserve" width="64px" height="64px" version="1.1" shape-rendering="geometricPrecision" text-rendering="geometricPrecision" image-rendering="optimizeQuality" fill-rule="evenodd" clip-rule="evenodd"
viewBox="0 0 64 64"
 xmlns:xlink="http://www.w3.org/1999/xlink">
 <g id="Layer_x0020_1">
  <metadata id="CorelCorpID_0Corel-Layer"/>
  <g id="_1708267851184">
   <path fill="#333333" d="M60 64l-56 0c-2,0 -4,-2 -4,-4l0 -56c0,-2 2,-4 4,-4l56 0c2,0 4,2 4,4l0 56c0,2 -2,4 -4,4z"/>
   <g>
    <path fill="#FF6600" d="M6 42l7 0 5 0 4 0 5 0 5 0 5 0 5 0 3 0 0 -20c0,0 1,-1 1,-1l12 0c0,0 1,1 1,1l0 34c0,1 -1,1 -1,1l-12 0 -40 0c0,0 -1,0 -1,-1l0 -13c0,0 1,-1 1,-1zm39 2l-2 0 0 4c0,1 -1,1 -1,1 -1,0 -1,0 -1,-1l0 -4 -3 0 0 8c0,0 0,1 -1,1 0,0 -1,-1 -1,-1l0 -8 -3 0 0 4c0,1 0,1 -1,1 0,0 -1,0 -1,-1l0 -4 -3 0 0 8c0,0 0,1 -1,1 0,0 0,-1 0,-1l0 -8 -4 0 0 4c0,1 0,1 -1,1 0,0 0,0 0,-1l0 -4 -3 0 0 8c0,0 -1,1 -1,1 -1,0 -1,-1 -1,-1l0 -8 -3 0 0 4c0,1 -1,1 -1,1 -1,0 -1,0 -1,-1l0 -4 -5 0 0 11 38 0 0 -11zm2 -1l0 12 10 0 0 -32 -10 0 0 20zm-28 -9l24 -16 -5 -7 -24 16 5 7zm26 -15l-25 17c-1,1 -1,1 -1,1l-13 1c0,0 -1,-1 -1,-1 0,-1 0,-1 1,-1l6 -10c0,0 0,0 0,0l0 0 0 0 0 0c0,0 0,0 0,0l33 -7zm-5 -9l5 7c1,-1 2,-2 2,-3 1,-1 0,-2 0,-4 -1,-1 -2,-1 -3,-1 -2,0 -3,0 -4,1zm-28 16l26 -17c2,-1 4,-2 6,-2 2,0 3,1 4,2 1,2 2,4 1,6 -1,1 -2,3 -4,4l-33 7zm5 9l-4 -7 -5 8 9 -1z"/>
   </g>
  </g>
 </g>
</svg>
