<?xml version="1.0" encoding="UTF-8"?>
<!DOCTYPE svg PUBLIC "-//W3C//DTD SVG 1.1//EN" "http://www.w3.org/Graphics/SVG/1.1/DTD/svg11.dtd">
<!-- Creator: CorelDRAW X7 -->
<svg xmlns="http://www.w3.org/2000/svg" xml:space="preserve" width="64px" height="64px" version="1.1" shape-rendering="geometricPrecision" text-rendering="geometricPrecision" image-rendering="optimizeQuality" fill-rule="evenodd" clip-rule="evenodd"
viewBox="0 0 64 64"
 xmlns:xlink="http://www.w3.org/1999/xlink">
 <g id="Layer_x0020_1">
  <metadata id="CorelCorpID_0Corel-Layer"/>
  <g id="_1708518540112">
   <rect fill="#333333" width="64.0012" height="64.0012"/>
   <g>
    <path fill="#FF6600" d="M30 43l4 0c0,0 0,0 0,0l7 0 13 0c0,0 0,-1 1,-1 0,0 0,0 0,0l0 -6c0,-1 0,-1 0,-1 -1,0 -1,0 -1,0l-20 0c-1,0 -2,0 -3,-1 -1,0 -2,-1 -3,-2 0,-1 0,-2 0,-3l0 -7 5 -7c0,0 1,0 1,0l20 0c2,0 3,1 4,1 1,1 1,2 2,3 1,1 1,2 1,3l0 2 -6 0 0 -2c0,0 0,0 0,0 -1,0 -1,-1 -1,-1l-20 0c0,0 0,1 0,1 0,0 0,0 0,0l0 6c0,1 0,1 0,1 0,0 0,0 0,0l20 0c2,0 3,0 4,1 1,0 1,1 2,2 1,1 1,2 1,3l0 7c0,1 0,2 -1,3 -1,1 -1,2 -2,3 -1,0 -2,1 -4,1l-19 0 -5 -6z"/>
    <path fill="#999999" d="M25 49l8 0 -15 -18 13 -16 -8 0 -13 16 15 18zm-22 -34l6 0 0 34 -6 0 0 -34z"/>
   </g>
  </g>
 </g>
</svg>
