<?xml version="1.0" encoding="UTF-8"?>
<!DOCTYPE svg PUBLIC "-//W3C//DTD SVG 1.1//EN" "http://www.w3.org/Graphics/SVG/1.1/DTD/svg11.dtd">
<!-- Creator: CorelDRAW X7 -->
<svg xmlns="http://www.w3.org/2000/svg" xml:space="preserve" width="630px" height="500px" version="1.1" shape-rendering="geometricPrecision" text-rendering="geometricPrecision" image-rendering="optimizeQuality" fill-rule="evenodd" clip-rule="evenodd"
viewBox="0 0 630 500"
 xmlns:xlink="http://www.w3.org/1999/xlink">
 <g id="Layer_x0020_1">
  <metadata id="CorelCorpID_0Corel-Layer"/>
  <rect fill="#4D4D4D" x="15" y="396" width="600.002" height="12.189"/>
  <polygon fill="#999999" points="19,399 611,399 611,405 19,405 "/>
  <g id="_2586543182272">
   <path fill="#4D4D4D" d="M585 205l-48 0 0 97 -11 23 0 -60 -19 0 0 60 -10 -23 0 -146 40 0 0 15 68 0 -20 34zm-79 -61l109 0 0 -34 -135 0 26 34zm-165 120l40 0 0 -108 -40 0 0 108zm7 -120l77 0 8 8 0 21 -8 7 -5 0 -23 0 0 35 36 49 48 0 -37 -50 29 -24 0 -46 0 -7 -28 -27 -124 0 27 34zm-69 61l-53 0 0 25 87 0 0 34 -126 0 0 -17 0 -17 0 -74 39 0 0 15 81 0 -28 34zm-84 -61l118 0 0 -26 -6 -8 -128 0 0 13 16 21zm-175 120l40 0 0 -29 23 -26 43 55 51 0 -68 -86 58 -68 -51 0 -56 75 0 -75 -45 0 5 8 0 146z"/>
   <path fill="#999999" d="M583 202l17 -28 -67 0 0 -14 -33 0 0 142 4 8 0 -48 26 0 0 48 3 -8 0 -100 50 0zm-75 -61l104 0 0 -27 -125 0 21 27zm-164 120l33 0 0 -101 -33 0 0 101zm5 -120l78 0 9 10 0 24 -10 9 -26 0 0 30 34 47 40 0 -35 -48 30 -25 0 -50 -25 -24 -116 0 21 27zm-72 61l23 -27 -77 0 0 -15 -33 0 0 101 120 0 0 -28 -87 0 0 -31 54 0zm-81 -61l114 0 0 -21 -4 -6 -124 0 0 8 14 19zm-172 120l33 0 0 -28 26 -30 45 58 42 0 -65 -83 55 -64 -42 0 -61 81 0 -81 -36 0 3 3 0 144z"/>
  </g>
  <rect fill="#4D4D4D" x="15" y="81" width="600.002" height="12.189"/>
  <polygon fill="#999999" points="19,84 611,84 611,89 19,89 "/>
  <polygon fill="#FF8636" fill-rule="nonzero" points="500,380 513,391 513,386 514,389 516,380 520,391 533,382 524,393 529,393 524,396 536,396 525,400 531,402 527,404 533,414 522,405 522,413 518,407 511,416 513,407 502,413 509,405 504,404 511,402 500,400 509,398 505,395 509,395 "/>
  <g id="_2586543179264">
   <path fill="#999999" fill-rule="nonzero" d="M28 324l-13 -31 8 0 6 17 6 -17 5 0 6 17 6 -17 9 0 -13 31 -3 0 -7 -19 -7 19 -3 0zm46 -16c0,3 1,5 2,7 2,2 4,3 7,3 2,0 4,-1 6,-3 2,-2 3,-4 3,-7 0,-3 -1,-5 -3,-7 -2,-1 -4,-2 -6,-2 -3,0 -5,1 -7,2 -1,2 -2,4 -2,7zm-8 0c0,-2 0,-4 1,-6 1,-2 2,-4 4,-5 1,-2 3,-3 5,-4 2,0 4,-1 7,-1 2,0 4,1 6,1 2,1 4,2 6,4 1,1 3,3 3,5 1,2 2,4 2,6 0,3 -1,5 -2,7 0,2 -2,3 -3,5 -2,1 -4,2 -6,3 -2,1 -4,1 -6,1 -3,0 -5,0 -7,-1 -2,-1 -4,-2 -5,-3 -2,-2 -3,-3 -4,-5 -1,-2 -1,-4 -1,-7zm54 -3c2,0 3,0 3,0 1,-1 1,-2 1,-3 0,-1 0,-2 -1,-3 0,0 -1,-1 -3,-1l-3 0 0 7 3 0zm-11 19l0 -31 11 0c4,0 8,0 10,2 2,1 3,4 3,7 0,1 -1,3 -2,4 -1,1 -2,2 -4,3 1,0 2,1 2,2 1,0 1,1 2,2l5 11 -9 0 -4 -9c-1,-2 -1,-3 -2,-3 -1,-1 -2,-1 -4,-1 0,0 0,0 0,0 0,0 0,0 0,0l0 13 -8 0zm34 0l0 -31 8 0 0 14 10 -14 9 0 -11 14 14 17 -11 0 -11 -15 0 15 -8 0zm35 -3l0 -7c2,2 4,3 6,3 2,1 3,1 5,1 1,0 2,0 3,0 1,-1 1,-2 1,-3 0,0 0,-1 0,-1 -1,-1 -2,-1 -4,-2 -4,-1 -7,-3 -9,-5 -2,-1 -2,-3 -2,-6 0,-2 1,-5 3,-6 2,-2 5,-3 8,-3 2,0 4,0 6,1 1,0 3,1 5,2l0 6c-2,-1 -4,-2 -6,-2 -1,-1 -3,-1 -4,-1 -2,0 -3,0 -4,1 0,0 -1,1 -1,2 0,0 0,1 1,1 1,1 2,1 3,2 1,0 1,0 2,0 3,2 5,3 6,3 1,1 2,2 3,3 1,2 1,3 1,5 0,3 -1,5 -3,7 -2,1 -5,2 -9,2 -2,0 -4,0 -6,0 -2,-1 -3,-2 -5,-3zm32 3l0 -31 8 0 0 12 14 0 0 -12 7 0 0 31 -7 0 0 -13 -14 0 0 13 -8 0zm46 -16c0,3 1,5 3,7 2,2 4,3 6,3 3,0 5,-1 7,-3 1,-2 2,-4 2,-7 0,-3 -1,-5 -2,-7 -2,-1 -4,-2 -7,-2 -2,0 -4,1 -6,2 -2,2 -3,4 -3,7zm-8 0c0,-2 1,-4 2,-6 0,-2 2,-4 3,-5 2,-2 4,-3 6,-4 2,0 4,-1 6,-1 3,0 5,1 7,1 2,1 4,2 5,4 2,1 3,3 4,5 1,2 1,4 1,6 0,3 0,5 -1,7 -1,2 -2,3 -4,5 -1,1 -3,2 -5,3 -2,1 -4,1 -7,1 -2,0 -4,0 -6,-1 -2,-1 -4,-2 -6,-3 -1,-2 -3,-3 -3,-5 -1,-2 -2,-4 -2,-7zm55 -2c1,0 2,-1 3,-1 1,-1 1,-2 1,-3 0,-1 -1,-2 -1,-3 -1,0 -2,-1 -3,-1l-4 0 0 8 4 0zm-12 18l0 -31 12 0c4,0 7,0 9,2 2,2 3,4 3,7 0,3 -1,6 -3,7 -3,2 -6,3 -10,3l-3 0 0 12 -8 0zm45 -3l0 -7c2,2 4,3 5,3 2,1 4,1 5,1 2,0 3,0 4,0 0,-1 1,-2 1,-3 0,0 -1,-1 -1,-1 0,-1 -2,-1 -3,-2 -5,-1 -8,-3 -10,-5 -1,-1 -2,-3 -2,-6 0,-2 1,-5 3,-6 2,-2 5,-3 9,-3 1,0 3,0 5,1 2,0 3,1 5,2l0 6c-2,-1 -4,-2 -5,-2 -2,-1 -4,-1 -5,-1 -1,0 -3,0 -3,1 -1,0 -1,1 -1,2 0,0 0,1 1,1 0,1 1,1 3,2 0,0 0,0 1,0 3,2 5,3 6,3 2,1 3,2 4,3 0,2 1,3 1,5 0,3 -2,5 -4,7 -2,1 -5,2 -9,2 -2,0 -4,0 -5,0 -2,-1 -4,-2 -5,-3zm61 -28l0 17c0,5 -2,8 -4,11 -3,2 -6,3 -11,3 -5,0 -8,-1 -11,-3 -2,-3 -4,-6 -4,-11l0 -17 8 0 0 17c0,3 1,4 2,6 1,1 3,2 5,2 2,0 4,-1 5,-2 1,-1 2,-3 2,-6l0 -17 8 0zm10 31l0 -31 8 0 0 31 -8 0zm26 0l0 -26 -10 0 0 -5 29 0 0 5 -10 0 0 26 -9 0zm27 0l0 -31 20 0 0 5 -13 0 0 7 13 0 0 6 -13 0 0 7 14 0 0 6 -21 0z"/>
   <path fill="#999999" fill-rule="nonzero" d="M64 375l-8 -22 3 0 5 15 6 -15 2 0 6 15 5 -15 3 0 -8 22 0 0 -7 -17 -6 17 -1 0zm27 -7c0,1 0,2 1,3 1,1 2,2 3,2 2,0 3,-1 4,-2 1,-1 1,-2 1,-3 0,-2 0,-3 -1,-4 -1,-1 -2,-1 -4,-1 -1,0 -2,0 -3,1 -1,1 -1,2 -1,4zm-3 0c0,-2 1,-4 2,-6 2,-1 3,-2 5,-2 1,0 2,1 3,1 1,0 2,1 3,2 1,0 1,1 1,2 1,1 1,2 1,3 0,1 0,2 -1,3 0,1 0,1 -1,2 -1,1 -2,1 -3,2 -1,0 -2,0 -3,0 -2,0 -3,-1 -5,-2 -1,-1 -2,-3 -2,-5zm21 7l0 -14 2 0 0 3c1,-1 2,-2 3,-3 0,0 1,-1 2,-1 0,0 1,1 1,1 1,0 1,0 2,1l-2 2c0,0 -1,0 -1,-1 0,0 -1,0 -1,0 -1,0 -2,1 -2,1 -1,1 -1,2 -2,3l0 8 -2 0zm27 -14l-6 6 7 8 -4 0 -7 -8 7 -6 3 0zm-13 14l0 -22 3 0 0 22 -3 0zm26 -1l0 -3c0,0 1,1 2,1 1,1 2,1 2,1 1,0 1,0 2,-1 0,0 1,0 1,-1 0,0 -1,-1 -3,-2 0,0 -1,0 -1,0 -1,-1 -2,-2 -3,-2 0,-1 0,-2 0,-3 0,-1 0,-2 1,-3 1,0 2,-1 3,-1 1,0 2,0 3,1 1,0 1,0 2,1l0 2c-1,0 -2,-1 -2,-1 -1,0 -2,0 -2,0 -1,0 -2,0 -2,0 0,0 0,1 0,1 0,1 1,2 3,3l0 0c1,1 2,1 3,2 0,0 1,1 1,2 0,1 -1,2 -2,3 -1,1 -2,1 -4,1 0,0 -1,0 -2,0 -1,0 -2,-1 -2,-1zm15 1l0 -14 3 0 0 1c1,0 1,-1 2,-1 1,0 2,-1 2,-1 2,0 2,1 3,1 1,0 1,1 2,2 1,-1 2,-2 2,-2 1,0 2,-1 3,-1 1,0 3,1 3,2 1,1 2,2 2,3l0 10 -3 0 0 -9c0,-1 0,-2 -1,-2 0,-1 -1,-1 -2,-1 -1,0 -1,0 -2,0 -1,1 -1,1 -2,2l0 10 -2 0 0 -9c0,-1 -1,-2 -1,-2 -1,-1 -1,-1 -2,-1 -1,0 -2,0 -2,0 -1,1 -1,1 -2,2l0 10 -3 0zm35 -3l0 -4c-2,0 -3,1 -4,1 0,1 -1,2 -1,2 0,1 0,1 1,2 0,0 1,0 1,0 1,0 1,0 2,0 0,0 1,-1 1,-1zm0 2c0,0 -1,1 -2,1 0,0 -1,0 -2,0 -1,0 -2,0 -3,-1 -1,0 -1,-1 -1,-2 0,-1 1,-2 1,-3 1,-1 2,-1 4,-2l3 -1c0,0 0,0 0,0 0,0 0,0 0,-1 0,0 0,-1 0,-1 -1,-1 -1,-1 -2,-1 -1,0 -2,0 -3,0 -1,1 -2,1 -2,2l0 -3c0,0 1,-1 2,-1 1,0 2,-1 3,-1 2,0 3,1 4,2 1,0 1,2 1,3l0 7c0,0 0,0 0,1 0,0 1,0 1,0 0,0 0,0 0,0 1,0 1,-1 1,-1l0 2c0,0 -1,1 -1,1 -1,0 -1,0 -2,0 0,0 -1,0 -1,0 0,0 -1,-1 -1,-1zm10 1l0 -14 3 0 0 3c0,-1 1,-2 2,-3 0,0 1,-1 2,-1 0,0 1,1 1,1 1,0 2,0 2,1l-1 2c-1,0 -1,0 -2,-1 0,0 -1,0 -1,0 -1,0 -2,1 -2,1 -1,1 -1,2 -1,3l0 8 -3 0zm22 -1c0,1 -1,1 -1,1 -1,0 -1,0 -2,0 -1,0 -2,0 -3,-1 -1,-1 -1,-2 -1,-4l0 -7 -2 0 0 0 5 -6 0 0 0 4 4 0 0 2 -4 0 0 7c0,1 0,2 0,2 1,0 1,0 2,0 0,0 1,0 1,0 1,0 1,0 1,0l0 2zm18 -1c-1,1 -2,1 -3,2 -1,0 -2,0 -3,0 -2,0 -4,0 -5,-2 -2,-1 -2,-3 -2,-5 0,-3 0,-4 2,-6 1,-1 3,-2 5,-2 2,0 3,1 5,2 1,2 1,4 1,6l0 0 -10 0c0,2 0,3 1,3 1,1 2,2 3,2 1,0 2,-1 3,-1 1,0 2,-1 3,-1l0 2zm-10 -7l7 0c0,-1 0,-2 -1,-2 -1,-1 -1,-1 -2,-1 -1,0 -2,0 -3,1 -1,0 -1,1 -1,2zm16 9l0 -14 3 0 0 3c1,-1 1,-2 2,-3 1,0 1,-1 2,-1 0,0 1,1 2,1 0,0 1,0 1,1l-1 2c-1,0 -1,0 -2,-1 0,0 -1,0 -1,0 -1,0 -1,1 -2,1 -1,1 -1,2 -1,3l0 8 -3 0zm13 0c0,0 -1,0 -1,-1 0,0 0,0 0,-1 0,0 0,-1 0,-1 1,0 1,-1 1,-1 1,0 2,1 2,1 0,1 1,2 1,2 0,2 -1,2 -1,3 -1,1 -2,2 -3,2l0 0c0,-1 1,-1 1,-2 0,0 0,-1 0,-1l0 -1zm22 0l-7 -14 3 0 4 9 4 -9 2 0 4 9 4 -9 3 0 -6 14 -2 0 -4 -10 -4 10 -1 0zm29 -3l0 -4c-2,0 -3,1 -4,1 -1,1 -1,2 -1,2 0,1 0,1 0,2 1,0 1,0 2,0 0,0 1,0 1,0 1,0 1,-1 2,-1zm0 2c-1,0 -1,1 -2,1 -1,0 -1,0 -2,0 -1,0 -2,0 -3,-1 -1,0 -1,-1 -1,-2 0,-1 0,-2 1,-3 1,-1 2,-1 3,-2l4 -1c0,0 0,0 0,0 0,0 0,0 0,-1 0,0 0,-1 -1,-1 0,-1 -1,-1 -2,-1 -1,0 -1,0 -2,0 -1,1 -2,1 -3,2l0 -3c1,0 2,-1 3,-1 1,0 1,-1 2,-1 2,0 4,1 5,2 0,0 1,2 1,3l0 7c0,0 0,0 0,1 0,0 0,0 0,0 1,0 1,0 1,0 0,0 0,-1 1,-1l0 2c-1,0 -1,1 -2,1 0,0 -1,0 -1,0 -1,0 -1,0 -2,0 0,0 0,-1 0,-1zm8 0l0 -3c1,0 2,1 3,1 1,1 1,1 2,1 1,0 1,0 2,-1 0,0 0,0 0,-1 0,0 0,-1 -2,-2 0,0 -1,0 -1,0 -1,-1 -2,-2 -3,-2 0,-1 0,-2 0,-3 0,-1 0,-2 1,-3 1,0 2,-1 3,-1 1,0 2,0 3,1 0,0 1,0 2,1l0 2c-1,0 -2,-1 -3,-1 0,0 -1,0 -2,0 0,0 -1,0 -1,0 0,0 0,1 0,1 0,1 1,2 3,3l0 0c1,1 2,1 3,2 0,0 1,1 1,2 0,1 -1,2 -2,3 -1,1 -2,1 -4,1 -1,0 -1,0 -2,0 -1,0 -2,-1 -3,-1zm24 0c0,1 -1,1 -1,1 -1,0 -1,0 -2,0 -2,0 -3,0 -3,-1 -1,-1 -1,-2 -1,-4l0 -7 -3 0 0 0 5 -6 0 0 0 4 5 0 0 2 -5 0 0 7c0,1 1,2 1,2 0,0 1,0 2,0 0,0 0,0 1,0 0,0 1,0 1,0l0 2zm18 -1c-1,1 -2,1 -3,2 -1,0 -2,0 -3,0 -3,0 -4,0 -6,-2 -1,-1 -2,-3 -2,-5 0,-3 1,-4 2,-6 1,-1 3,-2 5,-2 2,0 4,1 5,2 1,2 2,4 2,6l0 0 -11 0c0,2 1,3 2,3 0,1 1,2 3,2 1,0 2,-1 3,-1 1,0 2,-1 3,-1l0 2zm-11 -7l8 0c0,-1 -1,-2 -1,-2 -1,-1 -2,-1 -3,-1 -1,0 -2,0 -2,1 -1,0 -2,1 -2,2zm25 9l0 -22 2 0 0 22 -2 0zm22 -2c-1,1 -2,1 -3,2 -1,0 -2,0 -4,0 -2,0 -4,0 -5,-2 -1,-1 -2,-3 -2,-5 0,-3 1,-4 2,-6 1,-1 3,-2 5,-2 2,0 4,1 5,2 1,2 2,4 2,6l0 0 -11 0c0,2 1,3 1,3 1,1 2,2 4,2 1,0 1,-1 2,-1 1,0 2,-1 4,-1l0 2zm-11 -7l8 0c0,-1 -1,-2 -1,-2 -1,-1 -2,-1 -3,-1 -1,0 -2,0 -3,1 0,0 -1,1 -1,2zm15 8l0 -3c1,0 2,1 3,1 1,1 1,1 2,1 1,0 1,0 2,-1 0,0 0,0 0,-1 0,0 0,-1 -2,-2 0,0 -1,0 -1,0 -1,-1 -2,-2 -3,-2 0,-1 -1,-2 -1,-3 0,-1 1,-2 2,-3 1,0 2,-1 3,-1 1,0 2,0 3,1 0,0 1,0 2,1l0 2c-1,0 -2,-1 -3,-1 0,0 -1,0 -2,0 0,0 -1,0 -1,0 0,0 -1,1 -1,1 0,1 1,2 3,3l1 0c1,1 2,1 3,2 0,0 0,1 0,2 0,1 0,2 -1,3 -1,1 -2,1 -4,1 -1,0 -1,0 -2,0 -1,0 -2,-1 -3,-1zm15 0l0 -3c1,0 2,1 3,1 0,1 1,1 2,1 1,0 1,0 1,-1 1,0 1,0 1,-1 0,0 -1,-1 -2,-2 -1,0 -1,0 -1,0 -2,-1 -3,-2 -3,-2 -1,-1 -1,-2 -1,-3 0,-1 1,-2 2,-3 0,0 2,-1 3,-1 1,0 2,0 2,1 1,0 2,0 3,1l0 2c-1,0 -2,-1 -3,-1 -1,0 -1,0 -2,0 -1,0 -1,0 -1,0 -1,0 -1,1 -1,1 0,1 1,2 3,3l0 0c2,1 3,1 4,2 0,0 0,1 0,2 0,1 0,2 -1,3 -1,1 -2,1 -4,1 -1,0 -2,0 -2,0 -1,0 -2,-1 -3,-1zm16 -1c0,0 0,-1 1,-1 0,0 0,-1 1,-1 1,0 1,1 1,1 1,0 1,1 1,1 0,1 0,1 -1,2 0,0 0,0 -1,0 -1,0 -1,0 -1,0 -1,-1 -1,-1 -1,-2z"/>
   <polygon fill="#999999" fill-rule="nonzero" points="55,338 444,338 444,341 55,341 "/>
  </g>
  <path fill="#FF6600" stroke="#FF6600" stroke-width="0.999216" stroke-linecap="round" stroke-linejoin="round" d="M517 401c-3,-42 -2,-87 0,-133 2,46 3,91 0,133z"/>
 </g>
</svg>
