<?xml version="1.0" encoding="UTF-8"?>
<!DOCTYPE svg PUBLIC "-//W3C//DTD SVG 1.1//EN" "http://www.w3.org/Graphics/SVG/1.1/DTD/svg11.dtd">
<!-- Creator: CorelDRAW X7 -->
<svg xmlns="http://www.w3.org/2000/svg" xml:space="preserve" width="340px" height="130px" version="1.1" shape-rendering="geometricPrecision" text-rendering="geometricPrecision" image-rendering="optimizeQuality" fill-rule="evenodd" clip-rule="evenodd"
viewBox="0 0 340 130"
 xmlns:xlink="http://www.w3.org/1999/xlink">
 <g id="Layer_x0020_1">
  <metadata id="CorelCorpID_0Corel-Layer"/>
  <rect fill="none" width="340" height="130"/>
  <g id="_1708207427008">
   <polygon fill="#333333" fill-rule="nonzero" points="75,108 95,108 58,65 91,27 71,27 39,65 "/>
   <polygon fill="#333333" fill-rule="nonzero" points="21,27 36,27 36,108 21,108 "/>
   <path fill="#FF6600" d="M81 87l0 -3 15 0 0 8c0,1 0,1 0,1 0,0 1,1 1,0l49 0c0,1 1,0 1,0 0,0 0,0 0,-1l0 -65 15 0 0 66c0,3 -1,5 -2,8 -1,2 -3,4 -6,5 -2,2 -5,2 -7,2l-48 0 -18 -21zm109 21c-3,0 -6,0 -8,-2 -2,-1 -4,-3 -6,-5 -1,-3 -2,-5 -2,-8l0 -34c0,-3 1,-6 2,-8 2,-3 4,-4 6,-6 2,-1 5,-2 8,-2l35 0c3,0 6,1 8,2 3,1 4,3 6,6 1,2 2,5 2,8l0 34c0,3 -1,5 -2,8 -2,2 -3,4 -6,5 -2,2 -5,2 -8,2l-35 0 0 0zm0 -14l35 0c0,0 0,0 1,-1 0,0 0,0 0,-1l0 -33c0,0 0,-1 0,-1 -1,0 -1,0 -1,0l-35 0c0,0 0,0 -1,0 0,0 0,1 0,1l0 33c0,1 0,1 0,1 1,1 1,1 1,1zm62 14l0 0 0 -87 15 0 0 22 36 0c3,0 6,1 8,2 2,2 4,3 5,6 2,2 3,5 3,8l0 34c0,3 -1,5 -3,8 -1,2 -3,4 -5,5 -2,2 -5,2 -8,2l-51 0zm16 -14l34 0c1,0 1,0 1,-1 1,0 1,0 1,-1l0 -33c0,0 0,-1 -1,-1 0,0 0,0 -1,0l-34 0c0,0 -1,0 -1,0 0,0 0,1 0,1l0 33c0,1 0,1 0,1 0,1 1,1 1,1z"/>
  </g>
 </g>
</svg>
