<?xml version="1.0" encoding="UTF-8"?>
<!DOCTYPE svg PUBLIC "-//W3C//DTD SVG 1.1//EN" "http://www.w3.org/Graphics/SVG/1.1/DTD/svg11.dtd">
<!-- Creator: CorelDRAW X7 -->
<svg xmlns="http://www.w3.org/2000/svg" xml:space="preserve" width="64px" height="64px" version="1.1" shape-rendering="geometricPrecision" text-rendering="geometricPrecision" image-rendering="optimizeQuality" fill-rule="evenodd" clip-rule="evenodd"
viewBox="0 0 64 64"
 xmlns:xlink="http://www.w3.org/1999/xlink">
 <g id="Layer_x0020_1">
  <metadata id="CorelCorpID_0Corel-Layer"/>
  <rect fill="#333333" width="64" height="64"/>
  <g id="_1708274466224">
   <path fill="#999999" d="M5 16l6 0 0 32 -6 0 0 -32zm22 32l7 0 -14 -17 13 -15 -8 0 -13 15 15 17z"/>
   <path fill="#FF6600" fill-rule="nonzero" d="M28 38l4 0 0 4c0,0 0,0 1,0 0,0 0,0 0,0l19 0c0,0 0,0 0,0 1,0 1,0 1,0l0 -26 6 0 0 26c0,1 -1,2 -1,3 -1,1 -2,2 -3,2 0,1 -2,1 -3,1l-16 0 -8 -10z"/>
  </g>
 </g>
</svg>
