<?xml version="1.0" encoding="UTF-8"?>
<!DOCTYPE svg PUBLIC "-//W3C//DTD SVG 1.1//EN" "http://www.w3.org/Graphics/SVG/1.1/DTD/svg11.dtd">
<!-- Creator: CorelDRAW X7 -->
<svg xmlns="http://www.w3.org/2000/svg" xml:space="preserve" width="64px" height="64px" version="1.1" shape-rendering="geometricPrecision" text-rendering="geometricPrecision" image-rendering="optimizeQuality" fill-rule="evenodd" clip-rule="evenodd"
viewBox="0 0 64 64"
 xmlns:xlink="http://www.w3.org/1999/xlink">
 <g id="Layer_x0020_1">
  <metadata id="CorelCorpID_0Corel-Layer"/>
  <path fill="#333333" d="M60 64l-56 0c-2,0 -4,-2 -4,-4l0 -56c0,-2 2,-4 4,-4l56 0c2,0 4,2 4,4l0 56c0,2 -2,4 -4,4z"/>
  <path fill="#FF6600" fill-rule="nonzero" d="M22 8l3 0 0 -3c0,0 0,-1 1,-1l12 0c1,0 1,1 1,1l0 3 3 0c1,0 1,0 1,0l0 2 9 0c0,0 1,1 2,1 0,1 1,2 1,2l0 43c0,1 -1,2 -1,3 -1,0 -2,1 -2,1l-40 0c0,0 -1,-1 -2,-1 0,-1 -1,-2 -1,-3l0 -43c0,0 1,-1 1,-2 1,0 2,-1 2,-1l9 0 0 -2c0,0 0,0 1,0zm21 4l0 2c0,0 0,0 -1,0l-20 0c-1,0 -1,0 -1,0l0 -2 -9 0c0,0 0,0 -1,0 0,1 0,1 0,1l0 43c0,1 0,1 0,2 1,0 1,0 1,0l40 0c0,0 0,0 1,0 0,-1 0,-1 0,-2l0 -43c0,0 0,0 0,-1 -1,0 -1,0 -1,0l-9 0zm-17 -3l-4 0 0 2 0 2 20 0 0 -2 0 -2 -4 0c0,0 -1,0 -1,-1l0 -2 -10 0 0 2c0,1 -1,1 -1,1zm11 26c1,0 1,1 1,1 1,0 1,0 1,0l0 3c0,0 0,0 0,0 0,0 1,0 1,0 0,0 1,0 1,0 0,0 0,0 0,0l0 -3 0 0c0,0 0,0 1,0 0,0 1,-1 1,-1 0,0 1,0 1,0 0,0 1,0 1,0l2 1c0,0 0,0 0,0 0,0 0,0 0,0 1,-1 1,-1 1,-1l-1 -2 0 0c-1,0 -1,0 -1,-1 1,0 1,0 1,-1 0,0 0,0 0,0 0,0 0,-1 0,-1 1,0 1,-1 1,-1l2 0c0,0 0,0 0,0 0,0 0,0 0,-1 0,0 0,0 0,-1 0,0 0,0 0,0l-2 0 0 0c0,0 0,0 -1,0 0,-1 0,-1 0,-2 0,0 0,0 -1,-1 0,0 0,0 1,-1l1 -1c0,-1 0,-1 -1,-1 0,0 0,0 0,0 0,0 0,-1 0,-1l-2 2 0 0c0,0 -1,0 -1,0 0,0 -1,-1 -1,-1 0,0 0,0 0,0 0,0 -1,0 -1,0 -1,0 -1,0 -1,-1l0 -2c0,0 0,0 0,0 0,0 -1,0 -1,0 0,0 -1,0 -1,0 0,0 0,0 0,0l0 2 0 0c0,1 0,1 -1,1 0,0 0,0 -1,0 0,0 -1,1 -1,1 0,0 -1,0 -1,0l-2 -2c0,0 0,1 0,1 0,0 0,0 0,0 -1,0 -1,0 -1,1l2 1 0 0c0,1 0,1 0,1 -1,1 -1,1 -1,1 0,0 0,0 0,0 0,1 0,1 0,2 0,0 -1,0 -1,0l-2 0c0,0 0,0 0,0 0,1 0,1 0,1 0,1 0,1 0,1 0,0 0,0 0,0l2 0 0 0c0,0 1,1 1,1 0,0 0,1 0,1 0,1 0,1 1,1 0,1 0,1 0,1l-2 2c0,0 0,0 1,1 0,0 0,0 0,0l2 -1 0 0c0,0 1,-1 1,0 0,0 1,0 1,0 0,0 0,0 0,0zm1 2c-1,0 -1,0 -1,0 0,0 0,0 0,0 -1,0 -1,-1 -1,-1l-2 2c0,0 -1,0 -1,0 0,0 -1,-1 -1,-1 -1,-1 -1,-1 -2,-2 0,0 0,0 0,-1l0 0 2 -1c0,-1 0,-1 0,-1 0,-1 -1,-1 -1,-1l-2 0c0,0 -1,0 -1,-1l0 -1c0,0 0,0 0,-1 0,0 0,0 0,-1 0,0 0,0 0,-1 0,0 1,0 1,0l0 0 2 0c0,-1 1,-1 1,-1 0,0 0,0 0,0 0,-1 0,-1 0,-1l-2 -2c0,0 0,0 0,-1 1,0 1,-1 2,-1 0,0 0,0 0,0 0,-1 1,-1 1,-1 0,-1 1,-1 1,0l0 0 2 1c0,0 0,0 1,0 0,0 0,0 1,0l0 -3c0,0 0,0 0,0l1 -1c0,0 1,0 1,0 0,0 1,0 1,0 0,0 1,1 1,1 0,0 1,0 1,0l0 0 0 3c0,0 0,0 0,0 1,0 1,0 1,0 0,0 0,0 0,0l2 -1c0,-1 1,-1 1,0 1,0 1,0 1,1 0,0 0,0 0,0 1,0 1,1 2,1 0,1 0,1 0,1l0 0 -2 2c0,0 0,1 0,1 1,0 1,0 1,1l2 0c0,0 1,0 1,0l0 1c0,1 0,1 0,1 0,1 0,1 0,1 0,1 0,1 0,1 0,1 -1,1 -1,1l0 0 -2 0c0,0 0,0 -1,1 0,0 0,0 0,0 0,0 0,0 0,1l2 1c0,1 0,1 0,1 -1,1 -1,1 -2,2 0,0 0,0 0,0 0,0 -1,1 -1,1 0,0 -1,0 -1,0l0 0 -2 -2c0,0 0,1 -1,1 0,0 0,0 0,0l0 2c0,1 -1,1 -1,1l-1 0c0,0 -1,0 -1,0 0,0 -1,0 -1,0 0,0 -1,0 -1,0 0,0 0,0 0,-1l0 0 0 -2zm2 -4c-1,0 -3,0 -4,-1 -1,-1 -1,-2 -1,-4 0,-1 0,-2 1,-3 1,-1 3,-2 4,-2 1,0 3,1 4,2 1,1 1,2 1,3 0,2 0,3 -1,4 -1,1 -3,1 -4,1zm-3 -2c1,1 2,1 3,1 1,0 2,0 3,-1 0,-1 1,-2 1,-3 0,-1 -1,-2 -1,-2 -1,-1 -2,-1 -3,-1 -1,0 -2,0 -3,1 0,0 -1,1 -1,2 0,1 1,2 1,3zm-16 23l3 0 0 -18 -3 0 0 18zm-7 -24c0,-1 0,-1 1,-1 0,0 0,0 0,1l0 24 4 0 0 -19c0,0 1,-1 1,-1l4 0c1,0 1,1 1,1l0 19 4 0 0 -14c0,0 1,0 1,0l4 0c1,0 1,0 1,0l0 14 4 0 0 -9c0,0 1,-1 1,-1l4 0c0,0 1,1 1,1l0 9 4 0c0,0 1,0 1,1 0,0 -1,1 -1,1l-5 0 -4 0 -6 0 -4 0 -6 0 -4 0 -5 0c-1,0 -1,-1 -1,-1l0 -25zm17 24l2 0 0 -13 -2 0 0 13zm10 0l2 0 0 -8 -2 0 0 8z"/>
 </g>
</svg>
