<?xml version="1.0" encoding="UTF-8"?>
<!DOCTYPE svg PUBLIC "-//W3C//DTD SVG 1.1//EN" "http://www.w3.org/Graphics/SVG/1.1/DTD/svg11.dtd">
<!-- Creator: CorelDRAW X7 -->
<svg xmlns="http://www.w3.org/2000/svg" xml:space="preserve" width="500px" height="160px" version="1.1" shape-rendering="geometricPrecision" text-rendering="geometricPrecision" image-rendering="optimizeQuality" fill-rule="evenodd" clip-rule="evenodd"
viewBox="0 0 500 160"
 xmlns:xlink="http://www.w3.org/1999/xlink">
 <g id="Layer_x0020_1">
  <metadata id="CorelCorpID_0Corel-Layer"/>
  <rect fill="none" width="500" height="160"/>
  <path fill="#333333" fill-rule="nonzero" d="M418 109l0 -64 6 0 0 25c1,-2 3,-4 5,-5 3,-1 6,-2 10,-2 6,0 10,1 12,4 2,2 4,6 4,12l0 30 -7 0 0 -28c0,-5 -1,-8 -2,-9 -2,-2 -4,-3 -8,-3 -5,0 -8,1 -10,4 -3,2 -4,5 -4,10l0 26 -6 0zm-174 0l0 -45 6 0 0 6c1,-2 3,-4 5,-5 3,-1 6,-2 10,-2 6,0 10,1 12,4 3,2 4,6 4,12l0 30 -7 0 0 -28c0,-5 0,-8 -2,-9 -1,-2 -4,-3 -8,-3 -5,0 -8,1 -10,4 -2,2 -3,5 -3,10l0 26 -7 0zm-90 0l0 -45 6 0 0 6c1,-2 3,-4 5,-5 3,-1 6,-2 10,-2 6,0 10,1 12,4 2,2 4,6 4,12l0 30 -7 0 0 -28c0,-5 -1,-8 -2,-9 -2,-2 -4,-3 -8,-3 -5,0 -8,1 -10,4 -3,2 -4,5 -4,10l0 26 -6 0zm-91 -14l7 0 0 2c0,2 1,4 2,5 2,1 5,2 11,2 5,0 9,-1 10,-2 2,-1 2,-3 2,-6 0,-3 0,-5 -1,-6 -1,-1 -4,-1 -9,-2 -1,0 -3,0 -6,0 -6,0 -10,0 -11,-1 -2,-1 -3,-2 -3,-4 -1,-2 -2,-4 -2,-7 0,-5 2,-8 4,-10 3,-2 8,-3 17,-3 7,0 11,1 14,3 2,1 3,4 3,9l-7 0 0 -1c0,-2 0,-3 -2,-4 -2,-1 -5,-1 -10,-1 -5,0 -9,0 -10,1 -1,1 -2,3 -2,6 0,2 0,3 0,4 1,0 1,1 2,1 1,1 4,2 9,2 1,0 2,0 2,0 4,0 7,0 9,0 2,1 4,1 5,1 2,1 3,3 4,4 1,2 1,4 1,8 0,3 0,5 -1,7 -1,2 -2,3 -4,5 -1,0 -3,1 -5,1 -2,0 -5,0 -9,0 -8,0 -13,0 -16,-2 -3,-2 -4,-5 -4,-10l0 -2zm52 31l-14 0 0 -6 14 0c3,0 5,-1 6,-3 1,-1 1,-2 2,-3l0 -2 -4 -12 -12 -36 6 0 14 39 13 -39 7 0 -17 49c-2,5 -4,9 -6,11 -2,1 -3,2 -6,2 -1,0 -2,0 -3,0zm97 -56c-5,0 -8,3 -8,8l0 17c0,5 3,8 8,8l11 0c4,0 8,-3 8,-8l0 -17c0,-5 -4,-8 -8,-8l-11 0zm0 -7l11 0c7,0 14,7 14,15l0 17c0,8 -7,14 -14,14l-11 0c-8,0 -14,-6 -14,-14l0 -17c0,-8 6,-15 14,-15zm127 6l11 0c5,0 8,4 8,9l0 3 -27 0 0 -3c0,-5 4,-9 8,-9zm19 25l0 1c0,5 -3,8 -8,8l-11 0c-4,0 -8,-3 -8,-8l0 -7 7 0 20 0 6 0 0 -10c0,-8 -6,-15 -14,-15l-11 0c-8,0 -14,7 -14,15l0 17c0,8 6,14 14,14l11 0c8,0 14,-6 14,-14l0 -1 -6 0zm28 -25l10 0c5,0 8,4 8,9l0 2 7 0 0 -2c0,-8 -7,-15 -15,-15l-10 0c-8,0 -15,7 -15,15l0 17c0,8 7,14 15,14l10 0c8,0 15,-6 15,-14l0 -2 -7 0 0 2c0,5 -3,8 -8,8l-10 0c-5,0 -9,-3 -9,-8l0 -17c0,-5 4,-9 9,-9zm-91 -15l0 9 -7 0 0 7 7 0 0 39 6 0 0 -39 18 0 0 -7 -18 0 0 -9 -6 0z"/>
  <path fill="#333333" fill-rule="nonzero" d="M46 49c0,1 1,3 1,3 1,1 2,1 4,1 1,0 2,0 3,0 0,-1 1,-2 1,-4l0 -3c0,-2 -1,-3 -1,-3 -1,-1 -2,-1 -3,-1 -2,0 -3,0 -4,1 0,1 -1,2 -1,3l0 3zm150 7l-1 -1 0 -2 0 0 -5 -13 2 0 5 13 4 -13 3 0 -6 16c-1,2 -1,3 -2,4 -1,1 -1,1 -3,1 0,0 0,0 0,0 0,0 -1,0 -1,0l0 -2c0,0 0,0 0,0 1,0 1,0 1,0 1,0 1,0 2,0 0,-1 0,-1 1,-2l0 -1zm-152 -16l2 0 0 2c1,-1 1,-1 2,-2 1,0 2,0 3,0 2,0 4,0 5,1 0,1 1,3 1,5l0 3c0,3 -1,4 -1,5 -1,1 -3,1 -5,1 -1,0 -2,0 -3,0 -1,-1 -1,-1 -2,-2l0 8 -2 0 0 -21zm27 9l0 -3c0,-2 0,-3 0,-3 -1,-1 -2,-1 -4,-1l-1 0c-1,0 -2,0 -3,1 0,0 0,1 0,3l0 3c0,2 0,3 0,4 1,0 2,0 3,0l1 0c2,0 3,0 4,0 0,-1 0,-2 0,-4zm-5 6c-2,0 -3,0 -4,-1 -1,-1 -2,-2 -2,-5l0 -3c0,-2 1,-4 2,-5 1,-1 2,-1 4,-1l1 0c3,0 4,0 5,1 1,1 2,3 2,5l0 3c0,3 -1,4 -2,5 -1,1 -2,1 -5,1l-1 0zm10 -15l2 0 4 13 3 -13 3 0 4 13 3 -13 3 0 -5 15 -3 0 -3 -13 -4 13 -3 0 -4 -15zm26 6l9 0 0 -1c0,-1 0,-2 -1,-2 0,-1 -1,-1 -3,-1l-1 0c-1,0 -2,0 -3,1 0,0 -1,1 -1,2l0 1zm4 9c-2,0 -4,0 -5,-1 0,-1 -1,-2 -1,-5l0 -3c0,-2 1,-4 1,-5 1,-1 3,-1 5,-1l1 0c2,0 4,0 5,1 1,1 1,3 1,5l0 2 -11 0c0,0 0,0 0,1 0,0 0,0 0,0 0,2 1,3 1,3 1,1 2,1 3,1l1 0c2,0 3,0 3,0 1,-1 1,-1 1,-2l2 0c0,1 0,3 -1,3 -1,1 -3,1 -5,1l-1 0zm11 0l0 -15 3 0 0 2c0,-1 0,-1 1,-2 1,0 2,0 3,0 1,0 3,0 3,1 1,1 1,2 1,4l0 0 -2 0 0 0c0,-1 0,-2 -1,-3 0,0 -1,0 -2,0 -1,0 -2,0 -3,1 0,1 0,2 0,3l0 9 -3 0zm16 -9l9 0 0 -1c0,-1 -1,-2 -1,-2 -1,-1 -2,-1 -3,-1l-1 0c-2,0 -3,0 -3,1 -1,0 -1,1 -1,2l0 1zm4 9c-3,0 -4,0 -5,-1 -1,-1 -1,-2 -1,-5l0 -3c0,-2 0,-4 1,-5 1,-1 2,-1 5,-1l1 0c2,0 4,0 5,1 0,1 1,3 1,5l0 2 -11 0c0,0 0,0 0,1 0,0 0,0 0,0 0,2 0,3 1,3 0,1 1,1 3,1l1 0c1,0 2,0 3,0 0,-1 0,-1 0,-2l3 0c0,1 -1,3 -2,3 -1,1 -2,1 -4,1l-1 0zm21 -6l0 -3c0,-1 0,-2 -1,-3 -1,-1 -2,-1 -4,-1 -1,0 -2,0 -3,1 0,0 0,1 0,3l0 3c0,2 0,3 0,4 1,0 2,0 3,0 2,0 3,0 4,-1 1,0 1,-2 1,-3zm0 4c0,1 -1,1 -2,2 0,0 -1,0 -3,0 -2,0 -3,0 -4,-1 -1,-1 -2,-2 -2,-5l0 -3c0,-2 1,-4 2,-5 1,-1 2,-1 4,-1 1,0 2,0 3,0 1,1 2,1 2,2l0 -8 2 0 0 21 -2 0 0 -2zm19 -7l0 3c0,1 1,3 1,3 1,1 2,1 4,1 1,0 2,0 3,0 0,-1 0,-2 0,-4l0 -3c0,-2 0,-3 0,-3 -1,-1 -2,-1 -3,-1 -2,0 -3,0 -4,1 0,1 -1,2 -1,3zm-2 9l0 -21 2 0 0 8c1,-1 1,-1 2,-2 1,0 2,0 3,0 2,0 4,0 4,1 1,1 2,3 2,5l0 3c0,3 -1,4 -2,5 0,1 -2,1 -4,1 -1,0 -2,0 -3,0 -1,-1 -2,-1 -2,-2l0 2 -2 0z"/>
  <path fill="#333333" d="M45 25l410 0c11,0 20,9 20,20l0 70c0,11 -9,20 -20,20l-410 0c-11,0 -20,-9 -20,-20l0 -70c0,-11 9,-20 20,-20zm0 4l410 0c9,0 17,7 17,16l0 70c0,9 -8,16 -17,16l-410 0c-9,0 -17,-7 -17,-16l0 -70c0,-9 8,-16 17,-16z"/>
 </g>
</svg>
