<?xml version="1.0" encoding="UTF-8"?>
<!DOCTYPE svg PUBLIC "-//W3C//DTD SVG 1.1//EN" "http://www.w3.org/Graphics/SVG/1.1/DTD/svg11.dtd">
<!-- Creator: CorelDRAW X7 -->
<svg xmlns="http://www.w3.org/2000/svg" xml:space="preserve" width="500px" height="140px" version="1.1" shape-rendering="geometricPrecision" text-rendering="geometricPrecision" image-rendering="optimizeQuality" fill-rule="evenodd" clip-rule="evenodd"
viewBox="0 0 500 140"
 xmlns:xlink="http://www.w3.org/1999/xlink">
 <g id="Layer_x0020_1">
  <metadata id="CorelCorpID_0Corel-Layer"/>
  <rect fill="none" width="500" height="140"/>
  <path fill="white" fill-rule="nonzero" d="M432 96l0 -73 8 0 0 29c1,-3 3,-5 6,-6 3,-1 6,-2 11,-2 6,0 11,1 14,4 3,3 4,8 4,15l0 33 -8 0 0 -32c0,-5 0,-9 -2,-10 -2,-2 -5,-3 -9,-3 -6,0 -10,1 -12,4 -3,2 -4,6 -4,11l0 30 -8 0zm-199 0l0 -51 7 0 0 7c1,-3 3,-5 6,-6 3,-1 7,-2 11,-2 7,0 12,1 14,4 3,3 4,8 4,15l0 33 -7 0 0 -32c0,-5 -1,-9 -3,-10 -1,-2 -4,-3 -9,-3 -5,0 -9,1 -12,4 -2,2 -4,6 -4,11l0 30 -7 0zm-104 0l0 -51 7 0 0 7c2,-3 4,-5 6,-6 3,-1 7,-2 11,-2 7,0 12,1 15,4 2,3 4,8 4,15l0 33 -8 0 0 -32c0,-5 -1,-9 -2,-10 -2,-2 -5,-3 -10,-3 -5,0 -9,1 -12,4 -2,2 -3,6 -3,11l0 30 -8 0zm-104 -15l8 0 0 1c0,3 1,6 3,7 2,1 6,2 12,2 6,0 10,-1 12,-2 1,-1 2,-4 2,-7 0,-4 -1,-6 -2,-7 -1,-1 -4,-2 -9,-2 -2,0 -5,0 -8,0 -7,-1 -11,-1 -12,-2 -2,-1 -4,-2 -4,-4 -1,-2 -2,-5 -2,-8 0,-6 2,-10 5,-12 3,-2 9,-3 19,-3 8,0 13,1 16,3 2,2 4,5 4,10l-8 0 0 0c0,-3 -1,-4 -3,-5 -2,-1 -6,-1 -12,-1 -5,0 -9,0 -11,1 -1,1 -2,3 -2,7 0,2 0,3 0,4 1,1 1,1 2,2 2,1 5,1 10,1 2,0 3,0 3,0 5,1 8,1 11,1 2,0 4,1 5,1 2,1 4,3 5,5 1,2 1,5 1,8 0,4 0,7 -1,9 -1,2 -3,4 -5,5 -2,1 -3,1 -6,2 -2,0 -6,0 -10,0 -10,0 -16,-1 -19,-3 -3,-2 -4,-6 -4,-12l0 -1zm60 36l-16 0 0 -7 16 0c3,0 5,-1 7,-4 0,-1 1,-2 2,-4l0 -2 -4 -14 -15 -41 8 0 15 44 15 -44 8 0 -19 56c-3,6 -5,10 -7,12 -2,2 -4,3 -7,3 -1,1 -2,1 -3,1zm111 -66c-5,0 -9,4 -9,10l0 20c0,5 4,9 9,9l12 0c5,0 10,-4 10,-9l0 -20c0,-6 -5,-10 -10,-10l-12 0zm0 -7l12 0c9,0 17,7 17,17l0 20c0,9 -8,16 -17,16l-12 0c-9,0 -16,-7 -16,-16l0 -20c0,-10 7,-17 16,-17zm147 7l12 0c5,0 9,4 9,10l0 4 -31 0 0 -4c0,-6 4,-10 10,-10zm21 28l0 2c0,5 -4,9 -9,9l-12 0c-6,0 -10,-4 -10,-9l0 -9 8 0 23 0 7 0 0 -11c0,-10 -7,-17 -16,-17l-12 0c-10,0 -17,7 -17,17l0 20c0,9 7,16 17,16l12 0c9,0 16,-7 16,-16l0 -2 -7 0zm32 -28l12 0c5,0 9,4 9,10l0 3 7 0 0 -3c0,-10 -7,-17 -16,-17l-12 0c-9,0 -17,7 -17,17l0 20c0,9 8,16 17,16l12 0c9,0 16,-7 16,-16l0 -3 -7 0 0 3c0,5 -4,9 -9,9l-12 0c-5,0 -10,-4 -10,-9l0 -20c0,-6 5,-10 10,-10zm-104 -18l0 11 -9 0 0 8 9 0 0 44 7 0 0 -44 21 0 0 -8 -21 0 0 -11 -7 0z"/>
 </g>
</svg>
