<?xml version="1.0" encoding="UTF-8"?>
<!DOCTYPE svg PUBLIC "-//W3C//DTD SVG 1.1//EN" "http://www.w3.org/Graphics/SVG/1.1/DTD/svg11.dtd">
<!-- Creator: CorelDRAW X7 -->
<svg xmlns="http://www.w3.org/2000/svg" xml:space="preserve" width="1920px" height="1000px" version="1.1" shape-rendering="geometricPrecision" text-rendering="geometricPrecision" image-rendering="optimizeQuality" fill-rule="evenodd" clip-rule="evenodd"
viewBox="0 0 1920 1000"
 xmlns:xlink="http://www.w3.org/1999/xlink">
 <g id="Layer_x0020_1">
  <metadata id="CorelCorpID_0Corel-Layer"/>
  <g id="background">
   <rect fill="black" width="1920" height="1000"/>
   <g>
    <line fill="none" stroke="#333333" stroke-width="0.999213" x1="107" y1="0" x2="107" y2= "1000" />
    <line fill="none" stroke="#333333" stroke-width="0.999213" x1="213" y1="0" x2="213" y2= "1000" />
    <line fill="none" stroke="#333333" stroke-width="0.999213" x1="320" y1="0" x2="320" y2= "1000" />
    <line fill="none" stroke="#333333" stroke-width="0.999213" x1="427" y1="0" x2="427" y2= "1000" />
    <line fill="none" stroke="#333333" stroke-width="0.999213" x1="533" y1="0" x2="533" y2= "1000" />
    <line fill="none" stroke="#333333" stroke-width="0.999213" x1="640" y1="0" x2="640" y2= "1000" />
    <line fill="none" stroke="#333333" stroke-width="0.999213" x1="747" y1="0" x2="747" y2= "1000" />
    <line fill="none" stroke="#333333" stroke-width="0.999213" x1="853" y1="0" x2="853" y2= "1000" />
    <line fill="none" stroke="#333333" stroke-width="0.999213" x1="960" y1="0" x2="960" y2= "1000" />
    <line fill="none" stroke="#333333" stroke-width="0.999213" x1="1067" y1="0" x2="1067" y2= "1000" />
    <line fill="none" stroke="#333333" stroke-width="0.999213" x1="1173" y1="0" x2="1173" y2= "1000" />
    <line fill="none" stroke="#333333" stroke-width="0.999213" x1="1280" y1="0" x2="1280" y2= "1000" />
    <line fill="none" stroke="#333333" stroke-width="0.999213" x1="1387" y1="0" x2="1387" y2= "1000" />
    <line fill="none" stroke="#333333" stroke-width="0.999213" x1="1493" y1="0" x2="1493" y2= "1000" />
    <line fill="none" stroke="#333333" stroke-width="0.999213" x1="1600" y1="0" x2="1600" y2= "1000" />
    <line fill="none" stroke="#333333" stroke-width="0.999213" x1="1707" y1="0" x2="1707" y2= "1000" />
    <line fill="none" stroke="#333333" stroke-width="0.999213" x1="1813" y1="0" x2="1813" y2= "1000" />
    <line fill="none" stroke="#333333" stroke-width="0.999213" x1="0" y1="900" x2="1920" y2= "900" />
    <line fill="none" stroke="#333333" stroke-width="0.999213" x1="0" y1="800" x2="1920" y2= "800" />
    <line fill="none" stroke="#333333" stroke-width="0.999213" x1="0" y1="700" x2="1920" y2= "700" />
    <line fill="none" stroke="#333333" stroke-width="0.999213" x1="0" y1="600" x2="1920" y2= "600" />
    <line fill="none" stroke="#333333" stroke-width="0.999213" x1="0" y1="500" x2="1920" y2= "500" />
    <line fill="none" stroke="#333333" stroke-width="0.999213" x1="0" y1="400" x2="1920" y2= "400" />
    <line fill="none" stroke="#333333" stroke-width="0.999213" x1="0" y1="300" x2="1920" y2= "300" />
    <line fill="none" stroke="#333333" stroke-width="0.999213" x1="0" y1="200" x2="1920" y2= "200" />
    <line fill="none" stroke="#333333" stroke-width="0.999213" x1="0" y1="100" x2="1920" y2= "100" />
   </g>
  </g>
 </g>
</svg>
