<?xml version="1.0" encoding="UTF-8"?>
<!DOCTYPE svg PUBLIC "-//W3C//DTD SVG 1.1//EN" "http://www.w3.org/Graphics/SVG/1.1/DTD/svg11.dtd">
<!-- Creator: CorelDRAW X7 -->
<svg xmlns="http://www.w3.org/2000/svg" xml:space="preserve" width="350px" height="130px" version="1.1" shape-rendering="geometricPrecision" text-rendering="geometricPrecision" image-rendering="optimizeQuality" fill-rule="evenodd" clip-rule="evenodd"
viewBox="0 0 350 130"
 xmlns:xlink="http://www.w3.org/1999/xlink">
 <g id="Layer_x0020_1">
  <metadata id="CorelCorpID_0Corel-Layer"/>
  <rect fill="none" width="350" height="130"/>
  <g id="_1708459649360">
   <polygon fill="#333333" fill-rule="nonzero" points="80,109 100,109 64,65 96,27 76,27 44,65 "/>
   <polygon fill="#333333" fill-rule="nonzero" points="27,27 42,27 42,109 27,109 "/>
   <path fill="#FF6600" fill-rule="nonzero" d="M85 86l0 -41 15 -18 0 0 0 33 53 0 0 -33 15 0 0 82 -15 0 0 -34 -53 0 0 29 -15 -18zm111 23c-2,0 -5,-1 -7,-3 -3,-1 -5,-3 -6,-5 -1,-3 -2,-5 -2,-8l0 -50 15 0 0 49c0,1 0,1 0,1 0,1 1,1 1,1l34 0c1,0 1,0 1,-1 0,0 1,0 1,-1l0 -49 14 0 0 50c0,3 0,5 -2,8 -1,2 -3,4 -5,5 -3,2 -5,3 -8,3l-36 0 0 0zm61 0l0 0 0 -88 15 0 0 22 36 0c3,0 5,1 8,2 2,2 4,3 5,6 2,2 2,5 2,8l0 34c0,3 0,5 -2,8 -1,2 -3,4 -5,5 -3,2 -5,3 -8,3l-51 0zm16 -15l34 0c1,0 1,0 1,-1 1,0 1,0 1,-1l0 -33c0,0 0,-1 -1,-1 0,0 0,0 -1,0l-34 0c0,0 -1,0 -1,0 0,0 0,1 0,1l0 33c0,1 0,1 0,1 0,1 1,1 1,1z"/>
  </g>
 </g>
</svg>
