<?xml version="1.0" encoding="UTF-8"?>
<!DOCTYPE svg PUBLIC "-//W3C//DTD SVG 1.1//EN" "http://www.w3.org/Graphics/SVG/1.1/DTD/svg11.dtd">
<!-- Creator: CorelDRAW X7 -->
<svg xmlns="http://www.w3.org/2000/svg" xml:space="preserve" width="64px" height="64px" version="1.1" shape-rendering="geometricPrecision" text-rendering="geometricPrecision" image-rendering="optimizeQuality" fill-rule="evenodd" clip-rule="evenodd"
viewBox="0 0 64 64"
 xmlns:xlink="http://www.w3.org/1999/xlink">
 <g id="Layer_x0020_1">
  <metadata id="CorelCorpID_0Corel-Layer"/>
  <path fill="#333333" d="M60 64l-56 0c-2,0 -4,-2 -4,-4l0 -56c0,-2 2,-4 4,-4l56 0c2,0 4,2 4,4l0 56c0,2 -2,4 -4,4z"/>
  <path fill="#FF6600" fill-rule="nonzero" d="M23 20l30 0c0,0 0,0 0,0l0 0c0,0 1,0 1,0l0 0c0,-1 -1,-1 -1,-1l0 0c0,0 0,0 0,0l-30 0c-1,0 -1,0 -1,0l0 0c0,0 0,0 0,1l0 0c0,0 0,0 0,0l0 0c0,0 0,0 1,0zm-14 14l3 0 0 -1c0,0 0,-1 1,-1l1 0 0 -1c0,0 0,0 0,0l5 0c0,0 1,0 1,0l0 1 1 0c0,0 0,1 0,1l0 1 3 0c1,0 1,0 1,0l0 0c1,0 1,1 1,1l0 5c1,-1 2,-1 3,-1 0,0 0,0 1,0 -1,0 -1,0 -1,0l0 0 0 0c-2,-3 -4,-6 -4,-9l0 -1c0,0 -1,0 -2,-1 0,-1 -1,-2 -1,-3 0,-1 1,-2 1,-2 1,-1 1,-1 2,-1l-2 0c-1,0 -2,-1 -2,-1l0 0c0,0 0,-1 0,-1l0 0c0,-1 0,-1 0,-2l0 0c0,0 1,0 1,0 1,-4 2,-7 5,-9 3,-3 7,-4 11,-5l0 0 0 0 0 0 0 0c4,1 8,2 11,5 2,2 4,5 4,9 1,0 1,0 1,0l0 0c1,1 1,1 1,2l0 0c0,0 0,1 -1,1l0 0c0,0 0,1 -1,1l-2 0c0,0 1,0 1,1 1,0 1,1 1,2 0,1 0,2 -1,3 0,1 -1,1 -2,1l0 1c0,3 -1,6 -4,9 0,0 0,0 0,0 0,0 0,0 0,0 0,0 1,0 1,0 3,0 5,2 7,4 1,2 2,4 2,7l0 9c0,0 0,1 0,1l-18 0 -13 0 0 0 -1 0 -4 0 0 0 -11 0c-1,0 -1,-1 -1,-1l0 0c0,0 0,0 0,-1l0 -23c0,0 0,-1 0,-1l0 0 0 0c0,0 0,0 1,0zm17 8l0 16 10 0 -5 -6c-1,0 -1,-1 -1,-1l2 -4 -4 -2 0 0c0,-1 0,-1 0,-1l2 -4c0,0 -1,0 -1,0 -1,1 -2,1 -3,2zm26 -24c-1,-3 -2,-6 -4,-8 -3,-3 -7,-4 -10,-4l0 0 0 0 0 0c-4,0 -7,1 -10,4 -2,2 -4,5 -4,8l28 0zm-21 23l-1 3 4 2c0,0 0,1 0,1l0 0 -2 4 6 7 6 -7 -2 -4c-1,-1 0,-1 0,-1l4 -2 -2 -3c0,0 -1,0 -1,0 -1,0 -3,1 -5,1 -3,0 -4,-1 -5,-1 -1,0 -1,0 -2,0zm15 -1l2 4 0 0c0,0 0,0 -1,1l-4 2 2 4 0 0c0,0 0,1 0,1l-5 6 15 0 0 -8c0,-2 -1,-5 -2,-6 -2,-2 -4,-3 -6,-4 -1,0 -1,0 -1,0zm4 -12c1,0 1,-1 1,-1 1,0 1,-1 1,-2 0,0 0,-1 -1,-1 0,-1 0,-1 -1,-1l0 5zm-25 -5c0,0 0,0 -1,1 0,0 0,1 0,1 0,1 0,2 0,2 1,0 1,1 1,1l0 -5zm2 -1l0 0 0 7 0 1c0,3 1,6 3,7l0 0c2,2 5,3 8,3 3,0 5,-1 7,-3 0,0 0,0 0,0 2,-1 4,-4 4,-7l0 -1 0 -7 0 0 -11 0 -11 0zm-7 20c1,0 1,0 1,0 0,0 0,0 0,1l-2 2c0,0 0,0 -1,0l0 0 -1 -1c0,0 0,-1 0,-1 1,0 1,0 1,0l1 1 1 -2zm1 14l1 0 0 -3 -1 0 0 3zm-4 0l1 0 0 -4 -1 0 0 4zm-4 0l1 0 0 -6 -1 0 0 6zm11 0c0,0 0,0 0,0 0,1 0,1 0,1l-1 0 -3 0 -1 0 -3 0 -1 0 -3 0 -2 0c0,0 -1,0 -1,-1l0 -11c0,0 1,0 1,0 0,0 1,0 1,0l0 11 1 0 0 -7c0,0 0,-1 0,-1l3 0c0,0 0,1 0,1l0 7 1 0 0 -5c0,0 0,0 0,0l3 0c0,0 0,0 0,0l0 5 1 0 0 -3c0,-1 0,-1 0,-1l3 0c0,0 0,0 0,1l0 3 1 0zm-2 -15l-5 0 0 5 5 0 0 -5zm-6 -1l6 0c1,0 1,0 1,1l0 5c0,1 0,1 -1,1l-6 0c0,0 0,0 0,-1l0 -5c0,-1 0,-1 0,-1zm-3 -6l0 0 7 0 0 0 0 -1 -1 0c0,0 0,0 0,0l0 -1 -4 0 0 1c0,0 0,0 -1,0l-1 0 0 1zm-1 1l-3 0c0,0 0,0 0,0l0 0c0,0 0,0 0,0l0 23c0,0 0,0 0,0l0 0c0,0 0,0 0,0l15 0c1,0 1,0 1,0l0 0c0,0 0,0 0,0l0 -23c0,0 0,0 0,0l0 0 0 0c0,0 0,0 -1,0l-3 0 0 0c0,0 0,1 0,1l-8 0c-1,0 -1,-1 -1,-1l0 0z"/>
 </g>
</svg>
