<?xml version="1.0" encoding="UTF-8"?>
<!DOCTYPE svg PUBLIC "-//W3C//DTD SVG 1.1//EN" "http://www.w3.org/Graphics/SVG/1.1/DTD/svg11.dtd">
<!-- Creator: CorelDRAW X7 -->
<svg xmlns="http://www.w3.org/2000/svg" xml:space="preserve" width="1920px" height="1000px" version="1.1" shape-rendering="geometricPrecision" text-rendering="geometricPrecision" image-rendering="optimizeQuality" fill-rule="evenodd" clip-rule="evenodd"
viewBox="0 0 1920 1000"
 xmlns:xlink="http://www.w3.org/1999/xlink">
 <g id="Layer_x0020_1">
  <metadata id="CorelCorpID_0Corel-Layer"/>
  <g id="kerfcut_logo">
   <path fill="white" fill-rule="nonzero" d="M200 477l13 0 0 -3c0,-1 0,-1 0,-1 0,0 0,0 0,0l-12 0c0,0 -1,0 -1,0 0,0 0,0 0,1l0 3zm40 -9l0 -2c0,-1 0,-2 1,-3 0,0 1,-1 1,-2 1,0 2,0 3,0l9 0 0 5 -9 0c0,0 0,0 0,0 0,0 0,0 0,0l0 2 9 0 0 5 -9 0 0 18 -5 0 0 0 0 -18 -13 0c0,0 0,0 0,0 0,0 0,0 0,1l0 14 0 3 0 0 -27 0 1 0c-1,0 -2,-1 -3,-1 -1,-1 -2,-1 -2,-2 -1,-1 -1,-2 -1,-3l0 -12c0,-1 0,-1 1,-2 0,-1 1,-2 2,-2 1,-1 2,-1 3,-1l12 0c1,0 2,0 2,1 1,0 2,1 2,2 1,1 1,1 1,2l0 9 -18 0 0 3c0,0 0,0 0,0 0,1 1,1 1,1l21 0 0 -13c0,-1 0,-1 1,-2 0,-1 1,-2 2,-2 0,-1 1,-1 2,-1l13 0zm-73 -5l5 0 0 28 -5 0 0 -28zm19 28l6 0 -12 -15 11 -13 -7 0 -11 13 13 15z"/>
   <path fill="#FF6600" fill-rule="nonzero" d="M265 491c-1,0 -2,-1 -3,-1 0,-1 -1,-1 -2,-2 0,-1 0,-2 0,-3l0 -17c0,-1 0,-2 0,-3 1,-1 2,-1 2,-2 1,0 2,0 3,0l23 0 0 5 -22 0c0,0 -1,0 -1,0 0,0 0,1 0,1l0 15c0,0 0,1 0,1 0,0 1,0 1,0l22 0 0 6 -23 0zm32 0c-1,0 -2,-1 -3,-1 -1,-1 -1,-1 -2,-2 0,-1 0,-2 0,-3l0 -17 5 0 0 17c0,0 0,0 0,0 0,1 0,1 0,1l12 0c0,0 0,0 0,-1 0,0 0,0 0,0l0 -17 6 0 0 17c0,1 -1,2 -1,3 -1,1 -1,1 -2,2 -1,0 -2,1 -3,1l-12 0 0 0zm26 0c-1,0 -2,-1 -3,-1 0,-1 -1,-1 -1,-2 -1,-1 -1,-2 -1,-3l0 -24 5 0 0 7 9 0 0 5 -9 0 0 12c0,0 0,0 0,0 0,1 0,1 0,1l9 0 0 5 -9 0z"/>
  </g>
 </g>
</svg>
