<?xml version="1.0" encoding="UTF-8"?>
<!DOCTYPE svg PUBLIC "-//W3C//DTD SVG 1.1//EN" "http://www.w3.org/Graphics/SVG/1.1/DTD/svg11.dtd">
<!-- Creator: CorelDRAW X7 -->
<svg xmlns="http://www.w3.org/2000/svg" xml:space="preserve" version="1.1" shape-rendering="geometricPrecision" text-rendering="geometricPrecision" image-rendering="optimizeQuality" fill-rule="evenodd" clip-rule="evenodd"
viewBox="172 513 205 43"
 xmlns:xlink="http://www.w3.org/1999/xlink">
 <g id="Layer_x0020_1">
  <metadata id="CorelCorpID_0Corel-Layer"/>
  <g id="kerfstock_logo">
   <path fill="white" fill-rule="nonzero" d="M200 527l13 0 0 -3c0,-1 0,-1 0,-1 0,0 0,0 -1,0l-11 0c0,0 -1,0 -1,0 0,0 0,0 0,1l0 3zm40 -9l0 -2c0,-1 0,-2 1,-3 0,0 1,-1 1,-2 1,0 2,0 3,0l9 0 0 5 -9 0c0,0 0,0 0,0 0,0 0,0 0,0l0 2 9 0 0 5 -9 0 0 18 -5 0 0 0 0 -18 -13 0c0,0 0,0 0,0 0,0 0,0 0,1l0 14 0 3 0 0 -27 0 1 0c-1,0 -2,-1 -3,-1 -1,-1 -2,-1 -2,-2 -1,-1 -1,-2 -1,-3l0 -12c0,-1 0,-1 1,-2 0,-1 1,-2 2,-2 1,-1 2,-1 3,-1l12 0c1,0 2,0 2,1 1,0 2,1 2,2 1,1 1,1 1,2l0 9 -18 0 0 3c0,0 0,0 0,0 0,1 1,1 1,1l21 0 0 -13c0,-1 0,-1 1,-2 0,-1 1,-2 2,-2 0,-1 1,-1 2,-1l13 0zm-73 -5l5 0 0 28 -5 0 0 -28zm19 28l6 0 -12 -15 11 -13 -7 0 -11 13 13 15z"/>
   <path fill="#FF6600" fill-rule="nonzero" d="M265 541c-1,0 -2,-1 -3,-1 -1,-1 -1,-1 -2,-2 0,-1 0,-2 0,-3l0 -2 5 0 0 2c0,0 0,0 0,0 0,0 0,0 0,0l17 0c0,0 0,0 0,0 0,0 0,0 0,0l0 -5c0,0 0,-1 0,-1 0,0 0,0 0,0l-17 0c-1,0 -2,0 -3,-1 -1,0 -1,-1 -2,-2 0,0 0,-1 0,-2l0 -6c0,-1 0,-2 0,-3 1,-1 1,-1 2,-2 1,0 2,0 3,0l17 0c1,0 2,0 3,0 1,1 1,1 2,2 0,1 1,2 1,3l0 2 -6 0 0 -2c0,0 0,0 0,0 0,0 0,0 0,0l-17 0c0,0 0,0 0,0 0,0 0,0 0,0l0 6c0,0 0,0 0,0 0,0 0,0 0,0l17 0c1,0 2,0 3,1 1,0 1,1 2,2 0,1 1,1 1,2l0 6c0,1 -1,2 -1,3 -1,1 -1,1 -2,2 -1,0 -2,1 -3,1l-17 0zm32 0c-1,0 -2,-1 -3,-1 0,-1 -1,-1 -2,-2 0,-1 0,-2 0,-3l0 -24 5 0 0 7 9 0 0 5 -9 0 0 12c0,0 0,0 0,0 0,1 0,1 0,1l9 0 0 5 -9 0zm17 0c-1,0 -2,-1 -3,-1 0,-1 -1,-1 -2,-2 0,-1 0,-2 0,-3l0 -12c0,-1 0,-1 0,-2 1,-1 2,-2 2,-2 1,-1 2,-1 3,-1l12 0c1,0 2,0 3,1 1,0 1,1 2,2 0,1 1,1 1,2l0 12c0,1 -1,2 -1,3 -1,1 -1,1 -2,2 -1,0 -2,1 -3,1l-12 0 0 0zm0 -5l12 0c0,0 0,0 0,-1 1,0 1,0 1,0l0 -11c0,-1 0,-1 -1,-1 0,0 0,0 0,0l-12 0c0,0 0,0 0,0 0,0 0,0 0,1l0 11c0,0 0,0 0,0 0,1 0,1 0,1zm27 5c-1,0 -2,-1 -3,-1 0,-1 -1,-1 -2,-2 0,-1 0,-2 0,-3l0 -12c0,-1 0,-1 0,-2 1,-1 2,-2 2,-2 1,-1 2,-1 3,-1l18 0 0 5 -18 0c0,0 0,0 0,0 0,0 0,0 0,1l0 11c0,0 0,0 0,0 0,1 0,1 0,1l18 0 0 5 -18 0 0 0zm21 0l0 0 0 -30 5 0 0 16 4 0 8 -9 6 0 0 1 -9 10 8 10 0 2 -5 0 -8 -9 -4 0 0 9 -5 0z"/>
  </g>
 </g>
</svg>
