<?xml version="1.0" encoding="UTF-8"?>
<!DOCTYPE svg PUBLIC "-//W3C//DTD SVG 1.1//EN" "http://www.w3.org/Graphics/SVG/1.1/DTD/svg11.dtd">
<!-- Creator: CorelDRAW X7 -->
<svg xmlns="http://www.w3.org/2000/svg" xml:space="preserve" width="1920px" height="1000px" version="1.1" shape-rendering="geometricPrecision" text-rendering="geometricPrecision" image-rendering="optimizeQuality" fill-rule="evenodd" clip-rule="evenodd"
viewBox="0 0 1920 1000"
 xmlns:xlink="http://www.w3.org/1999/xlink">
 <g id="Layer_x0020_1">
  <metadata id="CorelCorpID_0Corel-Layer"/>
  <g id="Feed_Rate_logo">
   <path fill="#FF6600" d="M652 917l13 0 0 3 -10 0 0 5 10 0 0 3 -10 0 0 8 -3 0 0 -19zm17 13c0,4 4,5 9,4 0,0 0,1 0,2 -1,0 -2,0 -4,0 -4,0 -8,-1 -8,-6 0,-2 0,-4 1,-6 1,-1 3,-2 5,-2 3,0 4,1 5,2 2,1 2,2 2,4l0 2 -10 0zm4 -6c1,0 3,1 3,4l-7 0c0,-3 2,-4 4,-4zm11 6c0,4 4,5 9,4 0,0 0,1 0,2 -1,0 -2,0 -4,0 -4,0 -8,-1 -8,-6 0,-2 0,-4 1,-6 1,-1 3,-2 5,-2 2,0 4,1 5,2 1,1 2,2 2,4l0 2 -10 0zm3 -6c2,0 4,1 4,4l-7 0c0,-3 2,-4 3,-4zm19 10l0 -9c-1,0 -3,-1 -4,0 -2,0 -3,1 -3,4 0,3 1,4 2,5 2,0 4,0 5,0zm3 -17l-3 0 0 6c-3,-1 -5,-1 -8,0 -2,1 -2,4 -2,6 0,2 1,5 2,6 3,2 7,1 11,0l0 -12 0 -6z"/>
   <path fill="#FF6600" d="M699 953c0,4 4,5 10,4 0,1 0,2 0,3 -2,0 -3,0 -5,0 -5,0 -9,-2 -9,-7 0,-3 1,-5 2,-6 1,-2 3,-3 5,-3 3,0 5,1 6,2 1,1 1,3 1,5l0 2 -10 0zm3 -6c2,0 5,1 4,4l-7 0c-1,-3 2,-4 3,-4zm-41 -8l-9 0 0 21 3 0 0 -18 6 0c2,0 3,1 3,3 0,2 -3,4 -6,4l0 1 7 10 4 0 -7 -9c4,-2 6,-4 5,-7 0,-2 -1,-5 -6,-5zm19 12l0 -1c0,-1 0,-2 -1,-3 -2,0 -6,0 -8,1l0 -3c1,0 4,-1 5,-1 5,0 7,2 7,6l0 10 -1 0c-1,0 -1,-1 -2,-1 -1,0 -3,1 -5,1 -3,0 -5,-1 -5,-5 0,-2 1,-5 5,-5 2,0 4,1 5,1zm0 5c-1,1 -2,1 -3,1 -3,1 -4,0 -4,-2 0,-1 1,-2 4,-2 1,0 2,0 3,0l0 3zm14 -9l0 -3 -5 0c0,0 0,-1 -1,-2l-1 0 0 14c0,3 1,4 4,4 1,0 2,0 3,0l0 -3c-1,0 -2,0 -2,0 -1,0 -2,0 -2,-2l0 -8 4 0z"/>
   <path fill="#FF6600" d="M682 914l7 0c0,-1 0,-2 1,-3l-8 0c-1,0 -2,1 -2,1l0 0c0,1 1,2 2,2zm27 -10l-18 15c0,-6 0,-7 3,-9l7 -6 -7 -6c-3,-2 -3,-2 -3,-8l18 14zm-34 -9c-1,0 -1,1 -1,1 0,1 0,2 1,2 1,0 1,-1 1,-2 0,0 0,-1 -1,-1zm-4 13c-1,0 -1,0 -1,-1 0,-1 0,-1 1,-1 1,0 1,0 1,1 0,1 0,1 -1,1zm8 -10l11 0c-1,-1 -1,-2 -1,-3l-10 0c0,0 -1,1 -1,1l0 0c0,1 1,2 1,2zm11 2c1,0 3,2 3,4 0,3 -2,4 -3,4l-15 0c0,0 -1,0 -1,-1l0 0c0,-1 1,-1 1,-1l14 0c2,0 2,-3 0,-3l-9 0c-1,0 -2,-1 -2,-1l0 0c0,-1 1,-2 2,-2l10 0zm-19 0l4 0c1,0 2,1 2,2l0 0c0,0 -1,1 -2,1l-4 0c-1,0 -1,-1 -1,-1l0 0c0,-1 0,-2 1,-2zm4 14l2 0c1,0 2,-1 2,-2l0 0c0,0 -1,-1 -2,-1l-2 0c-1,0 -1,1 -1,1l0 0c0,1 0,2 1,2z"/>
  </g>
 </g>
</svg>
