<?xml version="1.0" encoding="UTF-8"?>
<!DOCTYPE svg PUBLIC "-//W3C//DTD SVG 1.1//EN" "http://www.w3.org/Graphics/SVG/1.1/DTD/svg11.dtd">
<!-- Creator: CorelDRAW X7 -->
<svg xmlns="http://www.w3.org/2000/svg" xml:space="preserve" width="64px" height="64px" version="1.1" shape-rendering="geometricPrecision" text-rendering="geometricPrecision" image-rendering="optimizeQuality" fill-rule="evenodd" clip-rule="evenodd"
viewBox="0 0 64 64"
 xmlns:xlink="http://www.w3.org/1999/xlink">
 <defs>
    <linearGradient id="id0" gradientUnits="userSpaceOnUse" x1="32" y1="64" x2="32" y2="0">
     <stop offset="0" stop-opacity="1" stop-color="#034B61"/>
     <stop offset="1" stop-opacity="1" stop-color="#009897"/>
    </linearGradient>
 </defs>
 <g id="Layer_x0020_1">
  <metadata id="CorelCorpID_0Corel-Layer"/>
  <g id="_1708437546400">
   <rect fill="url(#id0)" width="64" height="64"/>
   <path fill="white" d="M21 45l10 0c0,-1 1,-2 1,-4l-11 0c-1,0 -2,1 -2,2l0 0c0,1 1,2 2,2zm39 -13l-25 20c-1,-8 0,-9 3,-11l11 -9 -11 -9c-3,-2 -4,-3 -3,-11l25 20zm-49 -13c-1,0 -2,1 -2,2 0,1 1,2 2,2 1,0 2,-1 2,-2 0,-1 -1,-2 -2,-2zm-5 19c-1,0 -2,-1 -2,-2 0,-1 1,-2 2,-2 1,0 2,1 2,2 0,1 -1,2 -2,2zm12 -15l14 0c0,-2 -1,-3 -1,-4l-13 0c-1,0 -2,1 -2,2l0 0c0,1 1,2 2,2zm14 3c2,0 6,2 6,6 0,4 -4,6 -6,6l-20 0c-1,0 -2,-1 -2,-2l0 0c0,-1 1,-2 2,-2l20 0c2,0 2,-4 0,-4l-14 0c-1,0 -2,-1 -2,-2l0 0c0,-1 1,-2 2,-2l14 0zm-26 0l6 0c1,0 2,1 2,2l0 0c0,1 -1,2 -2,2l-6 0c-1,0 -2,-1 -2,-2l0 0c0,-1 1,-2 2,-2zm5 19l4 0c1,0 2,-1 2,-2l0 0c0,-1 -1,-2 -2,-2l-4 0c-1,0 -2,1 -2,2l0 0c0,1 1,2 2,2z"/>
  </g>
 </g>
</svg>
