<?xml version="1.0" encoding="UTF-8"?>
<!DOCTYPE svg PUBLIC "-//W3C//DTD SVG 1.1//EN" "http://www.w3.org/Graphics/SVG/1.1/DTD/svg11.dtd">
<!-- Creator: CorelDRAW X7 -->
<svg xmlns="http://www.w3.org/2000/svg" xml:space="preserve" width="350px" height="410px" version="1.1" shape-rendering="geometricPrecision" text-rendering="geometricPrecision" image-rendering="optimizeQuality" fill-rule="evenodd" clip-rule="evenodd"
viewBox="0 0 350 410"
 xmlns:xlink="http://www.w3.org/1999/xlink">
 <defs>
    <linearGradient id="id0" gradientUnits="userSpaceOnUse" x1="175" y1="388.413" x2="175" y2="279.7">
     <stop offset="0" stop-opacity="1" stop-color="#034B61"/>
     <stop offset="1" stop-opacity="1" stop-color="#009897"/>
    </linearGradient>
    <linearGradient id="id1" gradientUnits="userSpaceOnUse" x1="220.874" y1="172.8" x2="220.874" y2="21.5871">
     <stop offset="0" stop-opacity="1" stop-color="#034B61"/>
     <stop offset="1" stop-opacity="1" stop-color="#009897"/>
    </linearGradient>
 </defs>
 <g id="Layer_x0020_1">
  <metadata id="CorelCorpID_0Corel-Layer"/>
  <rect fill="none" width="350" height="410"/>
  <g id="_1708134657168">
   <path fill="#202C38" d="M25 163l67 0 0 14 -51 0 0 30 50 0 0 14 -50 0 0 44 -16 0 0 -102zm89 69c0,21 19,24 48,18 0,4 0,9 0,13 -7,1 -13,2 -21,2 -24,0 -42,-10 -42,-33 0,-13 0,-24 6,-32 5,-6 14,-10 27,-10 11,0 21,3 26,9 6,5 7,12 7,23l0 10 -51 0zm18 -30c9,0 20,3 19,18l-37 0c-1,-12 10,-18 18,-18zm60 30c0,21 19,24 48,18 0,4 0,9 0,13 -7,1 -14,2 -21,2 -24,0 -42,-10 -42,-33 0,-13 0,-24 6,-32 5,-6 14,-10 27,-10 11,0 21,3 26,9 6,5 7,12 7,23l0 10 -51 0zm18 -30c9,0 20,3 18,18l-36 0c-1,-12 10,-18 18,-18zm99 48l0 -43c-8,-3 -15,-5 -25,-3 -8,2 -14,7 -14,22 -1,14 6,21 13,24 8,3 18,2 26,0zm16 -87l-16 0 0 30c-15,-4 -30,-4 -42,3 -9,6 -12,20 -12,31 0,11 3,24 12,30 15,12 37,8 58,2l0 -66 0 -30z"/>
   <path fill="url(#id0)" d="M269 352c0,23 21,27 52,20 0,5 0,9 0,14 -7,1 -15,2 -23,2 -26,0 -46,-10 -46,-36 0,-14 1,-25 8,-34 5,-6 15,-12 28,-12 13,0 23,5 29,10 6,6 7,14 7,25l0 11 -55 0zm20 -32c9,0 21,3 20,20l-40 0c-1,-14 11,-20 20,-20zm-215 -40l-48 0 0 108 17 0 0 -93 29 0c11,0 16,6 16,13 0,12 -15,22 -32,24l0 4 35 52 23 0 -34 -48c17,-8 27,-20 26,-34 -2,-14 -7,-26 -32,-26zm98 61l0 -5c0,-6 -1,-11 -7,-14 -11,-4 -31,-2 -41,3l0 -14c8,-3 19,-4 29,-4 25,0 35,9 35,28l0 53 -8 0c-3,-1 -5,-4 -7,-7 -8,4 -15,7 -26,7 -15,0 -29,-7 -29,-23 0,-14 5,-27 30,-27 8,0 16,1 24,3zm0 27c-5,2 -10,4 -17,6 -14,3 -21,-3 -21,-11 0,-6 4,-12 22,-12 5,0 11,1 16,3l0 14zm71 -48l0 -13 -23 0c-1,-5 -2,-9 -4,-14l-10 0 0 73c0,18 7,22 24,22 4,0 9,0 13,-1l0 -13c-3,0 -7,1 -11,1 -5,-1 -9,-3 -9,-11l0 -44 20 0z"/>
   <path fill="url(#id1)" d="M180 146l37 0c1,-5 3,-10 5,-14l-42 0c-3,0 -7,3 -7,7l0 0c0,4 4,7 7,7zm145 -49l-94 76c-1,-30 0,-34 13,-44l40 -32 -40 -31c-13,-11 -14,-15 -13,-44l94 75zm-180 -49c-4,0 -7,3 -7,7 0,4 3,7 7,7 4,0 7,-3 7,-7 0,-4 -3,-7 -7,-7zm-21 70c-4,0 -7,-3 -7,-7 0,-4 3,-7 7,-7 4,0 7,3 7,7 0,4 -3,7 -7,7zm44 -56l54 0c-2,-4 -4,-9 -5,-14l-49 0c-4,0 -7,3 -7,7l0 0c0,4 3,7 7,7zm53 14c7,0 21,6 21,21 0,15 -14,21 -21,21l-74 0c-4,0 -7,-3 -7,-7l0 0c0,-4 3,-7 7,-7l73 0c9,0 10,-14 0,-14l-50 0c-4,0 -7,-3 -7,-7l0 0c0,-4 3,-7 7,-7l51 0zm-97 0l23 0c4,0 7,3 7,7l0 0c0,4 -3,7 -7,7l-23 0c-4,0 -7,-3 -7,-7l0 0c0,-4 3,-7 7,-7zm21 70l12 0c4,0 7,-3 7,-7l0 0c0,-4 -3,-7 -7,-7l-12 0c-4,0 -7,3 -7,7l0 0c0,4 3,7 7,7z"/>
  </g>
 </g>
</svg>
