<?xml version="1.0" encoding="UTF-8"?>
<!DOCTYPE svg PUBLIC "-//W3C//DTD SVG 1.1//EN" "http://www.w3.org/Graphics/SVG/1.1/DTD/svg11.dtd">
<!-- Creator: CorelDRAW X7 -->
<svg xmlns="http://www.w3.org/2000/svg" xml:space="preserve" width="350px" height="270px" version="1.1" shape-rendering="geometricPrecision" text-rendering="geometricPrecision" image-rendering="optimizeQuality" fill-rule="evenodd" clip-rule="evenodd"
viewBox="0 0 350 270"
 xmlns:xlink="http://www.w3.org/1999/xlink">
 <defs>
    <linearGradient id="id0" gradientUnits="userSpaceOnUse" x1="175" y1="247.876" x2="175" y2="139.163">
     <stop offset="0" stop-opacity="1" stop-color="#034B61"/>
     <stop offset="1" stop-opacity="1" stop-color="#009897"/>
    </linearGradient>
 </defs>
 <g id="Layer_x0020_1">
  <metadata id="CorelCorpID_0Corel-Layer"/>
  <rect fill="none" width="350" height="270"/>
  <g id="_1708210740160">
   <path fill="#202C38" d="M25 22l67 0 0 14 -51 0 0 30 50 0 0 15 -50 0 0 43 -16 0 0 -102zm89 69c0,21 19,24 48,18 0,5 0,9 0,13 -7,1 -13,2 -21,2 -24,0 -42,-9 -42,-33 0,-13 0,-23 6,-31 5,-6 14,-11 27,-11 11,0 21,4 26,9 6,6 7,13 7,23l0 10 -51 0zm18 -29c9,0 20,3 19,18l-37 0c-1,-13 10,-18 18,-18zm60 29c0,21 19,24 48,18 0,5 0,9 0,13 -7,1 -14,2 -21,2 -24,0 -42,-9 -42,-33 0,-13 0,-23 6,-31 5,-6 14,-11 27,-11 11,0 21,4 26,9 6,6 7,13 7,23l0 10 -51 0zm18 -29c9,0 20,3 18,18l-36 0c-1,-13 10,-18 18,-18zm99 47l0 -43c-8,-3 -15,-5 -25,-3 -8,2 -14,7 -14,23 -1,13 6,21 13,24 8,3 18,2 26,-1zm16 -87l-16 0 0 31c-15,-5 -30,-5 -42,3 -9,6 -12,20 -12,31 0,11 3,23 12,30 15,12 37,7 58,2l0 -66 0 -31z"/>
   <path fill="url(#id0)" d="M269 212c0,23 21,26 52,19 0,5 0,10 0,15 -7,1 -15,2 -23,2 -26,0 -46,-11 -46,-36 0,-15 1,-26 8,-34 5,-7 15,-12 28,-12 13,0 23,4 29,10 6,6 7,13 7,25l0 11 -55 0zm20 -32c9,0 21,3 20,19l-40 0c-1,-14 11,-19 20,-19zm-215 -41l-48 0 0 109 17 0 0 -94 29 0c11,0 16,7 16,14 0,12 -15,22 -32,24l0 4 35 52 23 0 -34 -49c17,-8 27,-20 26,-34 -2,-13 -7,-26 -32,-26zm98 61l0 -5c0,-5 -1,-11 -7,-13 -11,-5 -31,-3 -41,2l0 -14c8,-3 19,-4 29,-4 25,0 35,9 35,28l0 54 -8 0c-3,-2 -5,-4 -7,-8 -8,5 -15,8 -26,8 -15,0 -29,-7 -29,-24 0,-13 5,-26 30,-26 8,0 16,0 24,2zm0 28c-5,2 -10,4 -17,6 -14,3 -21,-3 -21,-11 0,-7 4,-13 22,-13 5,0 11,2 16,4l0 14zm71 -48l0 -13 -23 0c-1,-5 -2,-10 -4,-15l-10 0 0 74c0,17 7,22 24,22 4,0 9,-1 13,-1l0 -13c-3,0 -7,0 -11,0 -5,0 -9,-2 -9,-10l0 -44 20 0z"/>
  </g>
 </g>
</svg>
