<?xml version="1.0" encoding="UTF-8"?>
<!DOCTYPE svg PUBLIC "-//W3C//DTD SVG 1.1//EN" "http://www.w3.org/Graphics/SVG/1.1/DTD/svg11.dtd">
<!-- Creator: CorelDRAW X7 -->
<svg xmlns="http://www.w3.org/2000/svg" xml:space="preserve" width="512px" height="512px" version="1.1" shape-rendering="geometricPrecision" text-rendering="geometricPrecision" image-rendering="optimizeQuality" fill-rule="evenodd" clip-rule="evenodd"
viewBox="0 0 512 512"
 xmlns:xlink="http://www.w3.org/1999/xlink">
 <defs>
    <linearGradient id="id0" gradientUnits="userSpaceOnUse" x1="256" y1="436.846" x2="256" y2="312.374">
     <stop offset="0" stop-opacity="1" stop-color="#034B61"/>
     <stop offset="1" stop-opacity="1" stop-color="#009897"/>
    </linearGradient>
    <linearGradient id="id1" gradientUnits="userSpaceOnUse" x1="308.524" y1="189.976" x2="308.524" y2="16.8461">
     <stop offset="0" stop-opacity="1" stop-color="#034B61"/>
     <stop offset="1" stop-opacity="1" stop-color="#009897"/>
    </linearGradient>
 </defs>
 <g id="Layer_x0020_1">
  <metadata id="CorelCorpID_0Corel-Layer"/>
  <rect fill="white" width="512" height="512"/>
  <g id="_1708202336240">
   <path fill="#202C38" d="M84 178l77 0 0 17 -58 0 0 34 56 0 0 17 -56 0 0 50 -19 0 0 -118zm102 80c0,24 22,27 55,20 0,5 0,10 0,15 -7,1 -15,3 -24,3 -27,0 -48,-12 -48,-38 0,-16 0,-27 7,-36 6,-7 16,-13 30,-13 13,0 24,5 31,10 6,7 7,15 7,27l0 12 -58 0zm21 -34c10,0 23,3 21,20l-42 0c-1,-14 11,-20 21,-20zm68 34c0,24 22,27 56,20 0,5 0,10 0,15 -8,1 -16,3 -25,3 -27,0 -48,-12 -48,-38 0,-16 0,-27 8,-36 5,-7 16,-13 30,-13 13,0 24,5 30,10 6,7 8,15 8,27l0 12 -59 0zm22 -34c9,0 22,3 20,20l-42 0c-1,-14 12,-20 22,-20zm113 54l0 -49c-10,-4 -18,-6 -29,-3 -10,2 -17,8 -17,25 0,16 8,24 16,28 9,3 20,2 30,-1zm18 -100l-18 0 0 36c-18,-6 -35,-6 -48,3 -11,6 -14,23 -14,36 0,12 3,26 13,34 18,13 43,9 67,2l0 -75 0 -36z"/>
   <path fill="url(#id0)" d="M363 396c0,26 24,30 60,22 0,5 0,11 0,16 -8,2 -17,3 -26,3 -29,0 -53,-12 -53,-41 0,-17 1,-30 9,-39 6,-8 17,-14 33,-14 14,0 26,5 32,11 7,7 9,16 9,29l0 13 -64 0zm24 -37c10,0 24,3 22,22l-46 0c-1,-16 13,-22 24,-22zm-247 -47l-55 0 0 125 20 0 0 -108 33 0c13,0 18,8 18,16 0,14 -17,25 -37,27l0 5 41 60 27 0 -40 -56c20,-9 31,-23 30,-39 -2,-15 -8,-30 -37,-30zm112 70l0 -5c0,-7 0,-13 -8,-16 -12,-5 -35,-3 -47,3l0 -16c10,-3 22,-5 34,-5 28,0 40,11 40,32l0 62 -9 0c-3,-2 -6,-5 -8,-9 -9,5 -18,9 -30,9 -18,0 -34,-8 -34,-27 0,-16 6,-31 35,-31 9,0 19,1 27,3zm0 32c-6,2 -11,5 -19,6 -16,4 -24,-3 -24,-12 0,-7 5,-14 25,-14 6,0 13,2 18,3l0 17zm82 -55l0 -15 -27 0c-1,-6 -2,-11 -4,-17l-12 0 0 84c0,21 9,26 28,26 5,0 10,-1 15,-2l0 -15c-4,1 -8,1 -12,1 -6,0 -11,-3 -11,-12l0 -50 23 0z"/>
   <path fill="url(#id1)" d="M262 160l43 0c1,-6 2,-12 5,-17l-48 0c-4,0 -8,4 -8,9l0 0c0,4 4,8 8,8zm166 -57l-108 87c-1,-34 0,-38 16,-50l45 -37 -45 -36c-16,-12 -17,-16 -16,-50l108 86zm-207 -56c-4,0 -8,4 -8,8 0,5 4,8 8,8 5,0 8,-3 8,-8 0,-4 -3,-8 -8,-8zm-24 80c-4,0 -8,-3 -8,-8 0,-4 4,-8 8,-8 5,0 8,4 8,8 0,5 -3,8 -8,8zm50 -64l63 0c-3,-4 -4,-10 -5,-16l-58 0c-4,0 -8,4 -8,8l0 0c0,5 4,8 8,8zm62 16c8,0 24,7 24,24 0,18 -16,24 -24,24l-85 0c-5,0 -8,-3 -8,-8l0 0c0,-4 3,-8 8,-8l84 0c10,0 10,-16 0,-16l-58 0c-4,0 -8,-3 -8,-8l0 0c0,-4 4,-8 8,-8l59 0zm-112 0l27 0c4,0 8,4 8,8l0 0c0,5 -4,8 -8,8l-27 0c-4,0 -8,-3 -8,-8l0 0c0,-4 4,-8 8,-8zm24 81l15 0c4,0 8,-4 8,-8l0 0c0,-5 -4,-9 -8,-9l-15 0c-4,0 -8,4 -8,9l0 0c0,4 4,8 8,8z"/>
  </g>
 </g>
</svg>
