<?xml version="1.0" encoding="UTF-8"?>
<!DOCTYPE svg PUBLIC "-//W3C//DTD SVG 1.1//EN" "http://www.w3.org/Graphics/SVG/1.1/DTD/svg11.dtd">
<!-- Creator: CorelDRAW X7 -->
<svg xmlns="http://www.w3.org/2000/svg" xml:space="preserve" width="650px" height="150px" version="1.1" shape-rendering="geometricPrecision" text-rendering="geometricPrecision" image-rendering="optimizeQuality" fill-rule="evenodd" clip-rule="evenodd"
viewBox="0 0 650 150"
 xmlns:xlink="http://www.w3.org/1999/xlink">
 <defs>
    <linearGradient id="id0" gradientUnits="userSpaceOnUse" x1="490.774" y1="113.616" x2="490.774" y2="36.3816">
     <stop offset="0" stop-opacity="1" stop-color="#034B61"/>
     <stop offset="1" stop-opacity="1" stop-color="#009897"/>
    </linearGradient>
 </defs>
 <g id="Layer_x0020_1">
  <metadata id="CorelCorpID_0Corel-Layer"/>
  <rect fill="none" width="650" height="150"/>
  <g id="_1708446201248">
   <path fill="#202C38" d="M312 27l-15 0 0 29c-15,-4 -29,-4 -40,3 -10,5 -12,19 -12,30 0,10 3,22 11,28 15,12 36,8 56,2l0 -63 0 -29zm-15 83l0 -41c-8,-3 -15,-5 -24,-3 -8,2 -14,7 -14,21 0,14 6,21 13,24 8,3 17,2 25,-1zm-95 -46c8,0 19,3 17,18l-35 0c0,-12 10,-18 18,-18zm-18 29c0,20 19,23 47,17 0,4 0,8 0,13 -7,1 -13,2 -21,2 -22,0 -40,-10 -40,-32 0,-13 0,-23 6,-30 5,-6 14,-11 26,-11 10,0 20,4 25,9 5,5 6,12 6,22l0 10 -49 0zm-56 -29c8,0 18,3 17,18l-35 0c-1,-12 9,-18 18,-18zm-18 29c0,20 18,23 46,17 0,4 0,8 0,13 -6,1 -13,2 -21,2 -22,0 -40,-10 -40,-32 0,-13 1,-23 7,-30 5,-6 13,-11 25,-11 11,0 20,4 25,9 6,5 7,12 7,22l0 10 -49 0zm-85 -68l64 0 0 14 -48 0 0 29 47 0 0 14 -47 0 0 41 -16 0 0 -98z"/>
   <path fill="url(#id0)" d="M552 63l0 -12 -21 0c-1,-4 -2,-8 -3,-13l-10 0 0 67c0,16 7,20 22,20 4,0 8,-1 12,-2l0 -11c-3,0 -6,0 -10,0 -4,0 -8,-2 -8,-9l0 -40 18 0zm-64 43c-5,2 -9,4 -15,6 -13,3 -19,-3 -19,-10 0,-6 4,-11 19,-11 5,0 11,1 15,3l0 12zm0 -24l0 -5c0,-5 -1,-10 -7,-12 -9,-4 -27,-2 -36,2l0 -12c7,-3 17,-4 26,-4 22,0 32,8 32,25l0 49 -8 0c-2,-2 -4,-4 -6,-7 -7,4 -14,7 -23,7 -14,0 -27,-7 -27,-22 0,-12 5,-24 27,-24 7,0 15,1 22,3zm-88 -57l-43 0 0 98 15 0 0 -84 26 0c10,0 14,6 14,12 0,11 -13,20 -28,22l0 3 31 47 21 0 -31 -44c16,-7 25,-17 23,-30 -1,-12 -5,-24 -28,-24zm193 38c9,0 19,3 18,18l-36 0c-1,-13 10,-18 18,-18zm-18 29c0,21 19,24 47,17 0,5 0,9 0,14 -6,0 -13,2 -21,2 -23,0 -41,-10 -41,-33 0,-13 1,-23 7,-31 5,-5 14,-10 26,-10 11,0 20,4 25,9 6,5 7,12 7,22l0 10 -50 0z"/>
  </g>
 </g>
</svg>
