<?xml version="1.0" encoding="UTF-8"?>
<!DOCTYPE svg PUBLIC "-//W3C//DTD SVG 1.1//EN" "http://www.w3.org/Graphics/SVG/1.1/DTD/svg11.dtd">
<!-- Creator: CorelDRAW X7 -->
<svg xmlns="http://www.w3.org/2000/svg" xml:space="preserve" width="650px" height="290px" version="1.1" shape-rendering="geometricPrecision" text-rendering="geometricPrecision" image-rendering="optimizeQuality" fill-rule="evenodd" clip-rule="evenodd"
viewBox="0 0 650 290"
 xmlns:xlink="http://www.w3.org/1999/xlink">
 <defs>
    <linearGradient id="id0" gradientUnits="userSpaceOnUse" x1="212.214" y1="172.597" x2="212.214" y2="28.0701">
     <stop offset="0" stop-opacity="1" stop-color="#034B61"/>
     <stop offset="1" stop-opacity="1" stop-color="#009897"/>
    </linearGradient>
     <linearGradient id="id1" gradientUnits="userSpaceOnUse" x1="490.774" y1="251.036" x2="490.774" y2="173.801">
      <stop offset="0" stop-opacity="1" stop-color="#034B61"/>
      <stop offset="1" stop-opacity="1" stop-color="#009897"/>
     </linearGradient>
 </defs>
 <g id="Layer_x0020_1">
  <metadata id="CorelCorpID_0Corel-Layer"/>
  <rect fill="none" width="650" height="290"/>
  <g id="_1708210696000">
   <path fill="url(#id0)" d="M173 147l36 0c1,-5 2,-9 4,-13l-40 0c-3,0 -6,3 -6,6l0 0c0,4 3,7 6,7zm139 -47l-90 73c-1,-29 0,-32 13,-42l37 -31 -37 -30c-13,-10 -14,-13 -13,-42l90 72zm-173 -46c-3,0 -6,3 -6,6 0,4 3,7 6,7 4,0 7,-3 7,-7 0,-3 -3,-6 -7,-6zm-20 66c-3,0 -6,-3 -6,-6 0,-4 3,-7 6,-7 4,0 7,3 7,7 0,3 -3,6 -7,6zm42 -53l52 0c-2,-4 -3,-9 -4,-13l-48 0c-3,0 -6,3 -6,6l0 0c0,4 3,7 6,7zm52 13c6,0 19,6 19,20 0,15 -13,20 -19,20l-72 0c-3,0 -6,-3 -6,-6l0 0c0,-4 3,-7 6,-7l71 0c8,0 8,-13 0,-13l-49 0c-3,0 -6,-3 -6,-7l0 0c0,-4 3,-7 6,-7l50 0zm-94 0l22 0c4,0 7,3 7,7l0 0c0,4 -3,7 -7,7l-22 0c-3,0 -6,-3 -6,-7l0 0c0,-4 3,-7 6,-7zm20 67l13 0c3,0 6,-3 6,-7l0 0c0,-3 -3,-6 -6,-6l-13 0c-3,0 -6,3 -6,6l0 0c0,4 3,7 6,7z"/>
   <g>
    <path fill="#202C38" d="M312 164l-15 0 0 30c-15,-5 -29,-5 -40,2 -10,6 -12,19 -12,30 0,10 3,23 11,29 15,11 36,7 56,2l0 -63 0 -30zm-15 83l0 -41c-8,-3 -15,-4 -24,-2 -8,1 -14,6 -14,21 0,13 6,20 13,23 8,3 17,2 25,-1zm-95 -45c8,0 19,3 17,17l-35 0c0,-12 10,-17 18,-17zm-18 28c0,20 19,23 47,17 0,4 0,9 0,13 -7,1 -13,2 -21,2 -22,0 -40,-9 -40,-32 0,-12 0,-22 6,-30 5,-5 14,-10 26,-10 10,0 20,4 25,8 5,6 6,12 6,23l0 9 -49 0zm-56 -28c8,0 18,3 17,17l-35 0c-1,-12 9,-17 18,-17zm-18 28c0,20 18,23 46,17 0,4 0,9 0,13 -6,1 -13,2 -21,2 -22,0 -40,-9 -40,-32 0,-12 1,-22 7,-30 5,-5 13,-10 25,-10 11,0 20,4 25,8 6,6 7,12 7,23l0 9 -49 0zm-85 -67l64 0 0 14 -48 0 0 28 47 0 0 14 -47 0 0 42 -16 0 0 -98z"/>
    <path fill="url(#id1)" d="M552 201l0 -12 -21 0c-1,-4 -2,-9 -3,-13l-10 0 0 66c0,16 7,20 22,20 4,0 8,-1 12,-1l0 -12c-3,0 -6,1 -10,0 -4,0 -8,-2 -8,-9l0 -39 18 0zm-64 43c-5,2 -9,4 -15,5 -13,3 -19,-2 -19,-10 0,-5 4,-11 19,-11 5,0 11,2 15,3l0 13zm0 -25l0 -4c0,-6 -1,-10 -7,-13 -9,-4 -27,-2 -36,2l0 -12c7,-2 17,-3 26,-3 22,0 32,7 32,25l0 48 -8 0c-2,-2 -4,-4 -6,-7 -7,4 -14,7 -23,7 -14,0 -27,-6 -27,-21 0,-12 5,-24 27,-24 7,0 15,0 22,2zm-88 -56l-43 0 0 98 15 0 0 -85 26 0c10,0 14,6 14,12 0,11 -13,20 -28,22l0 4 31 47 21 0 -31 -44c16,-7 25,-18 23,-31 -1,-12 -5,-23 -28,-23zm193 37c9,0 19,3 18,18l-36 0c-1,-12 10,-18 18,-18zm-18 29c0,21 19,24 47,18 0,4 0,9 0,13 -6,1 -13,2 -21,2 -23,0 -41,-10 -41,-33 0,-12 1,-23 7,-30 5,-6 14,-11 26,-11 11,0 20,4 25,9 6,5 7,12 7,23l0 9 -50 0z"/>
   </g>
  </g>
 </g>
</svg>
